M48
; DRILL file {KiCad (7.0.0)} date Wed Aug 23 12:35:51 2023
; FORMAT={-:-/ absolute / inch / decimal}
; #@! TF.CreationDate,2023-08-23T12:35:51+05:30
; #@! TF.GenerationSoftware,Kicad,Pcbnew,(7.0.0)
; #@! TF.FileFunction,Plated,1,2,PTH
FMAT,2
INCH
; #@! TA.AperFunction,Plated,PTH,ViaDrill
T1C0.0157
; #@! TA.AperFunction,Plated,PTH,ComponentDrill
T2C0.0394
; #@! TA.AperFunction,Plated,PTH,ComponentDrill
T3C0.0402
; #@! TA.AperFunction,Plated,PTH,ComponentDrill
T4C0.0433
; #@! TA.AperFunction,Plated,PTH,ComponentDrill
T5C0.1260
%
G90
G05
T1
X3.03Y-3.61
X3.03Y-3.72
X3.03Y-3.83
X3.74Y-3.68
X3.92Y-3.68
X4.03Y-3.68
X4.14Y-3.68
X4.25Y-3.68
X4.36Y-3.68
X4.47Y-3.68
X4.58Y-3.68
X5.19Y-3.67
X5.28Y-3.85
X5.3Y-3.67
X5.39Y-3.85
X5.41Y-3.67
X5.5Y-3.85
X5.52Y-3.67
X5.63Y-3.67
X5.74Y-3.67
X5.85Y-3.67
X5.96Y-3.67
X6.07Y-3.67
X6.79Y-3.67
X6.9Y-3.67
X7.01Y-3.67
X7.12Y-3.67
X7.23Y-3.67
X7.34Y-3.67
X7.46Y-3.67
X7.57Y-3.67
X7.66Y-3.84
X7.68Y-3.67
X7.77Y-3.84
X7.88Y-3.84
X9.56Y-3.64
X10.17Y-3.6
X10.21Y-3.6
X10.25Y-3.6
T2
X9.171Y-4.0084
X9.171Y-4.6084
X9.531Y-4.0084
X9.531Y-4.6084
T3
X8.96Y-2.8404
X8.96Y-2.9404
X8.96Y-3.0404
X8.96Y-3.1404
X8.96Y-3.2404
X8.96Y-3.3404
X8.96Y-3.4404
X8.96Y-3.5404
X8.96Y-3.6404
X8.96Y-3.7404
X8.96Y-3.8404
X8.96Y-3.9404
X8.96Y-4.0404
X8.96Y-4.1404
X8.96Y-4.2404
X8.96Y-4.3404
X8.96Y-4.4404
X8.96Y-4.5404
X8.96Y-4.6404
X9.96Y-2.8404
X9.96Y-2.9404
X9.96Y-3.0404
X9.96Y-3.1404
X9.96Y-3.2404
X9.96Y-3.3404
X9.96Y-3.4404
X9.96Y-3.5404
X9.96Y-3.6404
X9.96Y-3.7404
X9.96Y-3.8404
X9.96Y-3.9404
X9.96Y-4.0404
X9.96Y-4.1404
X9.96Y-4.2404
X9.96Y-4.3404
X9.96Y-4.4404
X9.96Y-4.5404
X9.96Y-4.6404
X10.23Y-4.4019
X10.23Y-4.52
X10.26Y-2.9423
X10.26Y-3.0604
T4
X10.122Y-3.8314
X10.122Y-4.0086
X10.378Y-3.8314
X10.378Y-4.0086
T5
X3.2972Y-3.07
X3.2972Y-4.45
X8.66Y-3.07
X8.66Y-4.45
T0
M30
