%TF.GenerationSoftware,KiCad,Pcbnew,(7.0.0)*%
%TF.CreationDate,2023-08-21T10:27:13+05:30*%
%TF.ProjectId,X1A51B8-v1,58314135-3142-4382-9d76-312e6b696361,rev?*%
%TF.SameCoordinates,Original*%
%TF.FileFunction,Profile,NP*%
%FSLAX46Y46*%
G04 Gerber Fmt 4.6, Leading zero omitted, Abs format (unit mm)*
G04 Created by KiCad (PCBNEW (7.0.0)) date 2023-08-21 10:27:13*
%MOMM*%
%LPD*%
G01*
G04 APERTURE LIST*
%TA.AperFunction,Profile*%
%ADD10C,0.100000*%
%TD*%
%ADD11C,0.150000*%
G04 APERTURE END LIST*
D10*
X268224000Y-119126000D02*
X268224000Y-71120000D01*
X210566000Y-100742000D02*
X77470000Y-100742000D01*
X77470000Y-88742000D02*
G75*
G03*
X75946000Y-90266000I0J-1524000D01*
G01*
X75946000Y-99218000D02*
G75*
G03*
X77470000Y-100742000I1524000J0D01*
G01*
X214376000Y-84932000D02*
X214376000Y-71120000D01*
X210566000Y-88742000D02*
X77470000Y-88742000D01*
X214376000Y-104552000D02*
X214376000Y-119126000D01*
X214376000Y-84932000D02*
X210566000Y-88742000D01*
X214376000Y-119126000D02*
G75*
G03*
X215900000Y-120650000I1524000J0D01*
G01*
X266700000Y-120650000D02*
G75*
G03*
X268224000Y-119126000I0J1524000D01*
G01*
X266700000Y-120650000D02*
X215900000Y-120650000D01*
X268224000Y-71120000D02*
G75*
G03*
X266700000Y-69596000I-1524000J0D01*
G01*
X214376000Y-104552000D02*
X210566000Y-100742000D01*
X75946000Y-90266000D02*
X75946000Y-99218000D01*
X215900000Y-69596000D02*
G75*
G03*
X214376000Y-71120000I0J-1524000D01*
G01*
X215900000Y-69596000D02*
X266700000Y-69596000D01*
D11*
X67305380Y-98851522D02*
X67305380Y-98184856D01*
X67305380Y-98184856D02*
X68305380Y-98613427D01*
X68210142Y-97803903D02*
X68257761Y-97756284D01*
X68257761Y-97756284D02*
X68305380Y-97803903D01*
X68305380Y-97803903D02*
X68257761Y-97851522D01*
X68257761Y-97851522D02*
X68210142Y-97803903D01*
X68210142Y-97803903D02*
X68305380Y-97803903D01*
X68305380Y-96803904D02*
X68305380Y-97375332D01*
X68305380Y-97089618D02*
X67305380Y-97089618D01*
X67305380Y-97089618D02*
X67448238Y-97184856D01*
X67448238Y-97184856D02*
X67543476Y-97280094D01*
X67543476Y-97280094D02*
X67591095Y-97375332D01*
X68305380Y-95851523D02*
X68305380Y-96422951D01*
X68305380Y-96137237D02*
X67305380Y-96137237D01*
X67305380Y-96137237D02*
X67448238Y-96232475D01*
X67448238Y-96232475D02*
X67543476Y-96327713D01*
X67543476Y-96327713D02*
X67591095Y-96422951D01*
X67400619Y-95470570D02*
X67353000Y-95422951D01*
X67353000Y-95422951D02*
X67305380Y-95327713D01*
X67305380Y-95327713D02*
X67305380Y-95089618D01*
X67305380Y-95089618D02*
X67353000Y-94994380D01*
X67353000Y-94994380D02*
X67400619Y-94946761D01*
X67400619Y-94946761D02*
X67495857Y-94899142D01*
X67495857Y-94899142D02*
X67591095Y-94899142D01*
X67591095Y-94899142D02*
X67733952Y-94946761D01*
X67733952Y-94946761D02*
X68305380Y-95518189D01*
X68305380Y-95518189D02*
X68305380Y-94899142D01*
X67305380Y-94280094D02*
X67305380Y-94184856D01*
X67305380Y-94184856D02*
X67353000Y-94089618D01*
X67353000Y-94089618D02*
X67400619Y-94041999D01*
X67400619Y-94041999D02*
X67495857Y-93994380D01*
X67495857Y-93994380D02*
X67686333Y-93946761D01*
X67686333Y-93946761D02*
X67924428Y-93946761D01*
X67924428Y-93946761D02*
X68114904Y-93994380D01*
X68114904Y-93994380D02*
X68210142Y-94041999D01*
X68210142Y-94041999D02*
X68257761Y-94089618D01*
X68257761Y-94089618D02*
X68305380Y-94184856D01*
X68305380Y-94184856D02*
X68305380Y-94280094D01*
X68305380Y-94280094D02*
X68257761Y-94375332D01*
X68257761Y-94375332D02*
X68210142Y-94422951D01*
X68210142Y-94422951D02*
X68114904Y-94470570D01*
X68114904Y-94470570D02*
X67924428Y-94518189D01*
X67924428Y-94518189D02*
X67686333Y-94518189D01*
X67686333Y-94518189D02*
X67495857Y-94470570D01*
X67495857Y-94470570D02*
X67400619Y-94422951D01*
X67400619Y-94422951D02*
X67353000Y-94375332D01*
X67353000Y-94375332D02*
X67305380Y-94280094D01*
X68305380Y-92918189D02*
X67638714Y-92918189D01*
X67733952Y-92918189D02*
X67686333Y-92870570D01*
X67686333Y-92870570D02*
X67638714Y-92775332D01*
X67638714Y-92775332D02*
X67638714Y-92632475D01*
X67638714Y-92632475D02*
X67686333Y-92537237D01*
X67686333Y-92537237D02*
X67781571Y-92489618D01*
X67781571Y-92489618D02*
X68305380Y-92489618D01*
X67781571Y-92489618D02*
X67686333Y-92441999D01*
X67686333Y-92441999D02*
X67638714Y-92346761D01*
X67638714Y-92346761D02*
X67638714Y-92203904D01*
X67638714Y-92203904D02*
X67686333Y-92108665D01*
X67686333Y-92108665D02*
X67781571Y-92061046D01*
X67781571Y-92061046D02*
X68305380Y-92061046D01*
X68305380Y-91584856D02*
X67638714Y-91584856D01*
X67733952Y-91584856D02*
X67686333Y-91537237D01*
X67686333Y-91537237D02*
X67638714Y-91441999D01*
X67638714Y-91441999D02*
X67638714Y-91299142D01*
X67638714Y-91299142D02*
X67686333Y-91203904D01*
X67686333Y-91203904D02*
X67781571Y-91156285D01*
X67781571Y-91156285D02*
X68305380Y-91156285D01*
X67781571Y-91156285D02*
X67686333Y-91108666D01*
X67686333Y-91108666D02*
X67638714Y-91013428D01*
X67638714Y-91013428D02*
X67638714Y-90870571D01*
X67638714Y-90870571D02*
X67686333Y-90775332D01*
X67686333Y-90775332D02*
X67781571Y-90727713D01*
X67781571Y-90727713D02*
X68305380Y-90727713D01*
D10*
X75446000Y-91186000D02*
X68501580Y-91186000D01*
X75446000Y-98298000D02*
X68501580Y-98298000D01*
X69088000Y-91186000D02*
X69088000Y-98298000D01*
X69088000Y-91186000D02*
X69088000Y-98298000D01*
X69088000Y-91186000D02*
X69674421Y-92312504D01*
X69088000Y-91186000D02*
X68501579Y-92312504D01*
X69088000Y-98298000D02*
X68501579Y-97171496D01*
X69088000Y-98298000D02*
X69674421Y-97171496D01*
M02*
