%TF.GenerationSoftware,KiCad,Pcbnew,(7.0.0)*%
%TF.CreationDate,2023-08-23T12:35:55+05:30*%
%TF.ProjectId,X1A51B8-v1,58314135-3142-4382-9d76-312e6b696361,rev?*%
%TF.SameCoordinates,Original*%
%TF.FileFunction,Soldermask,Bot*%
%TF.FilePolarity,Negative*%
%FSLAX46Y46*%
G04 Gerber Fmt 4.6, Leading zero omitted, Abs format (unit mm)*
G04 Created by KiCad (PCBNEW (7.0.0)) date 2023-08-23 12:35:55*
%MOMM*%
%LPD*%
G01*
G04 APERTURE LIST*
%ADD10C,5.600000*%
%ADD11R,1.530000X1.530000*%
%ADD12C,1.530000*%
%ADD13C,2.000000*%
%ADD14C,1.020000*%
%ADD15R,1.800000X1.800000*%
%ADD16C,1.800000*%
G04 APERTURE END LIST*
D10*
%TO.C,REF\u002A\u002A*%
X83750000Y-113030000D03*
%TD*%
%TO.C,REF\u002A\u002A*%
X219964000Y-77978000D03*
%TD*%
D11*
%TO.C,U1*%
X227583999Y-72145999D03*
D12*
X227584000Y-74686000D03*
X227584000Y-77226000D03*
X227584000Y-79766000D03*
X227584000Y-82306000D03*
X227584000Y-84846000D03*
X227584000Y-87386000D03*
X227584000Y-89926000D03*
X227584000Y-92466000D03*
X227584000Y-95006000D03*
X227584000Y-97546000D03*
X227584000Y-100086000D03*
X227584000Y-102626000D03*
X227584000Y-105166000D03*
X227584000Y-107706000D03*
X227584000Y-110246000D03*
X227584000Y-112786000D03*
X227584000Y-115326000D03*
X227584000Y-117866000D03*
X252984000Y-117866000D03*
X252984000Y-115326000D03*
X252984000Y-112786000D03*
X252984000Y-110246000D03*
X252984000Y-107706000D03*
X252984000Y-105166000D03*
X252984000Y-102626000D03*
X252984000Y-100086000D03*
X252984000Y-97546000D03*
X252984000Y-95006000D03*
X252984000Y-92466000D03*
X252984000Y-89926000D03*
X252984000Y-87386000D03*
X252984000Y-84846000D03*
X252984000Y-82306000D03*
X252984000Y-79766000D03*
X252984000Y-77226000D03*
X252984000Y-74686000D03*
X252984000Y-72146000D03*
%TD*%
D10*
%TO.C,REF\u002A\u002A*%
X219964000Y-113030000D03*
%TD*%
D13*
%TO.C,J3*%
X232943400Y-117053200D03*
X242087400Y-117053200D03*
X232943400Y-101813200D03*
X242087400Y-101813200D03*
%TD*%
%TO.C,SW1*%
X257100000Y-97318000D03*
X263600000Y-97318000D03*
X257100000Y-101818000D03*
X263600000Y-101818000D03*
%TD*%
D14*
%TO.C,J1*%
X257604000Y-73794000D03*
X263604000Y-73794000D03*
D15*
X260603999Y-77733999D03*
D16*
X260604000Y-74734000D03*
%TD*%
D14*
%TO.C,J2*%
X256842000Y-110868000D03*
X262842000Y-110868000D03*
D15*
X259841999Y-114807999D03*
D16*
X259842000Y-111808000D03*
%TD*%
D10*
%TO.C,REF\u002A\u002A*%
X83750000Y-77978000D03*
%TD*%
M02*
