%TF.GenerationSoftware,KiCad,Pcbnew,(7.0.0)*%
%TF.CreationDate,2023-08-23T12:35:54+05:30*%
%TF.ProjectId,X1A51B8-v1,58314135-3142-4382-9d76-312e6b696361,rev?*%
%TF.SameCoordinates,Original*%
%TF.FileFunction,Legend,Top*%
%TF.FilePolarity,Positive*%
%FSLAX46Y46*%
G04 Gerber Fmt 4.6, Leading zero omitted, Abs format (unit mm)*
G04 Created by KiCad (PCBNEW (7.0.0)) date 2023-08-23 12:35:54*
%MOMM*%
%LPD*%
G01*
G04 APERTURE LIST*
%ADD10C,0.300000*%
%ADD11C,0.150000*%
%ADD12C,0.120000*%
%ADD13C,0.127000*%
%ADD14C,0.200000*%
G04 APERTURE END LIST*
D10*
G36*
X259357745Y-87012527D02*
G01*
X259026552Y-87012527D01*
X259201430Y-86247070D01*
X259206803Y-86247070D01*
X259357745Y-87012527D01*
G37*
G36*
X264001345Y-88310977D02*
G01*
X255632499Y-88310977D01*
X255632499Y-86249512D01*
X256368213Y-86249512D01*
X256368717Y-86272441D01*
X256370228Y-86295308D01*
X256372747Y-86318114D01*
X256376273Y-86340859D01*
X256380807Y-86363543D01*
X256386348Y-86386166D01*
X256392897Y-86408728D01*
X256400453Y-86431229D01*
X256409024Y-86453684D01*
X256418619Y-86476109D01*
X256429236Y-86498503D01*
X256440875Y-86520866D01*
X256453538Y-86543199D01*
X256463706Y-86559929D01*
X256474449Y-86576641D01*
X256485768Y-86593337D01*
X256497662Y-86610015D01*
X256501894Y-86615631D01*
X256516293Y-86633569D01*
X256533242Y-86653138D01*
X256552740Y-86674338D01*
X256567156Y-86689379D01*
X256582706Y-86705144D01*
X256599389Y-86721634D01*
X256617205Y-86738849D01*
X256636155Y-86756790D01*
X256656238Y-86775455D01*
X256677455Y-86794846D01*
X256699805Y-86814961D01*
X256723289Y-86835802D01*
X256747906Y-86857368D01*
X256773656Y-86879659D01*
X256781771Y-86886691D01*
X256797227Y-86900632D01*
X256818479Y-86921236D01*
X256837412Y-86941470D01*
X256854027Y-86961335D01*
X256868324Y-86980831D01*
X256880303Y-86999958D01*
X256889963Y-87018716D01*
X256897304Y-87037104D01*
X256903487Y-87061047D01*
X256905547Y-87084334D01*
X256905092Y-87095795D01*
X256901451Y-87117685D01*
X256894170Y-87138201D01*
X256883248Y-87157344D01*
X256868685Y-87175113D01*
X256853768Y-87188870D01*
X256847255Y-87194017D01*
X256830089Y-87205430D01*
X256811659Y-87214768D01*
X256791964Y-87222031D01*
X256771006Y-87227218D01*
X256748783Y-87230331D01*
X256725296Y-87231369D01*
X256703862Y-87230636D01*
X256682424Y-87228438D01*
X256660982Y-87224774D01*
X256639536Y-87219645D01*
X256618087Y-87213050D01*
X256596634Y-87204990D01*
X256575176Y-87195465D01*
X256553715Y-87184474D01*
X256532251Y-87172018D01*
X256510782Y-87158096D01*
X256489310Y-87142709D01*
X256467834Y-87125856D01*
X256446354Y-87107538D01*
X256424870Y-87087754D01*
X256403382Y-87066505D01*
X256381891Y-87043790D01*
X256381891Y-87387684D01*
X256404269Y-87410399D01*
X256426709Y-87431648D01*
X256449210Y-87451431D01*
X256471772Y-87469750D01*
X256494395Y-87486602D01*
X256517079Y-87501990D01*
X256539824Y-87515912D01*
X256562630Y-87528368D01*
X256585498Y-87539359D01*
X256608426Y-87548884D01*
X256631415Y-87556944D01*
X256654466Y-87563539D01*
X256677577Y-87568668D01*
X256700750Y-87572332D01*
X256723983Y-87574530D01*
X256747278Y-87575263D01*
X256775467Y-87574694D01*
X256803003Y-87572988D01*
X256829887Y-87570145D01*
X256856119Y-87566165D01*
X256881697Y-87561047D01*
X256906623Y-87554792D01*
X256930897Y-87547400D01*
X256954518Y-87538870D01*
X256977486Y-87529204D01*
X256999802Y-87518400D01*
X257021465Y-87506459D01*
X257042476Y-87493380D01*
X257062834Y-87479164D01*
X257082539Y-87463812D01*
X257101592Y-87447321D01*
X257119993Y-87429694D01*
X257137561Y-87411181D01*
X257153996Y-87392035D01*
X257169297Y-87372255D01*
X257183465Y-87351841D01*
X257196500Y-87330795D01*
X257208401Y-87309114D01*
X257219168Y-87286800D01*
X257228803Y-87263853D01*
X257237304Y-87240272D01*
X257244671Y-87216058D01*
X257250905Y-87191210D01*
X257256005Y-87165728D01*
X257259972Y-87139613D01*
X257262806Y-87112865D01*
X257264506Y-87085483D01*
X257265073Y-87057468D01*
X257264916Y-87043126D01*
X257264095Y-87021871D01*
X257262569Y-87000926D01*
X257260340Y-86980289D01*
X257257406Y-86959961D01*
X257253768Y-86939943D01*
X257249426Y-86920234D01*
X257244380Y-86900834D01*
X257238630Y-86881743D01*
X257232175Y-86862961D01*
X257225017Y-86844488D01*
X257222518Y-86838407D01*
X257214713Y-86820468D01*
X257203585Y-86797258D01*
X257191632Y-86774856D01*
X257178855Y-86753263D01*
X257165254Y-86732480D01*
X257150828Y-86712505D01*
X257135578Y-86693340D01*
X257119504Y-86674983D01*
X257106341Y-86660964D01*
X257091580Y-86646018D01*
X257075223Y-86630144D01*
X257057268Y-86613343D01*
X257037716Y-86595614D01*
X257016567Y-86576958D01*
X257001581Y-86564006D01*
X256985884Y-86550641D01*
X256969478Y-86536864D01*
X256952362Y-86522675D01*
X256934536Y-86508074D01*
X256916000Y-86493061D01*
X256896755Y-86477635D01*
X256887558Y-86470035D01*
X256870041Y-86455025D01*
X256853692Y-86440271D01*
X256838511Y-86425773D01*
X256824498Y-86411531D01*
X256805667Y-86390647D01*
X256789464Y-86370338D01*
X256775889Y-86350604D01*
X256764941Y-86331446D01*
X256756620Y-86312863D01*
X256749614Y-86288981D01*
X256747278Y-86266121D01*
X256748944Y-86247963D01*
X256755098Y-86227647D01*
X256765787Y-86208266D01*
X256778558Y-86192398D01*
X256794661Y-86177217D01*
X256800635Y-86172366D01*
X256819177Y-86159692D01*
X256838646Y-86149835D01*
X256859042Y-86142794D01*
X256880365Y-86138569D01*
X256902616Y-86137161D01*
X256928003Y-86138809D01*
X256953604Y-86143755D01*
X256979420Y-86151998D01*
X257005450Y-86163539D01*
X257022923Y-86173064D01*
X257040491Y-86184055D01*
X257058155Y-86196512D01*
X257075914Y-86210434D01*
X257093769Y-86225821D01*
X257111719Y-86242674D01*
X257129764Y-86260992D01*
X257147905Y-86280775D01*
X257166141Y-86302025D01*
X257184473Y-86324739D01*
X257184473Y-85887056D01*
X257164200Y-85875699D01*
X257143928Y-85865074D01*
X257123656Y-85855182D01*
X257103384Y-85846023D01*
X257083112Y-85837597D01*
X257062840Y-85829903D01*
X257047193Y-85824530D01*
X257413084Y-85824530D01*
X257413084Y-86168424D01*
X257754047Y-86168424D01*
X257754047Y-87544000D01*
X258123342Y-87544000D01*
X258533670Y-87544000D01*
X258896615Y-87544000D01*
X258959630Y-87293895D01*
X259411479Y-87293895D01*
X259468143Y-87544000D01*
X259830600Y-87544000D01*
X259400732Y-85824530D01*
X259839881Y-85824530D01*
X259839881Y-86168424D01*
X260180844Y-86168424D01*
X260180844Y-87544000D01*
X260550139Y-87544000D01*
X260550139Y-86165981D01*
X260884263Y-86165981D01*
X260884263Y-85824530D01*
X261025924Y-85824530D01*
X261025924Y-87028159D01*
X261026485Y-87060654D01*
X261028168Y-87092196D01*
X261030973Y-87122784D01*
X261034900Y-87152417D01*
X261039949Y-87181097D01*
X261046120Y-87208822D01*
X261053413Y-87235593D01*
X261061828Y-87261411D01*
X261071365Y-87286274D01*
X261082024Y-87310183D01*
X261093805Y-87333138D01*
X261106707Y-87355139D01*
X261120732Y-87376186D01*
X261135879Y-87396278D01*
X261152148Y-87415417D01*
X261169539Y-87433602D01*
X261187972Y-87450756D01*
X261207366Y-87466803D01*
X261227722Y-87481744D01*
X261249040Y-87495578D01*
X261271320Y-87508306D01*
X261294561Y-87519926D01*
X261318764Y-87530440D01*
X261343928Y-87539847D01*
X261370055Y-87548148D01*
X261397143Y-87555342D01*
X261425192Y-87561429D01*
X261454204Y-87566409D01*
X261484177Y-87570282D01*
X261515112Y-87573049D01*
X261547009Y-87574709D01*
X261579867Y-87575263D01*
X261611546Y-87574724D01*
X261642347Y-87573110D01*
X261672271Y-87570420D01*
X261701317Y-87566653D01*
X261729485Y-87561810D01*
X261756775Y-87555891D01*
X261783188Y-87548896D01*
X261808722Y-87540824D01*
X261833380Y-87531677D01*
X261857159Y-87521453D01*
X261880060Y-87510153D01*
X261902084Y-87497777D01*
X261923230Y-87484324D01*
X261943499Y-87469795D01*
X261962889Y-87454191D01*
X261981402Y-87437510D01*
X261998970Y-87419823D01*
X262015405Y-87401324D01*
X262030707Y-87382011D01*
X262044875Y-87361886D01*
X262057909Y-87340948D01*
X262069810Y-87319197D01*
X262080578Y-87296633D01*
X262090212Y-87273256D01*
X262098713Y-87249067D01*
X262106080Y-87224064D01*
X262112314Y-87198249D01*
X262117415Y-87171621D01*
X262121382Y-87144180D01*
X262124216Y-87115926D01*
X262125916Y-87086859D01*
X262126482Y-87056979D01*
X262126482Y-86249512D01*
X262368771Y-86249512D01*
X262369275Y-86272441D01*
X262370786Y-86295308D01*
X262373305Y-86318114D01*
X262376831Y-86340859D01*
X262381365Y-86363543D01*
X262386906Y-86386166D01*
X262393455Y-86408728D01*
X262401011Y-86431229D01*
X262409583Y-86453684D01*
X262419177Y-86476109D01*
X262429794Y-86498503D01*
X262441434Y-86520866D01*
X262454096Y-86543199D01*
X262464264Y-86559929D01*
X262475007Y-86576641D01*
X262486326Y-86593337D01*
X262498220Y-86610015D01*
X262502453Y-86615631D01*
X262516851Y-86633569D01*
X262533800Y-86653138D01*
X262553299Y-86674338D01*
X262567715Y-86689379D01*
X262583264Y-86705144D01*
X262599947Y-86721634D01*
X262617764Y-86738849D01*
X262636713Y-86756790D01*
X262656797Y-86775455D01*
X262678013Y-86794846D01*
X262700363Y-86814961D01*
X262723847Y-86835802D01*
X262748464Y-86857368D01*
X262774214Y-86879659D01*
X262782329Y-86886691D01*
X262797785Y-86900632D01*
X262819037Y-86921236D01*
X262837970Y-86941470D01*
X262854586Y-86961335D01*
X262868882Y-86980831D01*
X262880861Y-86999958D01*
X262890521Y-87018716D01*
X262897862Y-87037104D01*
X262904045Y-87061047D01*
X262906106Y-87084334D01*
X262905650Y-87095795D01*
X262902010Y-87117685D01*
X262894728Y-87138201D01*
X262883806Y-87157344D01*
X262869243Y-87175113D01*
X262854326Y-87188870D01*
X262847814Y-87194017D01*
X262830647Y-87205430D01*
X262812217Y-87214768D01*
X262792523Y-87222031D01*
X262771564Y-87227218D01*
X262749341Y-87230331D01*
X262725854Y-87231369D01*
X262704420Y-87230636D01*
X262682982Y-87228438D01*
X262661540Y-87224774D01*
X262640095Y-87219645D01*
X262618645Y-87213050D01*
X262597192Y-87204990D01*
X262575735Y-87195465D01*
X262554274Y-87184474D01*
X262532809Y-87172018D01*
X262511340Y-87158096D01*
X262489868Y-87142709D01*
X262468392Y-87125856D01*
X262446912Y-87107538D01*
X262425428Y-87087754D01*
X262403940Y-87066505D01*
X262382449Y-87043790D01*
X262382449Y-87387684D01*
X262404828Y-87410399D01*
X262427267Y-87431648D01*
X262449768Y-87451431D01*
X262472330Y-87469750D01*
X262494953Y-87486602D01*
X262517637Y-87501990D01*
X262540382Y-87515912D01*
X262563189Y-87528368D01*
X262586056Y-87539359D01*
X262608984Y-87548884D01*
X262631974Y-87556944D01*
X262655024Y-87563539D01*
X262678135Y-87568668D01*
X262701308Y-87572332D01*
X262724542Y-87574530D01*
X262747836Y-87575263D01*
X262776025Y-87574694D01*
X262803562Y-87572988D01*
X262830446Y-87570145D01*
X262856677Y-87566165D01*
X262882256Y-87561047D01*
X262907182Y-87554792D01*
X262931455Y-87547400D01*
X262955076Y-87538870D01*
X262978045Y-87529204D01*
X263000360Y-87518400D01*
X263022024Y-87506459D01*
X263043034Y-87493380D01*
X263063392Y-87479164D01*
X263083098Y-87463812D01*
X263102151Y-87447321D01*
X263120551Y-87429694D01*
X263138119Y-87411181D01*
X263154554Y-87392035D01*
X263169855Y-87372255D01*
X263184023Y-87351841D01*
X263197058Y-87330795D01*
X263208959Y-87309114D01*
X263219727Y-87286800D01*
X263229361Y-87263853D01*
X263237862Y-87240272D01*
X263245229Y-87216058D01*
X263251463Y-87191210D01*
X263256564Y-87165728D01*
X263260531Y-87139613D01*
X263263364Y-87112865D01*
X263265064Y-87085483D01*
X263265631Y-87057468D01*
X263265475Y-87043126D01*
X263264653Y-87021871D01*
X263263128Y-87000926D01*
X263260898Y-86980289D01*
X263257964Y-86959961D01*
X263254326Y-86939943D01*
X263249984Y-86920234D01*
X263244938Y-86900834D01*
X263239188Y-86881743D01*
X263232734Y-86862961D01*
X263225575Y-86844488D01*
X263223076Y-86838407D01*
X263215271Y-86820468D01*
X263204143Y-86797258D01*
X263192190Y-86774856D01*
X263179413Y-86753263D01*
X263165812Y-86732480D01*
X263151386Y-86712505D01*
X263136137Y-86693340D01*
X263120062Y-86674983D01*
X263106899Y-86660964D01*
X263092138Y-86646018D01*
X263075781Y-86630144D01*
X263057826Y-86613343D01*
X263038274Y-86595614D01*
X263017125Y-86576958D01*
X263002139Y-86564006D01*
X262986442Y-86550641D01*
X262970036Y-86536864D01*
X262952920Y-86522675D01*
X262935094Y-86508074D01*
X262916558Y-86493061D01*
X262897313Y-86477635D01*
X262888117Y-86470035D01*
X262870600Y-86455025D01*
X262854251Y-86440271D01*
X262839069Y-86425773D01*
X262825056Y-86411531D01*
X262806226Y-86390647D01*
X262790022Y-86370338D01*
X262776447Y-86350604D01*
X262765499Y-86331446D01*
X262757178Y-86312863D01*
X262750172Y-86288981D01*
X262747836Y-86266121D01*
X262749502Y-86247963D01*
X262755656Y-86227647D01*
X262766345Y-86208266D01*
X262779116Y-86192398D01*
X262795219Y-86177217D01*
X262801194Y-86172366D01*
X262819735Y-86159692D01*
X262839204Y-86149835D01*
X262859600Y-86142794D01*
X262880924Y-86138569D01*
X262903175Y-86137161D01*
X262928561Y-86138809D01*
X262954162Y-86143755D01*
X262979978Y-86151998D01*
X263006009Y-86163539D01*
X263023481Y-86173064D01*
X263041050Y-86184055D01*
X263058713Y-86196512D01*
X263076473Y-86210434D01*
X263094327Y-86225821D01*
X263112277Y-86242674D01*
X263130322Y-86260992D01*
X263148463Y-86280775D01*
X263166699Y-86302025D01*
X263185031Y-86324739D01*
X263185031Y-85887056D01*
X263164759Y-85875699D01*
X263144487Y-85865074D01*
X263124214Y-85855182D01*
X263103942Y-85846023D01*
X263083670Y-85837597D01*
X263063398Y-85829903D01*
X263043126Y-85822942D01*
X263022854Y-85816714D01*
X263002581Y-85811219D01*
X262982309Y-85806456D01*
X262962037Y-85802426D01*
X262941765Y-85799129D01*
X262921493Y-85796564D01*
X262901221Y-85794732D01*
X262880949Y-85793633D01*
X262860676Y-85793267D01*
X262834167Y-85793772D01*
X262808248Y-85795289D01*
X262782921Y-85797818D01*
X262758186Y-85801357D01*
X262734042Y-85805908D01*
X262710490Y-85811470D01*
X262687529Y-85818044D01*
X262665160Y-85825629D01*
X262643382Y-85834225D01*
X262622196Y-85843833D01*
X262601602Y-85854452D01*
X262581598Y-85866082D01*
X262562187Y-85878723D01*
X262543367Y-85892376D01*
X262525138Y-85907040D01*
X262507501Y-85922715D01*
X262490702Y-85939105D01*
X262474986Y-85956032D01*
X262460355Y-85973497D01*
X262446807Y-85991500D01*
X262434343Y-86010042D01*
X262422963Y-86029121D01*
X262412666Y-86048739D01*
X262403454Y-86068895D01*
X262395325Y-86089589D01*
X262388280Y-86110821D01*
X262382319Y-86132591D01*
X262377442Y-86154899D01*
X262373649Y-86177745D01*
X262370939Y-86201129D01*
X262369313Y-86225052D01*
X262368771Y-86249512D01*
X262126482Y-86249512D01*
X262126482Y-85824530D01*
X261751325Y-85824530D01*
X261751325Y-86995919D01*
X261751281Y-87002623D01*
X261750608Y-87022220D01*
X261748456Y-87047148D01*
X261744868Y-87070703D01*
X261739846Y-87092883D01*
X261733389Y-87113689D01*
X261725497Y-87133122D01*
X261716170Y-87151181D01*
X261705408Y-87167866D01*
X261699534Y-87175555D01*
X261683683Y-87192609D01*
X261666161Y-87206563D01*
X261646970Y-87217415D01*
X261626109Y-87225167D01*
X261603579Y-87229818D01*
X261579378Y-87231369D01*
X261558717Y-87230346D01*
X261539231Y-87227278D01*
X261516526Y-87220566D01*
X261495658Y-87210658D01*
X261476627Y-87197553D01*
X261459432Y-87181253D01*
X261446999Y-87165912D01*
X261435893Y-87148547D01*
X261426269Y-87129428D01*
X261418125Y-87108553D01*
X261411461Y-87085922D01*
X261406279Y-87061536D01*
X261403364Y-87042094D01*
X261401282Y-87021665D01*
X261400032Y-87000249D01*
X261399616Y-86977845D01*
X261399616Y-85824530D01*
X261025924Y-85824530D01*
X260884263Y-85824530D01*
X259839881Y-85824530D01*
X259400732Y-85824530D01*
X259024110Y-85824530D01*
X258685261Y-87012527D01*
X258533670Y-87544000D01*
X258123342Y-87544000D01*
X258123342Y-86165981D01*
X258457466Y-86165981D01*
X258457466Y-85824530D01*
X257413084Y-85824530D01*
X257047193Y-85824530D01*
X257042568Y-85822942D01*
X257022295Y-85816714D01*
X257002023Y-85811219D01*
X256981751Y-85806456D01*
X256961479Y-85802426D01*
X256941207Y-85799129D01*
X256920935Y-85796564D01*
X256900662Y-85794732D01*
X256880390Y-85793633D01*
X256860118Y-85793267D01*
X256833608Y-85793772D01*
X256807690Y-85795289D01*
X256782363Y-85797818D01*
X256757628Y-85801357D01*
X256733484Y-85805908D01*
X256709932Y-85811470D01*
X256686971Y-85818044D01*
X256664602Y-85825629D01*
X256642824Y-85834225D01*
X256621638Y-85843833D01*
X256601043Y-85854452D01*
X256581040Y-85866082D01*
X256561629Y-85878723D01*
X256542809Y-85892376D01*
X256524580Y-85907040D01*
X256506943Y-85922715D01*
X256490144Y-85939105D01*
X256474428Y-85956032D01*
X256459796Y-85973497D01*
X256446249Y-85991500D01*
X256433785Y-86010042D01*
X256422404Y-86029121D01*
X256412108Y-86048739D01*
X256402896Y-86068895D01*
X256394767Y-86089589D01*
X256387722Y-86110821D01*
X256381761Y-86132591D01*
X256376884Y-86154899D01*
X256373090Y-86177745D01*
X256370381Y-86201129D01*
X256368755Y-86225052D01*
X256368213Y-86249512D01*
X255632499Y-86249512D01*
X255632499Y-85057553D01*
X264001345Y-85057553D01*
X264001345Y-88310977D01*
G37*
G36*
X266578110Y-76508102D02*
G01*
X266615633Y-76509510D01*
X266651306Y-76511857D01*
X266685128Y-76515143D01*
X266717099Y-76519368D01*
X266747219Y-76524531D01*
X266775488Y-76530633D01*
X266801907Y-76537674D01*
X266826474Y-76545654D01*
X266849191Y-76554573D01*
X266870056Y-76564430D01*
X266889071Y-76575227D01*
X266906235Y-76586962D01*
X266928510Y-76606325D01*
X266946621Y-76627800D01*
X266956972Y-76642787D01*
X266971248Y-76665138D01*
X266984020Y-76687334D01*
X266995290Y-76709376D01*
X267005058Y-76731263D01*
X267013322Y-76752996D01*
X267020084Y-76774575D01*
X267025344Y-76795998D01*
X267029100Y-76817267D01*
X267031354Y-76838382D01*
X267032106Y-76859342D01*
X267032106Y-76903306D01*
X266000424Y-76903306D01*
X266000424Y-76862273D01*
X266001195Y-76839284D01*
X266003507Y-76816478D01*
X266007362Y-76793855D01*
X266012758Y-76771415D01*
X266019696Y-76749158D01*
X266028176Y-76727085D01*
X266038197Y-76705194D01*
X266049761Y-76683487D01*
X266056071Y-76672844D01*
X266069917Y-76652541D01*
X266085395Y-76633551D01*
X266102508Y-76615874D01*
X266121253Y-76599510D01*
X266141632Y-76584458D01*
X266163645Y-76570720D01*
X266181226Y-76561277D01*
X266199726Y-76552573D01*
X266219887Y-76544542D01*
X266242453Y-76537300D01*
X266267423Y-76530849D01*
X266294797Y-76525187D01*
X266314383Y-76521852D01*
X266335036Y-76518868D01*
X266356759Y-76516234D01*
X266379550Y-76513952D01*
X266403409Y-76512021D01*
X266428337Y-76510441D01*
X266454334Y-76509212D01*
X266481399Y-76508335D01*
X266509533Y-76507808D01*
X266538735Y-76507632D01*
X266578110Y-76508102D01*
G37*
G36*
X266192850Y-75194142D02*
G01*
X266212808Y-75194850D01*
X266238377Y-75197117D01*
X266262756Y-75200895D01*
X266285944Y-75206184D01*
X266307941Y-75212985D01*
X266328747Y-75221297D01*
X266348363Y-75231120D01*
X266366788Y-75242454D01*
X266379534Y-75252602D01*
X266394577Y-75269780D01*
X266407392Y-75291124D01*
X266415541Y-75309867D01*
X266422436Y-75330955D01*
X266428078Y-75354386D01*
X266432466Y-75380162D01*
X266435600Y-75408282D01*
X266436993Y-75428331D01*
X266437828Y-75449422D01*
X266438107Y-75471554D01*
X265937898Y-75471554D01*
X265937898Y-75395839D01*
X265938867Y-75371409D01*
X265941775Y-75348555D01*
X265946622Y-75327277D01*
X265953407Y-75307576D01*
X265962131Y-75289450D01*
X265972794Y-75272901D01*
X265985395Y-75257928D01*
X265999935Y-75244531D01*
X266016414Y-75232710D01*
X266034831Y-75222465D01*
X266055188Y-75213796D01*
X266077482Y-75206703D01*
X266101716Y-75201187D01*
X266127888Y-75197247D01*
X266155999Y-75194882D01*
X266186048Y-75194094D01*
X266192850Y-75194142D01*
G37*
G36*
X268111714Y-79039021D02*
G01*
X264920816Y-79039021D01*
X264920816Y-78303306D01*
X265656530Y-78303306D01*
X267376000Y-78303306D01*
X267376000Y-77500724D01*
X267032106Y-77500724D01*
X267032106Y-77934988D01*
X265656530Y-77934988D01*
X265656530Y-78303306D01*
X264920816Y-78303306D01*
X264920816Y-77278463D01*
X265656530Y-77278463D01*
X267376000Y-77278463D01*
X267376000Y-76881324D01*
X267375781Y-76858591D01*
X267375124Y-76836187D01*
X267374029Y-76814112D01*
X267372496Y-76792366D01*
X267370526Y-76770950D01*
X267368117Y-76749862D01*
X267365270Y-76729104D01*
X267361986Y-76708675D01*
X267358264Y-76688575D01*
X267354104Y-76668804D01*
X267349505Y-76649362D01*
X267344469Y-76630250D01*
X267333083Y-76593012D01*
X267319946Y-76557092D01*
X267305056Y-76522487D01*
X267288416Y-76489200D01*
X267270023Y-76457229D01*
X267249879Y-76426574D01*
X267227983Y-76397237D01*
X267204335Y-76369215D01*
X267178936Y-76342511D01*
X267151785Y-76317123D01*
X267137553Y-76304951D01*
X267107961Y-76281767D01*
X267076866Y-76260129D01*
X267044267Y-76240036D01*
X267010165Y-76221489D01*
X266992550Y-76212795D01*
X266974559Y-76204487D01*
X266956192Y-76196566D01*
X266937449Y-76189031D01*
X266918330Y-76181883D01*
X266898836Y-76175121D01*
X266878965Y-76168745D01*
X266858719Y-76162756D01*
X266838097Y-76157153D01*
X266817098Y-76151937D01*
X266795724Y-76147107D01*
X266773974Y-76142663D01*
X266751848Y-76138606D01*
X266729347Y-76134936D01*
X266706469Y-76131651D01*
X266683215Y-76128753D01*
X266659586Y-76126242D01*
X266635580Y-76124116D01*
X266611199Y-76122378D01*
X266586442Y-76121025D01*
X266561308Y-76120059D01*
X266535799Y-76119480D01*
X266509914Y-76119286D01*
X266484304Y-76119484D01*
X266459070Y-76120078D01*
X266434211Y-76121068D01*
X266409729Y-76122454D01*
X266385622Y-76124236D01*
X266361892Y-76126413D01*
X266338537Y-76128987D01*
X266315558Y-76131956D01*
X266292955Y-76135322D01*
X266270728Y-76139083D01*
X266248877Y-76143241D01*
X266227402Y-76147794D01*
X266206302Y-76152743D01*
X266185579Y-76158088D01*
X266165231Y-76163830D01*
X266145260Y-76169967D01*
X266125664Y-76176500D01*
X266106444Y-76183429D01*
X266087600Y-76190754D01*
X266069132Y-76198474D01*
X266051040Y-76206591D01*
X266033324Y-76215104D01*
X265999019Y-76233317D01*
X265966218Y-76253114D01*
X265934921Y-76274495D01*
X265905127Y-76297460D01*
X265876837Y-76322008D01*
X265850159Y-76347838D01*
X265825202Y-76374772D01*
X265801967Y-76402808D01*
X265780453Y-76431948D01*
X265760659Y-76462190D01*
X265742587Y-76493535D01*
X265726236Y-76525983D01*
X265711607Y-76559534D01*
X265698698Y-76594188D01*
X265687511Y-76629945D01*
X265678044Y-76666804D01*
X265670299Y-76704767D01*
X265667072Y-76724162D01*
X265664275Y-76743832D01*
X265661908Y-76763779D01*
X265659972Y-76784001D01*
X265658466Y-76804499D01*
X265657390Y-76825272D01*
X265656745Y-76846321D01*
X265656530Y-76867646D01*
X265656530Y-76903306D01*
X265656530Y-77278463D01*
X264920816Y-77278463D01*
X264920816Y-75841338D01*
X265656530Y-75841338D01*
X267376000Y-75841338D01*
X267376000Y-75471554D01*
X266525057Y-75471554D01*
X266525057Y-75466181D01*
X267376000Y-75168205D01*
X267376000Y-74788651D01*
X266598330Y-75092489D01*
X266587755Y-75074062D01*
X266577035Y-75056273D01*
X266566170Y-75039120D01*
X266555160Y-75022605D01*
X266538373Y-74999028D01*
X266521260Y-74976884D01*
X266503821Y-74956175D01*
X266486055Y-74936899D01*
X266467963Y-74919057D01*
X266449544Y-74902650D01*
X266430800Y-74887676D01*
X266411729Y-74874136D01*
X266391992Y-74861827D01*
X266371251Y-74850729D01*
X266349505Y-74840841D01*
X266326755Y-74832165D01*
X266303000Y-74824699D01*
X266278240Y-74818443D01*
X266252476Y-74813399D01*
X266225707Y-74809565D01*
X266197934Y-74806941D01*
X266169156Y-74805529D01*
X266149412Y-74805260D01*
X266132962Y-74805498D01*
X266108423Y-74806751D01*
X266084046Y-74809076D01*
X266059833Y-74812475D01*
X266035784Y-74816947D01*
X266011897Y-74822493D01*
X265988173Y-74829112D01*
X265964613Y-74836804D01*
X265941216Y-74845569D01*
X265917982Y-74855408D01*
X265894911Y-74866321D01*
X265879838Y-74874276D01*
X265858181Y-74887417D01*
X265837666Y-74902010D01*
X265818294Y-74918055D01*
X265800063Y-74935550D01*
X265782974Y-74954496D01*
X265767027Y-74974894D01*
X265752222Y-74996743D01*
X265738559Y-75020043D01*
X265726038Y-75044794D01*
X265714660Y-75070996D01*
X265707620Y-75088952D01*
X265697913Y-75115899D01*
X265689228Y-75142864D01*
X265681564Y-75169847D01*
X265674922Y-75196846D01*
X265669303Y-75223862D01*
X265664704Y-75250896D01*
X265661128Y-75277947D01*
X265658573Y-75305015D01*
X265657041Y-75332100D01*
X265656530Y-75359203D01*
X265656530Y-75471554D01*
X265656530Y-75841338D01*
X264920816Y-75841338D01*
X264920816Y-74052938D01*
X268111714Y-74052938D01*
X268111714Y-79039021D01*
G37*
X264728571Y-115653142D02*
X264785714Y-115596000D01*
X264785714Y-115596000D02*
X264900000Y-115538857D01*
X264900000Y-115538857D02*
X265185714Y-115538857D01*
X265185714Y-115538857D02*
X265300000Y-115596000D01*
X265300000Y-115596000D02*
X265357142Y-115653142D01*
X265357142Y-115653142D02*
X265414285Y-115767428D01*
X265414285Y-115767428D02*
X265414285Y-115881714D01*
X265414285Y-115881714D02*
X265357142Y-116053142D01*
X265357142Y-116053142D02*
X264671428Y-116738857D01*
X264671428Y-116738857D02*
X265414285Y-116738857D01*
X266442857Y-115938857D02*
X266442857Y-116738857D01*
X266157142Y-115481714D02*
X265871428Y-116338857D01*
X265871428Y-116338857D02*
X266614285Y-116338857D01*
X266899999Y-115538857D02*
X267299999Y-116738857D01*
X267299999Y-116738857D02*
X267699999Y-115538857D01*
X265164285Y-111346000D02*
X265050000Y-111288857D01*
X265050000Y-111288857D02*
X264878571Y-111288857D01*
X264878571Y-111288857D02*
X264707142Y-111346000D01*
X264707142Y-111346000D02*
X264592857Y-111460285D01*
X264592857Y-111460285D02*
X264535714Y-111574571D01*
X264535714Y-111574571D02*
X264478571Y-111803142D01*
X264478571Y-111803142D02*
X264478571Y-111974571D01*
X264478571Y-111974571D02*
X264535714Y-112203142D01*
X264535714Y-112203142D02*
X264592857Y-112317428D01*
X264592857Y-112317428D02*
X264707142Y-112431714D01*
X264707142Y-112431714D02*
X264878571Y-112488857D01*
X264878571Y-112488857D02*
X264992857Y-112488857D01*
X264992857Y-112488857D02*
X265164285Y-112431714D01*
X265164285Y-112431714D02*
X265221428Y-112374571D01*
X265221428Y-112374571D02*
X265221428Y-111974571D01*
X265221428Y-111974571D02*
X264992857Y-111974571D01*
X265735714Y-112488857D02*
X265735714Y-111288857D01*
X265735714Y-111288857D02*
X266421428Y-112488857D01*
X266421428Y-112488857D02*
X266421428Y-111288857D01*
X266992857Y-112488857D02*
X266992857Y-111288857D01*
X266992857Y-111288857D02*
X267278571Y-111288857D01*
X267278571Y-111288857D02*
X267450000Y-111346000D01*
X267450000Y-111346000D02*
X267564285Y-111460285D01*
X267564285Y-111460285D02*
X267621428Y-111574571D01*
X267621428Y-111574571D02*
X267678571Y-111803142D01*
X267678571Y-111803142D02*
X267678571Y-111974571D01*
X267678571Y-111974571D02*
X267621428Y-112203142D01*
X267621428Y-112203142D02*
X267564285Y-112317428D01*
X267564285Y-112317428D02*
X267450000Y-112431714D01*
X267450000Y-112431714D02*
X267278571Y-112488857D01*
X267278571Y-112488857D02*
X266992857Y-112488857D01*
D11*
%TO.C,R10*%
X263009142Y-83679380D02*
X262675809Y-83203190D01*
X262437714Y-83679380D02*
X262437714Y-82679380D01*
X262437714Y-82679380D02*
X262818666Y-82679380D01*
X262818666Y-82679380D02*
X262913904Y-82727000D01*
X262913904Y-82727000D02*
X262961523Y-82774619D01*
X262961523Y-82774619D02*
X263009142Y-82869857D01*
X263009142Y-82869857D02*
X263009142Y-83012714D01*
X263009142Y-83012714D02*
X262961523Y-83107952D01*
X262961523Y-83107952D02*
X262913904Y-83155571D01*
X262913904Y-83155571D02*
X262818666Y-83203190D01*
X262818666Y-83203190D02*
X262437714Y-83203190D01*
X263961523Y-83679380D02*
X263390095Y-83679380D01*
X263675809Y-83679380D02*
X263675809Y-82679380D01*
X263675809Y-82679380D02*
X263580571Y-82822238D01*
X263580571Y-82822238D02*
X263485333Y-82917476D01*
X263485333Y-82917476D02*
X263390095Y-82965095D01*
X264580571Y-82679380D02*
X264675809Y-82679380D01*
X264675809Y-82679380D02*
X264771047Y-82727000D01*
X264771047Y-82727000D02*
X264818666Y-82774619D01*
X264818666Y-82774619D02*
X264866285Y-82869857D01*
X264866285Y-82869857D02*
X264913904Y-83060333D01*
X264913904Y-83060333D02*
X264913904Y-83298428D01*
X264913904Y-83298428D02*
X264866285Y-83488904D01*
X264866285Y-83488904D02*
X264818666Y-83584142D01*
X264818666Y-83584142D02*
X264771047Y-83631761D01*
X264771047Y-83631761D02*
X264675809Y-83679380D01*
X264675809Y-83679380D02*
X264580571Y-83679380D01*
X264580571Y-83679380D02*
X264485333Y-83631761D01*
X264485333Y-83631761D02*
X264437714Y-83584142D01*
X264437714Y-83584142D02*
X264390095Y-83488904D01*
X264390095Y-83488904D02*
X264342476Y-83298428D01*
X264342476Y-83298428D02*
X264342476Y-83060333D01*
X264342476Y-83060333D02*
X264390095Y-82869857D01*
X264390095Y-82869857D02*
X264437714Y-82774619D01*
X264437714Y-82774619D02*
X264485333Y-82727000D01*
X264485333Y-82727000D02*
X264580571Y-82679380D01*
%TO.C,D3*%
X211219905Y-97395380D02*
X211219905Y-96395380D01*
X211219905Y-96395380D02*
X211458000Y-96395380D01*
X211458000Y-96395380D02*
X211600857Y-96443000D01*
X211600857Y-96443000D02*
X211696095Y-96538238D01*
X211696095Y-96538238D02*
X211743714Y-96633476D01*
X211743714Y-96633476D02*
X211791333Y-96823952D01*
X211791333Y-96823952D02*
X211791333Y-96966809D01*
X211791333Y-96966809D02*
X211743714Y-97157285D01*
X211743714Y-97157285D02*
X211696095Y-97252523D01*
X211696095Y-97252523D02*
X211600857Y-97347761D01*
X211600857Y-97347761D02*
X211458000Y-97395380D01*
X211458000Y-97395380D02*
X211219905Y-97395380D01*
X212124667Y-96395380D02*
X212743714Y-96395380D01*
X212743714Y-96395380D02*
X212410381Y-96776333D01*
X212410381Y-96776333D02*
X212553238Y-96776333D01*
X212553238Y-96776333D02*
X212648476Y-96823952D01*
X212648476Y-96823952D02*
X212696095Y-96871571D01*
X212696095Y-96871571D02*
X212743714Y-96966809D01*
X212743714Y-96966809D02*
X212743714Y-97204904D01*
X212743714Y-97204904D02*
X212696095Y-97300142D01*
X212696095Y-97300142D02*
X212648476Y-97347761D01*
X212648476Y-97347761D02*
X212553238Y-97395380D01*
X212553238Y-97395380D02*
X212267524Y-97395380D01*
X212267524Y-97395380D02*
X212172286Y-97347761D01*
X212172286Y-97347761D02*
X212124667Y-97300142D01*
%TO.C,U1*%
X223266095Y-71249380D02*
X223266095Y-72058904D01*
X223266095Y-72058904D02*
X223313714Y-72154142D01*
X223313714Y-72154142D02*
X223361333Y-72201761D01*
X223361333Y-72201761D02*
X223456571Y-72249380D01*
X223456571Y-72249380D02*
X223647047Y-72249380D01*
X223647047Y-72249380D02*
X223742285Y-72201761D01*
X223742285Y-72201761D02*
X223789904Y-72154142D01*
X223789904Y-72154142D02*
X223837523Y-72058904D01*
X223837523Y-72058904D02*
X223837523Y-71249380D01*
X224837523Y-72249380D02*
X224266095Y-72249380D01*
X224551809Y-72249380D02*
X224551809Y-71249380D01*
X224551809Y-71249380D02*
X224456571Y-71392238D01*
X224456571Y-71392238D02*
X224361333Y-71487476D01*
X224361333Y-71487476D02*
X224266095Y-71535095D01*
X232426857Y-94839571D02*
X232760190Y-94839571D01*
X232903047Y-95363380D02*
X232426857Y-95363380D01*
X232426857Y-95363380D02*
X232426857Y-94363380D01*
X232426857Y-94363380D02*
X232903047Y-94363380D01*
X233284000Y-95315761D02*
X233426857Y-95363380D01*
X233426857Y-95363380D02*
X233664952Y-95363380D01*
X233664952Y-95363380D02*
X233760190Y-95315761D01*
X233760190Y-95315761D02*
X233807809Y-95268142D01*
X233807809Y-95268142D02*
X233855428Y-95172904D01*
X233855428Y-95172904D02*
X233855428Y-95077666D01*
X233855428Y-95077666D02*
X233807809Y-94982428D01*
X233807809Y-94982428D02*
X233760190Y-94934809D01*
X233760190Y-94934809D02*
X233664952Y-94887190D01*
X233664952Y-94887190D02*
X233474476Y-94839571D01*
X233474476Y-94839571D02*
X233379238Y-94791952D01*
X233379238Y-94791952D02*
X233331619Y-94744333D01*
X233331619Y-94744333D02*
X233284000Y-94649095D01*
X233284000Y-94649095D02*
X233284000Y-94553857D01*
X233284000Y-94553857D02*
X233331619Y-94458619D01*
X233331619Y-94458619D02*
X233379238Y-94411000D01*
X233379238Y-94411000D02*
X233474476Y-94363380D01*
X233474476Y-94363380D02*
X233712571Y-94363380D01*
X233712571Y-94363380D02*
X233855428Y-94411000D01*
X234284000Y-95363380D02*
X234284000Y-94363380D01*
X234284000Y-94363380D02*
X234664952Y-94363380D01*
X234664952Y-94363380D02*
X234760190Y-94411000D01*
X234760190Y-94411000D02*
X234807809Y-94458619D01*
X234807809Y-94458619D02*
X234855428Y-94553857D01*
X234855428Y-94553857D02*
X234855428Y-94696714D01*
X234855428Y-94696714D02*
X234807809Y-94791952D01*
X234807809Y-94791952D02*
X234760190Y-94839571D01*
X234760190Y-94839571D02*
X234664952Y-94887190D01*
X234664952Y-94887190D02*
X234284000Y-94887190D01*
X235188762Y-94363380D02*
X235807809Y-94363380D01*
X235807809Y-94363380D02*
X235474476Y-94744333D01*
X235474476Y-94744333D02*
X235617333Y-94744333D01*
X235617333Y-94744333D02*
X235712571Y-94791952D01*
X235712571Y-94791952D02*
X235760190Y-94839571D01*
X235760190Y-94839571D02*
X235807809Y-94934809D01*
X235807809Y-94934809D02*
X235807809Y-95172904D01*
X235807809Y-95172904D02*
X235760190Y-95268142D01*
X235760190Y-95268142D02*
X235712571Y-95315761D01*
X235712571Y-95315761D02*
X235617333Y-95363380D01*
X235617333Y-95363380D02*
X235331619Y-95363380D01*
X235331619Y-95363380D02*
X235236381Y-95315761D01*
X235236381Y-95315761D02*
X235188762Y-95268142D01*
X236188762Y-94458619D02*
X236236381Y-94411000D01*
X236236381Y-94411000D02*
X236331619Y-94363380D01*
X236331619Y-94363380D02*
X236569714Y-94363380D01*
X236569714Y-94363380D02*
X236664952Y-94411000D01*
X236664952Y-94411000D02*
X236712571Y-94458619D01*
X236712571Y-94458619D02*
X236760190Y-94553857D01*
X236760190Y-94553857D02*
X236760190Y-94649095D01*
X236760190Y-94649095D02*
X236712571Y-94791952D01*
X236712571Y-94791952D02*
X236141143Y-95363380D01*
X236141143Y-95363380D02*
X236760190Y-95363380D01*
X237188762Y-94982428D02*
X237950667Y-94982428D01*
X238426857Y-95363380D02*
X238426857Y-94363380D01*
X238426857Y-94363380D02*
X238664952Y-94363380D01*
X238664952Y-94363380D02*
X238807809Y-94411000D01*
X238807809Y-94411000D02*
X238903047Y-94506238D01*
X238903047Y-94506238D02*
X238950666Y-94601476D01*
X238950666Y-94601476D02*
X238998285Y-94791952D01*
X238998285Y-94791952D02*
X238998285Y-94934809D01*
X238998285Y-94934809D02*
X238950666Y-95125285D01*
X238950666Y-95125285D02*
X238903047Y-95220523D01*
X238903047Y-95220523D02*
X238807809Y-95315761D01*
X238807809Y-95315761D02*
X238664952Y-95363380D01*
X238664952Y-95363380D02*
X238426857Y-95363380D01*
X239426857Y-94839571D02*
X239760190Y-94839571D01*
X239903047Y-95363380D02*
X239426857Y-95363380D01*
X239426857Y-95363380D02*
X239426857Y-94363380D01*
X239426857Y-94363380D02*
X239903047Y-94363380D01*
X240188762Y-94363380D02*
X240522095Y-95363380D01*
X240522095Y-95363380D02*
X240855428Y-94363380D01*
X241188762Y-95363380D02*
X241188762Y-94363380D01*
X241760190Y-95363380D02*
X241331619Y-94791952D01*
X241760190Y-94363380D02*
X241188762Y-94934809D01*
X242188762Y-95363380D02*
X242188762Y-94363380D01*
X242522095Y-94363380D02*
X243093523Y-94363380D01*
X242807809Y-95363380D02*
X242807809Y-94363380D01*
X243998285Y-95268142D02*
X243950666Y-95315761D01*
X243950666Y-95315761D02*
X243807809Y-95363380D01*
X243807809Y-95363380D02*
X243712571Y-95363380D01*
X243712571Y-95363380D02*
X243569714Y-95315761D01*
X243569714Y-95315761D02*
X243474476Y-95220523D01*
X243474476Y-95220523D02*
X243426857Y-95125285D01*
X243426857Y-95125285D02*
X243379238Y-94934809D01*
X243379238Y-94934809D02*
X243379238Y-94791952D01*
X243379238Y-94791952D02*
X243426857Y-94601476D01*
X243426857Y-94601476D02*
X243474476Y-94506238D01*
X243474476Y-94506238D02*
X243569714Y-94411000D01*
X243569714Y-94411000D02*
X243712571Y-94363380D01*
X243712571Y-94363380D02*
X243807809Y-94363380D01*
X243807809Y-94363380D02*
X243950666Y-94411000D01*
X243950666Y-94411000D02*
X243998285Y-94458619D01*
X244426857Y-94982428D02*
X245188762Y-94982428D01*
X245569714Y-94363380D02*
X246188761Y-94363380D01*
X246188761Y-94363380D02*
X245855428Y-94744333D01*
X245855428Y-94744333D02*
X245998285Y-94744333D01*
X245998285Y-94744333D02*
X246093523Y-94791952D01*
X246093523Y-94791952D02*
X246141142Y-94839571D01*
X246141142Y-94839571D02*
X246188761Y-94934809D01*
X246188761Y-94934809D02*
X246188761Y-95172904D01*
X246188761Y-95172904D02*
X246141142Y-95268142D01*
X246141142Y-95268142D02*
X246093523Y-95315761D01*
X246093523Y-95315761D02*
X245998285Y-95363380D01*
X245998285Y-95363380D02*
X245712571Y-95363380D01*
X245712571Y-95363380D02*
X245617333Y-95315761D01*
X245617333Y-95315761D02*
X245569714Y-95268142D01*
X246569714Y-94458619D02*
X246617333Y-94411000D01*
X246617333Y-94411000D02*
X246712571Y-94363380D01*
X246712571Y-94363380D02*
X246950666Y-94363380D01*
X246950666Y-94363380D02*
X247045904Y-94411000D01*
X247045904Y-94411000D02*
X247093523Y-94458619D01*
X247093523Y-94458619D02*
X247141142Y-94553857D01*
X247141142Y-94553857D02*
X247141142Y-94649095D01*
X247141142Y-94649095D02*
X247093523Y-94791952D01*
X247093523Y-94791952D02*
X246522095Y-95363380D01*
X246522095Y-95363380D02*
X247141142Y-95363380D01*
X247569714Y-94363380D02*
X247569714Y-95172904D01*
X247569714Y-95172904D02*
X247617333Y-95268142D01*
X247617333Y-95268142D02*
X247664952Y-95315761D01*
X247664952Y-95315761D02*
X247760190Y-95363380D01*
X247760190Y-95363380D02*
X247950666Y-95363380D01*
X247950666Y-95363380D02*
X248045904Y-95315761D01*
X248045904Y-95315761D02*
X248093523Y-95268142D01*
X248093523Y-95268142D02*
X248141142Y-95172904D01*
X248141142Y-95172904D02*
X248141142Y-94363380D01*
%TO.C,D1*%
X131341905Y-97395380D02*
X131341905Y-96395380D01*
X131341905Y-96395380D02*
X131580000Y-96395380D01*
X131580000Y-96395380D02*
X131722857Y-96443000D01*
X131722857Y-96443000D02*
X131818095Y-96538238D01*
X131818095Y-96538238D02*
X131865714Y-96633476D01*
X131865714Y-96633476D02*
X131913333Y-96823952D01*
X131913333Y-96823952D02*
X131913333Y-96966809D01*
X131913333Y-96966809D02*
X131865714Y-97157285D01*
X131865714Y-97157285D02*
X131818095Y-97252523D01*
X131818095Y-97252523D02*
X131722857Y-97347761D01*
X131722857Y-97347761D02*
X131580000Y-97395380D01*
X131580000Y-97395380D02*
X131341905Y-97395380D01*
X132865714Y-97395380D02*
X132294286Y-97395380D01*
X132580000Y-97395380D02*
X132580000Y-96395380D01*
X132580000Y-96395380D02*
X132484762Y-96538238D01*
X132484762Y-96538238D02*
X132389524Y-96633476D01*
X132389524Y-96633476D02*
X132294286Y-96681095D01*
X123389714Y-93509380D02*
X122818286Y-93509380D01*
X123104000Y-93509380D02*
X123104000Y-92509380D01*
X123104000Y-92509380D02*
X123008762Y-92652238D01*
X123008762Y-92652238D02*
X122913524Y-92747476D01*
X122913524Y-92747476D02*
X122818286Y-92795095D01*
%TO.C,C5*%
X256119333Y-93998142D02*
X256071714Y-94045761D01*
X256071714Y-94045761D02*
X255928857Y-94093380D01*
X255928857Y-94093380D02*
X255833619Y-94093380D01*
X255833619Y-94093380D02*
X255690762Y-94045761D01*
X255690762Y-94045761D02*
X255595524Y-93950523D01*
X255595524Y-93950523D02*
X255547905Y-93855285D01*
X255547905Y-93855285D02*
X255500286Y-93664809D01*
X255500286Y-93664809D02*
X255500286Y-93521952D01*
X255500286Y-93521952D02*
X255547905Y-93331476D01*
X255547905Y-93331476D02*
X255595524Y-93236238D01*
X255595524Y-93236238D02*
X255690762Y-93141000D01*
X255690762Y-93141000D02*
X255833619Y-93093380D01*
X255833619Y-93093380D02*
X255928857Y-93093380D01*
X255928857Y-93093380D02*
X256071714Y-93141000D01*
X256071714Y-93141000D02*
X256119333Y-93188619D01*
X257024095Y-93093380D02*
X256547905Y-93093380D01*
X256547905Y-93093380D02*
X256500286Y-93569571D01*
X256500286Y-93569571D02*
X256547905Y-93521952D01*
X256547905Y-93521952D02*
X256643143Y-93474333D01*
X256643143Y-93474333D02*
X256881238Y-93474333D01*
X256881238Y-93474333D02*
X256976476Y-93521952D01*
X256976476Y-93521952D02*
X257024095Y-93569571D01*
X257024095Y-93569571D02*
X257071714Y-93664809D01*
X257071714Y-93664809D02*
X257071714Y-93902904D01*
X257071714Y-93902904D02*
X257024095Y-93998142D01*
X257024095Y-93998142D02*
X256976476Y-94045761D01*
X256976476Y-94045761D02*
X256881238Y-94093380D01*
X256881238Y-94093380D02*
X256643143Y-94093380D01*
X256643143Y-94093380D02*
X256547905Y-94045761D01*
X256547905Y-94045761D02*
X256500286Y-93998142D01*
%TO.C,R14*%
X259707142Y-104839380D02*
X259373809Y-104363190D01*
X259135714Y-104839380D02*
X259135714Y-103839380D01*
X259135714Y-103839380D02*
X259516666Y-103839380D01*
X259516666Y-103839380D02*
X259611904Y-103887000D01*
X259611904Y-103887000D02*
X259659523Y-103934619D01*
X259659523Y-103934619D02*
X259707142Y-104029857D01*
X259707142Y-104029857D02*
X259707142Y-104172714D01*
X259707142Y-104172714D02*
X259659523Y-104267952D01*
X259659523Y-104267952D02*
X259611904Y-104315571D01*
X259611904Y-104315571D02*
X259516666Y-104363190D01*
X259516666Y-104363190D02*
X259135714Y-104363190D01*
X260659523Y-104839380D02*
X260088095Y-104839380D01*
X260373809Y-104839380D02*
X260373809Y-103839380D01*
X260373809Y-103839380D02*
X260278571Y-103982238D01*
X260278571Y-103982238D02*
X260183333Y-104077476D01*
X260183333Y-104077476D02*
X260088095Y-104125095D01*
X261516666Y-104172714D02*
X261516666Y-104839380D01*
X261278571Y-103791761D02*
X261040476Y-104506047D01*
X261040476Y-104506047D02*
X261659523Y-104506047D01*
%TO.C,SW1*%
X259016667Y-95637761D02*
X259159524Y-95685380D01*
X259159524Y-95685380D02*
X259397619Y-95685380D01*
X259397619Y-95685380D02*
X259492857Y-95637761D01*
X259492857Y-95637761D02*
X259540476Y-95590142D01*
X259540476Y-95590142D02*
X259588095Y-95494904D01*
X259588095Y-95494904D02*
X259588095Y-95399666D01*
X259588095Y-95399666D02*
X259540476Y-95304428D01*
X259540476Y-95304428D02*
X259492857Y-95256809D01*
X259492857Y-95256809D02*
X259397619Y-95209190D01*
X259397619Y-95209190D02*
X259207143Y-95161571D01*
X259207143Y-95161571D02*
X259111905Y-95113952D01*
X259111905Y-95113952D02*
X259064286Y-95066333D01*
X259064286Y-95066333D02*
X259016667Y-94971095D01*
X259016667Y-94971095D02*
X259016667Y-94875857D01*
X259016667Y-94875857D02*
X259064286Y-94780619D01*
X259064286Y-94780619D02*
X259111905Y-94733000D01*
X259111905Y-94733000D02*
X259207143Y-94685380D01*
X259207143Y-94685380D02*
X259445238Y-94685380D01*
X259445238Y-94685380D02*
X259588095Y-94733000D01*
X259921429Y-94685380D02*
X260159524Y-95685380D01*
X260159524Y-95685380D02*
X260350000Y-94971095D01*
X260350000Y-94971095D02*
X260540476Y-95685380D01*
X260540476Y-95685380D02*
X260778572Y-94685380D01*
X261683333Y-95685380D02*
X261111905Y-95685380D01*
X261397619Y-95685380D02*
X261397619Y-94685380D01*
X261397619Y-94685380D02*
X261302381Y-94828238D01*
X261302381Y-94828238D02*
X261207143Y-94923476D01*
X261207143Y-94923476D02*
X261111905Y-94971095D01*
%TO.C,C4*%
X198900142Y-93130666D02*
X198947761Y-93178285D01*
X198947761Y-93178285D02*
X198995380Y-93321142D01*
X198995380Y-93321142D02*
X198995380Y-93416380D01*
X198995380Y-93416380D02*
X198947761Y-93559237D01*
X198947761Y-93559237D02*
X198852523Y-93654475D01*
X198852523Y-93654475D02*
X198757285Y-93702094D01*
X198757285Y-93702094D02*
X198566809Y-93749713D01*
X198566809Y-93749713D02*
X198423952Y-93749713D01*
X198423952Y-93749713D02*
X198233476Y-93702094D01*
X198233476Y-93702094D02*
X198138238Y-93654475D01*
X198138238Y-93654475D02*
X198043000Y-93559237D01*
X198043000Y-93559237D02*
X197995380Y-93416380D01*
X197995380Y-93416380D02*
X197995380Y-93321142D01*
X197995380Y-93321142D02*
X198043000Y-93178285D01*
X198043000Y-93178285D02*
X198090619Y-93130666D01*
X198328714Y-92273523D02*
X198995380Y-92273523D01*
X197947761Y-92511618D02*
X198662047Y-92749713D01*
X198662047Y-92749713D02*
X198662047Y-92130666D01*
%TO.C,C3*%
X158768142Y-93130666D02*
X158815761Y-93178285D01*
X158815761Y-93178285D02*
X158863380Y-93321142D01*
X158863380Y-93321142D02*
X158863380Y-93416380D01*
X158863380Y-93416380D02*
X158815761Y-93559237D01*
X158815761Y-93559237D02*
X158720523Y-93654475D01*
X158720523Y-93654475D02*
X158625285Y-93702094D01*
X158625285Y-93702094D02*
X158434809Y-93749713D01*
X158434809Y-93749713D02*
X158291952Y-93749713D01*
X158291952Y-93749713D02*
X158101476Y-93702094D01*
X158101476Y-93702094D02*
X158006238Y-93654475D01*
X158006238Y-93654475D02*
X157911000Y-93559237D01*
X157911000Y-93559237D02*
X157863380Y-93416380D01*
X157863380Y-93416380D02*
X157863380Y-93321142D01*
X157863380Y-93321142D02*
X157911000Y-93178285D01*
X157911000Y-93178285D02*
X157958619Y-93130666D01*
X157863380Y-92797332D02*
X157863380Y-92178285D01*
X157863380Y-92178285D02*
X158244333Y-92511618D01*
X158244333Y-92511618D02*
X158244333Y-92368761D01*
X158244333Y-92368761D02*
X158291952Y-92273523D01*
X158291952Y-92273523D02*
X158339571Y-92225904D01*
X158339571Y-92225904D02*
X158434809Y-92178285D01*
X158434809Y-92178285D02*
X158672904Y-92178285D01*
X158672904Y-92178285D02*
X158768142Y-92225904D01*
X158768142Y-92225904D02*
X158815761Y-92273523D01*
X158815761Y-92273523D02*
X158863380Y-92368761D01*
X158863380Y-92368761D02*
X158863380Y-92654475D01*
X158863380Y-92654475D02*
X158815761Y-92749713D01*
X158815761Y-92749713D02*
X158768142Y-92797332D01*
%TO.C,D2*%
X171351905Y-97141380D02*
X171351905Y-96141380D01*
X171351905Y-96141380D02*
X171590000Y-96141380D01*
X171590000Y-96141380D02*
X171732857Y-96189000D01*
X171732857Y-96189000D02*
X171828095Y-96284238D01*
X171828095Y-96284238D02*
X171875714Y-96379476D01*
X171875714Y-96379476D02*
X171923333Y-96569952D01*
X171923333Y-96569952D02*
X171923333Y-96712809D01*
X171923333Y-96712809D02*
X171875714Y-96903285D01*
X171875714Y-96903285D02*
X171828095Y-96998523D01*
X171828095Y-96998523D02*
X171732857Y-97093761D01*
X171732857Y-97093761D02*
X171590000Y-97141380D01*
X171590000Y-97141380D02*
X171351905Y-97141380D01*
X172304286Y-96236619D02*
X172351905Y-96189000D01*
X172351905Y-96189000D02*
X172447143Y-96141380D01*
X172447143Y-96141380D02*
X172685238Y-96141380D01*
X172685238Y-96141380D02*
X172780476Y-96189000D01*
X172780476Y-96189000D02*
X172828095Y-96236619D01*
X172828095Y-96236619D02*
X172875714Y-96331857D01*
X172875714Y-96331857D02*
X172875714Y-96427095D01*
X172875714Y-96427095D02*
X172828095Y-96569952D01*
X172828095Y-96569952D02*
X172256667Y-97141380D01*
X172256667Y-97141380D02*
X172875714Y-97141380D01*
%TO.C,D4*%
X91463905Y-97141380D02*
X91463905Y-96141380D01*
X91463905Y-96141380D02*
X91702000Y-96141380D01*
X91702000Y-96141380D02*
X91844857Y-96189000D01*
X91844857Y-96189000D02*
X91940095Y-96284238D01*
X91940095Y-96284238D02*
X91987714Y-96379476D01*
X91987714Y-96379476D02*
X92035333Y-96569952D01*
X92035333Y-96569952D02*
X92035333Y-96712809D01*
X92035333Y-96712809D02*
X91987714Y-96903285D01*
X91987714Y-96903285D02*
X91940095Y-96998523D01*
X91940095Y-96998523D02*
X91844857Y-97093761D01*
X91844857Y-97093761D02*
X91702000Y-97141380D01*
X91702000Y-97141380D02*
X91463905Y-97141380D01*
X92892476Y-96474714D02*
X92892476Y-97141380D01*
X92654381Y-96093761D02*
X92416286Y-96808047D01*
X92416286Y-96808047D02*
X93035333Y-96808047D01*
%TO.C,C2*%
X118911642Y-93384666D02*
X118959261Y-93432285D01*
X118959261Y-93432285D02*
X119006880Y-93575142D01*
X119006880Y-93575142D02*
X119006880Y-93670380D01*
X119006880Y-93670380D02*
X118959261Y-93813237D01*
X118959261Y-93813237D02*
X118864023Y-93908475D01*
X118864023Y-93908475D02*
X118768785Y-93956094D01*
X118768785Y-93956094D02*
X118578309Y-94003713D01*
X118578309Y-94003713D02*
X118435452Y-94003713D01*
X118435452Y-94003713D02*
X118244976Y-93956094D01*
X118244976Y-93956094D02*
X118149738Y-93908475D01*
X118149738Y-93908475D02*
X118054500Y-93813237D01*
X118054500Y-93813237D02*
X118006880Y-93670380D01*
X118006880Y-93670380D02*
X118006880Y-93575142D01*
X118006880Y-93575142D02*
X118054500Y-93432285D01*
X118054500Y-93432285D02*
X118102119Y-93384666D01*
X118102119Y-93003713D02*
X118054500Y-92956094D01*
X118054500Y-92956094D02*
X118006880Y-92860856D01*
X118006880Y-92860856D02*
X118006880Y-92622761D01*
X118006880Y-92622761D02*
X118054500Y-92527523D01*
X118054500Y-92527523D02*
X118102119Y-92479904D01*
X118102119Y-92479904D02*
X118197357Y-92432285D01*
X118197357Y-92432285D02*
X118292595Y-92432285D01*
X118292595Y-92432285D02*
X118435452Y-92479904D01*
X118435452Y-92479904D02*
X119006880Y-93051332D01*
X119006880Y-93051332D02*
X119006880Y-92432285D01*
%TO.C,C1*%
X81875333Y-97300142D02*
X81827714Y-97347761D01*
X81827714Y-97347761D02*
X81684857Y-97395380D01*
X81684857Y-97395380D02*
X81589619Y-97395380D01*
X81589619Y-97395380D02*
X81446762Y-97347761D01*
X81446762Y-97347761D02*
X81351524Y-97252523D01*
X81351524Y-97252523D02*
X81303905Y-97157285D01*
X81303905Y-97157285D02*
X81256286Y-96966809D01*
X81256286Y-96966809D02*
X81256286Y-96823952D01*
X81256286Y-96823952D02*
X81303905Y-96633476D01*
X81303905Y-96633476D02*
X81351524Y-96538238D01*
X81351524Y-96538238D02*
X81446762Y-96443000D01*
X81446762Y-96443000D02*
X81589619Y-96395380D01*
X81589619Y-96395380D02*
X81684857Y-96395380D01*
X81684857Y-96395380D02*
X81827714Y-96443000D01*
X81827714Y-96443000D02*
X81875333Y-96490619D01*
X82827714Y-97395380D02*
X82256286Y-97395380D01*
X82542000Y-97395380D02*
X82542000Y-96395380D01*
X82542000Y-96395380D02*
X82446762Y-96538238D01*
X82446762Y-96538238D02*
X82351524Y-96633476D01*
X82351524Y-96633476D02*
X82256286Y-96681095D01*
%TO.C,D5*%
X265453905Y-94093380D02*
X265453905Y-93093380D01*
X265453905Y-93093380D02*
X265692000Y-93093380D01*
X265692000Y-93093380D02*
X265834857Y-93141000D01*
X265834857Y-93141000D02*
X265930095Y-93236238D01*
X265930095Y-93236238D02*
X265977714Y-93331476D01*
X265977714Y-93331476D02*
X266025333Y-93521952D01*
X266025333Y-93521952D02*
X266025333Y-93664809D01*
X266025333Y-93664809D02*
X265977714Y-93855285D01*
X265977714Y-93855285D02*
X265930095Y-93950523D01*
X265930095Y-93950523D02*
X265834857Y-94045761D01*
X265834857Y-94045761D02*
X265692000Y-94093380D01*
X265692000Y-94093380D02*
X265453905Y-94093380D01*
X266930095Y-93093380D02*
X266453905Y-93093380D01*
X266453905Y-93093380D02*
X266406286Y-93569571D01*
X266406286Y-93569571D02*
X266453905Y-93521952D01*
X266453905Y-93521952D02*
X266549143Y-93474333D01*
X266549143Y-93474333D02*
X266787238Y-93474333D01*
X266787238Y-93474333D02*
X266882476Y-93521952D01*
X266882476Y-93521952D02*
X266930095Y-93569571D01*
X266930095Y-93569571D02*
X266977714Y-93664809D01*
X266977714Y-93664809D02*
X266977714Y-93902904D01*
X266977714Y-93902904D02*
X266930095Y-93998142D01*
X266930095Y-93998142D02*
X266882476Y-94045761D01*
X266882476Y-94045761D02*
X266787238Y-94093380D01*
X266787238Y-94093380D02*
X266549143Y-94093380D01*
X266549143Y-94093380D02*
X266453905Y-94045761D01*
X266453905Y-94045761D02*
X266406286Y-93998142D01*
D12*
%TO.C,R10*%
X262153500Y-84312000D02*
X262153500Y-82312000D01*
X262153500Y-82312000D02*
X258753500Y-82312000D01*
X258753500Y-84312000D02*
X262153500Y-84312000D01*
X258753500Y-82312000D02*
X258753500Y-84312000D01*
%TO.C,D3*%
X203614000Y-91992000D02*
X210914000Y-91992000D01*
X203614000Y-97492000D02*
X210914000Y-97492000D01*
X210914000Y-97492000D02*
X210914000Y-96342000D01*
D13*
%TO.C,U1*%
X226334000Y-70896000D02*
X226334000Y-119096000D01*
X226334000Y-119096000D02*
X236214000Y-119096000D01*
X236214000Y-119096000D02*
X236214000Y-119996000D01*
X236214000Y-119996000D02*
X244344000Y-119996000D01*
X244344000Y-119096000D02*
X254234000Y-119096000D01*
X244344000Y-119996000D02*
X244344000Y-119096000D01*
X249284000Y-70896000D02*
X226334000Y-70896000D01*
X254234000Y-70896000D02*
X249284000Y-70896000D01*
X254234000Y-119096000D02*
X254234000Y-70896000D01*
D14*
X225814000Y-72026000D02*
G75*
G03*
X225814000Y-72026000I-100000J0D01*
G01*
D12*
%TO.C,D1*%
X123604000Y-91992000D02*
X130904000Y-91992000D01*
X123604000Y-97492000D02*
X130904000Y-97492000D01*
X130904000Y-97492000D02*
X130904000Y-96342000D01*
%TO.C,C5*%
X257021000Y-90670748D02*
X257021000Y-91193252D01*
X255551000Y-90670748D02*
X255551000Y-91193252D01*
%TO.C,J3*%
X242244000Y-119480000D02*
X242244000Y-118480000D01*
X233494000Y-118980000D02*
X232494000Y-118980000D01*
X242744000Y-118980000D02*
X241744000Y-118980000D01*
X231927400Y-118069200D02*
X243103400Y-118069200D01*
X231927400Y-118069200D02*
X231927400Y-100797200D01*
X243103400Y-118069200D02*
X243103400Y-100797200D01*
X237744000Y-113421000D02*
X237744000Y-105039000D01*
X237744000Y-105039000D02*
X237261400Y-105648600D01*
X237744000Y-105039000D02*
X238277400Y-105648600D01*
X231927400Y-100797200D02*
X243103400Y-100797200D01*
X242244000Y-100480000D02*
X242244000Y-99480000D01*
X233494000Y-100230000D02*
X232494000Y-100230000D01*
X242744000Y-99980000D02*
X241744000Y-99980000D01*
%TO.C,R14*%
X258650000Y-105172000D02*
X258650000Y-107172000D01*
X258650000Y-107172000D02*
X262050000Y-107172000D01*
X262050000Y-105172000D02*
X258650000Y-105172000D01*
X262050000Y-107172000D02*
X262050000Y-105172000D01*
%TO.C,SW1*%
X256850000Y-98818000D02*
X256850000Y-100318000D01*
X258100000Y-102818000D02*
X262600000Y-102818000D01*
X262600000Y-96318000D02*
X258100000Y-96318000D01*
X263850000Y-100318000D02*
X263850000Y-98818000D01*
%TO.C,C4*%
X201683252Y-93699000D02*
X201160748Y-93699000D01*
X201683252Y-92229000D02*
X201160748Y-92229000D01*
%TO.C,C3*%
X161551252Y-93699000D02*
X161028748Y-93699000D01*
X161551252Y-92229000D02*
X161028748Y-92229000D01*
%TO.C,D2*%
X163614000Y-91992000D02*
X170914000Y-91992000D01*
X163614000Y-97492000D02*
X170914000Y-97492000D01*
X170914000Y-97492000D02*
X170914000Y-96342000D01*
%TO.C,D4*%
X83604000Y-91992000D02*
X90904000Y-91992000D01*
X83604000Y-97492000D02*
X90904000Y-97492000D01*
X90904000Y-97492000D02*
X90904000Y-96342000D01*
D13*
%TO.C,J1*%
X257029000Y-72134000D02*
X264179000Y-72134000D01*
X264179000Y-80904000D02*
X257029000Y-80904000D01*
X264604000Y-77734000D02*
X265604000Y-77234000D01*
X265604000Y-77234000D02*
X265604000Y-78234000D01*
X265604000Y-78234000D02*
X264604000Y-77734000D01*
D12*
%TO.C,C2*%
X121673252Y-93953000D02*
X121150748Y-93953000D01*
X121673252Y-92483000D02*
X121150748Y-92483000D01*
%TO.C,C1*%
X82777000Y-93972748D02*
X82777000Y-94495252D01*
X81307000Y-93972748D02*
X81307000Y-94495252D01*
D13*
%TO.C,J2*%
X256267000Y-109208000D02*
X263417000Y-109208000D01*
X263417000Y-117978000D02*
X256267000Y-117978000D01*
X263842000Y-114808000D02*
X264842000Y-114308000D01*
X264842000Y-114308000D02*
X264842000Y-115308000D01*
X264842000Y-115308000D02*
X263842000Y-114808000D01*
D12*
%TO.C,D5*%
X257716000Y-88690000D02*
X265016000Y-88690000D01*
X257716000Y-94190000D02*
X265016000Y-94190000D01*
X265016000Y-94190000D02*
X265016000Y-93040000D01*
%TD*%
M02*
