%TF.GenerationSoftware,KiCad,Pcbnew,(7.0.0)*%
%TF.CreationDate,2023-08-23T12:35:54+05:30*%
%TF.ProjectId,X1A51B8-v1,58314135-3142-4382-9d76-312e6b696361,rev?*%
%TF.SameCoordinates,Original*%
%TF.FileFunction,Copper,L2,Bot*%
%TF.FilePolarity,Positive*%
%FSLAX46Y46*%
G04 Gerber Fmt 4.6, Leading zero omitted, Abs format (unit mm)*
G04 Created by KiCad (PCBNEW (7.0.0)) date 2023-08-23 12:35:54*
%MOMM*%
%LPD*%
G01*
G04 APERTURE LIST*
%TA.AperFunction,ComponentPad*%
%ADD10C,5.600000*%
%TD*%
%TA.AperFunction,ComponentPad*%
%ADD11R,1.530000X1.530000*%
%TD*%
%TA.AperFunction,ComponentPad*%
%ADD12C,1.530000*%
%TD*%
%TA.AperFunction,ComponentPad*%
%ADD13C,2.000000*%
%TD*%
%TA.AperFunction,ComponentPad*%
%ADD14R,1.800000X1.800000*%
%TD*%
%TA.AperFunction,ComponentPad*%
%ADD15C,1.800000*%
%TD*%
%TA.AperFunction,ViaPad*%
%ADD16C,0.800000*%
%TD*%
%TA.AperFunction,Conductor*%
%ADD17C,0.500000*%
%TD*%
%TA.AperFunction,Conductor*%
%ADD18C,0.250000*%
%TD*%
G04 APERTURE END LIST*
D10*
%TO.P,REF\u002A\u002A,1*%
%TO.N,N/C*%
X83750000Y-113030000D03*
%TD*%
%TO.P,REF\u002A\u002A,1*%
%TO.N,N/C*%
X219964000Y-77978000D03*
%TD*%
D11*
%TO.P,U1,1,3V3*%
%TO.N,+3V3*%
X227583999Y-72145999D03*
D12*
%TO.P,U1,2,EN*%
%TO.N,unconnected-(U1-EN-Pad2)*%
X227584000Y-74686000D03*
%TO.P,U1,3,SENSOR_VP*%
%TO.N,unconnected-(U1-SENSOR_VP-Pad3)*%
X227584000Y-77226000D03*
%TO.P,U1,4,SENSOR_VN*%
%TO.N,unconnected-(U1-SENSOR_VN-Pad4)*%
X227584000Y-79766000D03*
%TO.P,U1,5,IO34*%
%TO.N,Net-(U1-IO34)*%
X227584000Y-82306000D03*
%TO.P,U1,6,IO35*%
%TO.N,unconnected-(U1-IO35-Pad6)*%
X227584000Y-84846000D03*
%TO.P,U1,7,IO32*%
%TO.N,unconnected-(U1-IO32-Pad7)*%
X227584000Y-87386000D03*
%TO.P,U1,8,IO33*%
%TO.N,unconnected-(U1-IO33-Pad8)*%
X227584000Y-89926000D03*
%TO.P,U1,9,IO25*%
%TO.N,unconnected-(U1-IO25-Pad9)*%
X227584000Y-92466000D03*
%TO.P,U1,10,IO26*%
%TO.N,unconnected-(U1-IO26-Pad10)*%
X227584000Y-95006000D03*
%TO.P,U1,11,IO27*%
%TO.N,unconnected-(U1-IO27-Pad11)*%
X227584000Y-97546000D03*
%TO.P,U1,12,IO14*%
%TO.N,unconnected-(U1-IO14-Pad12)*%
X227584000Y-100086000D03*
%TO.P,U1,13,IO12*%
%TO.N,unconnected-(U1-IO12-Pad13)*%
X227584000Y-102626000D03*
%TO.P,U1,14,GND1*%
%TO.N,GND*%
X227584000Y-105166000D03*
%TO.P,U1,15,IO13*%
%TO.N,unconnected-(U1-IO13-Pad15)*%
X227584000Y-107706000D03*
%TO.P,U1,16,SD2*%
%TO.N,unconnected-(U1-SD2-Pad16)*%
X227584000Y-110246000D03*
%TO.P,U1,17,SD3*%
%TO.N,unconnected-(U1-SD3-Pad17)*%
X227584000Y-112786000D03*
%TO.P,U1,18,CMD*%
%TO.N,unconnected-(U1-CMD-Pad18)*%
X227584000Y-115326000D03*
%TO.P,U1,19,EXT_5V*%
%TO.N,VCC*%
X227584000Y-117866000D03*
%TO.P,U1,20,CLK*%
%TO.N,unconnected-(U1-CLK-Pad20)*%
X252984000Y-117866000D03*
%TO.P,U1,21,SD0*%
%TO.N,unconnected-(U1-SD0-Pad21)*%
X252984000Y-115326000D03*
%TO.P,U1,22,SD1*%
%TO.N,unconnected-(U1-SD1-Pad22)*%
X252984000Y-112786000D03*
%TO.P,U1,23,IO15*%
%TO.N,unconnected-(U1-IO15-Pad23)*%
X252984000Y-110246000D03*
%TO.P,U1,24,IO2*%
%TO.N,unconnected-(U1-IO2-Pad24)*%
X252984000Y-107706000D03*
%TO.P,U1,25,IO0*%
%TO.N,unconnected-(U1-IO0-Pad25)*%
X252984000Y-105166000D03*
%TO.P,U1,26,IO4*%
%TO.N,unconnected-(U1-IO4-Pad26)*%
X252984000Y-102626000D03*
%TO.P,U1,27,IO16*%
%TO.N,DIN*%
X252984000Y-100086000D03*
%TO.P,U1,28,IO17*%
%TO.N,LED4_IN*%
X252984000Y-97546000D03*
%TO.P,U1,29,IO5*%
%TO.N,LED3_IN*%
X252984000Y-95006000D03*
%TO.P,U1,30,IO18*%
%TO.N,LED2_IN*%
X252984000Y-92466000D03*
%TO.P,U1,31,IO19*%
%TO.N,LED1_IN*%
X252984000Y-89926000D03*
%TO.P,U1,32,GND2*%
%TO.N,GND*%
X252984000Y-87386000D03*
%TO.P,U1,33,IO21*%
%TO.N,unconnected-(U1-IO21-Pad33)*%
X252984000Y-84846000D03*
%TO.P,U1,34,RXD0*%
%TO.N,unconnected-(U1-RXD0-Pad34)*%
X252984000Y-82306000D03*
%TO.P,U1,35,TXD0*%
%TO.N,unconnected-(U1-TXD0-Pad35)*%
X252984000Y-79766000D03*
%TO.P,U1,36,IO22*%
%TO.N,unconnected-(U1-IO22-Pad36)*%
X252984000Y-77226000D03*
%TO.P,U1,37,IO23*%
%TO.N,unconnected-(U1-IO23-Pad37)*%
X252984000Y-74686000D03*
%TO.P,U1,38,GND3*%
%TO.N,GND*%
X252984000Y-72146000D03*
%TD*%
D10*
%TO.P,REF\u002A\u002A,1*%
%TO.N,N/C*%
X219964000Y-113030000D03*
%TD*%
D13*
%TO.P,J3,1,Pin_1*%
%TO.N,GND*%
X232943400Y-117053200D03*
%TO.P,J3,2,Pin_2*%
%TO.N,V_BAT*%
X242087400Y-117053200D03*
%TO.P,J3,3,Pin_3*%
%TO.N,GND*%
X232943400Y-101813200D03*
%TO.P,J3,4,Pin_4*%
%TO.N,VCC*%
X242087400Y-101813200D03*
%TD*%
%TO.P,SW1,1,1*%
%TO.N,GND*%
X257100000Y-97318000D03*
X263600000Y-97318000D03*
%TO.P,SW1,2,2*%
%TO.N,Net-(U1-IO34)*%
X257100000Y-101818000D03*
X263600000Y-101818000D03*
%TD*%
D14*
%TO.P,J1,1,1*%
%TO.N,Net-(J1-Pad1)*%
X260603999Y-77733999D03*
D15*
%TO.P,J1,2,2*%
%TO.N,GND*%
X260604000Y-74734000D03*
%TD*%
D14*
%TO.P,J2,1,1*%
%TO.N,V_BAT*%
X259841999Y-114807999D03*
D15*
%TO.P,J2,2,2*%
%TO.N,GND*%
X259842000Y-111808000D03*
%TD*%
D10*
%TO.P,REF\u002A\u002A,1*%
%TO.N,N/C*%
X83750000Y-77978000D03*
%TD*%
D16*
%TO.N,VCC*%
X242824000Y-92456000D03*
%TO.N,GND*%
X76962000Y-97282000D03*
X183642000Y-93218000D03*
X137414000Y-93218000D03*
X131826000Y-93218000D03*
X197358000Y-97536000D03*
X194564000Y-97536000D03*
X134112000Y-97790000D03*
X99568000Y-93472000D03*
X113538000Y-93472000D03*
X172466000Y-93218000D03*
X116332000Y-93472000D03*
X192278000Y-93218000D03*
X143002000Y-93218000D03*
X139700000Y-97790000D03*
X145796000Y-93218000D03*
X76962000Y-94488000D03*
X259334000Y-91440000D03*
X151384000Y-93218000D03*
X110744000Y-93472000D03*
X189484000Y-93218000D03*
X178054000Y-93218000D03*
X195072000Y-93218000D03*
X180848000Y-93218000D03*
X186436000Y-93218000D03*
X136906000Y-97790000D03*
X154178000Y-93218000D03*
X200152000Y-97536000D03*
X107950000Y-93472000D03*
X102362000Y-93472000D03*
X76962000Y-91694000D03*
X260350000Y-91440000D03*
X134620000Y-93218000D03*
X258318000Y-91440000D03*
X175260000Y-93218000D03*
X105156000Y-93472000D03*
X148590000Y-93218000D03*
X140208000Y-93218000D03*
%TO.N,DIN*%
X94996000Y-93472000D03*
%TD*%
D17*
%TO.N,VCC*%
X242824000Y-92456000D02*
X242087400Y-93192600D01*
X242087400Y-93192600D02*
X242087400Y-101813200D01*
%TO.N,DIN*%
X97790000Y-96266000D02*
X94996000Y-93472000D01*
D18*
X252984000Y-100086000D02*
X249164000Y-100086000D01*
X244856000Y-104394000D02*
X231648000Y-104394000D01*
X230124000Y-97536000D02*
X228854000Y-96266000D01*
X230124000Y-102870000D02*
X230124000Y-97536000D01*
D17*
X226314000Y-96266000D02*
X97790000Y-96266000D01*
D18*
X228854000Y-96266000D02*
X226314000Y-96266000D01*
X231648000Y-104394000D02*
X230124000Y-102870000D01*
X249164000Y-100086000D02*
X244856000Y-104394000D01*
D17*
%TO.N,V_BAT*%
X242087400Y-117053200D02*
X244922200Y-119888000D01*
X257302000Y-119888000D02*
X259842000Y-117348000D01*
X259842000Y-117348000D02*
X259842000Y-114808000D01*
X244922200Y-119888000D02*
X257302000Y-119888000D01*
%TO.N,Net-(U1-IO34)*%
X257100000Y-101818000D02*
X254088000Y-98806000D01*
X251460000Y-98806000D02*
X246634000Y-93980000D01*
X241056000Y-82306000D02*
X227584000Y-82306000D01*
X246634000Y-87884000D02*
X241056000Y-82306000D01*
X246634000Y-93980000D02*
X246634000Y-87884000D01*
X254088000Y-98806000D02*
X251460000Y-98806000D01*
%TD*%
%TA.AperFunction,Conductor*%
%TO.N,GND*%
G36*
X266704418Y-69596816D02*
G01*
X266769218Y-69601450D01*
X266769981Y-69601507D01*
X266916038Y-69613002D01*
X266932662Y-69615454D01*
X266955098Y-69620334D01*
X267023207Y-69635150D01*
X267025671Y-69635713D01*
X267139661Y-69663080D01*
X267154046Y-69667472D01*
X267191978Y-69681619D01*
X267246108Y-69701809D01*
X267250192Y-69703416D01*
X267298120Y-69723268D01*
X267353239Y-69746100D01*
X267365211Y-69751828D01*
X267408160Y-69775279D01*
X267453364Y-69799962D01*
X267458681Y-69803040D01*
X267552006Y-69860230D01*
X267561492Y-69866666D01*
X267642673Y-69927438D01*
X267648850Y-69932380D01*
X267731454Y-70002930D01*
X267738603Y-70009539D01*
X267810459Y-70081395D01*
X267817068Y-70088544D01*
X267887607Y-70171134D01*
X267892567Y-70177334D01*
X267953326Y-70258498D01*
X267959776Y-70268004D01*
X268016943Y-70361292D01*
X268020049Y-70366657D01*
X268068170Y-70454787D01*
X268073898Y-70466759D01*
X268116575Y-70569789D01*
X268118196Y-70573909D01*
X268152526Y-70665952D01*
X268156918Y-70680337D01*
X268184266Y-70794246D01*
X268184858Y-70796837D01*
X268204544Y-70887336D01*
X268206996Y-70903964D01*
X268218486Y-71049953D01*
X268218552Y-71050834D01*
X268223184Y-71115583D01*
X268223500Y-71124431D01*
X268223500Y-119121569D01*
X268223184Y-119130417D01*
X268218552Y-119195164D01*
X268218486Y-119196045D01*
X268206996Y-119342034D01*
X268204544Y-119358662D01*
X268184858Y-119449161D01*
X268184266Y-119451752D01*
X268156918Y-119565661D01*
X268152526Y-119580046D01*
X268118196Y-119672089D01*
X268116575Y-119676209D01*
X268073898Y-119779239D01*
X268068170Y-119791211D01*
X268020049Y-119879341D01*
X268016943Y-119884706D01*
X267959776Y-119977994D01*
X267953316Y-119987515D01*
X267892584Y-120068643D01*
X267887607Y-120074864D01*
X267817068Y-120157454D01*
X267810459Y-120164603D01*
X267738603Y-120236459D01*
X267731454Y-120243068D01*
X267648864Y-120313607D01*
X267642643Y-120318584D01*
X267561515Y-120379316D01*
X267551994Y-120385776D01*
X267458706Y-120442943D01*
X267453341Y-120446049D01*
X267365211Y-120494170D01*
X267353239Y-120499898D01*
X267250209Y-120542575D01*
X267246089Y-120544196D01*
X267154046Y-120578526D01*
X267139661Y-120582918D01*
X267025752Y-120610266D01*
X267023161Y-120610858D01*
X266932662Y-120630544D01*
X266916034Y-120632996D01*
X266770045Y-120644486D01*
X266769164Y-120644552D01*
X266704417Y-120649184D01*
X266695569Y-120649500D01*
X257902819Y-120649500D01*
X257847168Y-120636311D01*
X257803356Y-120599548D01*
X257780703Y-120547034D01*
X257784028Y-120489938D01*
X257812623Y-120440408D01*
X257839186Y-120412252D01*
X257841631Y-120409735D01*
X260327638Y-117923727D01*
X260341262Y-117911953D01*
X260360530Y-117897610D01*
X260392372Y-117859661D01*
X260399686Y-117851681D01*
X260400267Y-117851099D01*
X260403590Y-117847777D01*
X260422832Y-117823438D01*
X260425054Y-117820711D01*
X260473302Y-117763214D01*
X260476544Y-117756755D01*
X260478437Y-117753878D01*
X260478643Y-117753592D01*
X260478832Y-117753254D01*
X260480623Y-117750350D01*
X260485110Y-117744677D01*
X260516832Y-117676647D01*
X260518335Y-117673543D01*
X260552040Y-117606433D01*
X260553706Y-117599398D01*
X260554881Y-117596172D01*
X260555020Y-117595836D01*
X260555118Y-117595491D01*
X260556200Y-117592224D01*
X260559256Y-117585673D01*
X260574434Y-117512157D01*
X260575186Y-117508768D01*
X260592500Y-117435721D01*
X260592500Y-117428490D01*
X260592902Y-117425051D01*
X260592956Y-117424714D01*
X260592972Y-117424360D01*
X260593271Y-117420933D01*
X260594733Y-117413856D01*
X260592552Y-117338889D01*
X260592500Y-117335283D01*
X260592500Y-116332499D01*
X260609113Y-116270499D01*
X260654500Y-116225112D01*
X260716500Y-116208499D01*
X260786561Y-116208499D01*
X260789872Y-116208499D01*
X260849483Y-116202091D01*
X260984331Y-116151796D01*
X261099546Y-116065546D01*
X261185796Y-115950331D01*
X261236091Y-115815483D01*
X261242500Y-115755873D01*
X261242499Y-113860128D01*
X261236091Y-113800517D01*
X261185796Y-113665669D01*
X261099546Y-113550454D01*
X260984331Y-113464204D01*
X260849483Y-113413909D01*
X260841770Y-113413079D01*
X260841767Y-113413079D01*
X260793180Y-113407855D01*
X260793169Y-113407854D01*
X260789873Y-113407500D01*
X260786551Y-113407500D01*
X260237586Y-113407500D01*
X260171490Y-113388416D01*
X260125739Y-113337037D01*
X260114416Y-113269180D01*
X260141005Y-113205730D01*
X260197323Y-113166219D01*
X260401453Y-113096141D01*
X260410805Y-113092039D01*
X260605845Y-112986488D01*
X260614397Y-112980901D01*
X260626888Y-112971179D01*
X260634992Y-112959992D01*
X260628331Y-112947884D01*
X259853542Y-112173095D01*
X259842000Y-112166431D01*
X259830457Y-112173095D01*
X259055666Y-112947885D01*
X259049006Y-112959991D01*
X259057113Y-112971181D01*
X259069602Y-112980901D01*
X259078151Y-112986487D01*
X259273194Y-113092039D01*
X259282550Y-113096142D01*
X259486677Y-113166219D01*
X259542996Y-113205730D01*
X259569585Y-113269180D01*
X259558262Y-113337037D01*
X259512511Y-113388416D01*
X259446415Y-113407500D01*
X258897439Y-113407500D01*
X258897420Y-113407500D01*
X258894128Y-113407501D01*
X258890850Y-113407853D01*
X258890838Y-113407854D01*
X258842231Y-113413079D01*
X258842225Y-113413080D01*
X258834517Y-113413909D01*
X258827252Y-113416618D01*
X258827246Y-113416620D01*
X258707980Y-113461104D01*
X258707978Y-113461104D01*
X258699669Y-113464204D01*
X258692572Y-113469516D01*
X258692568Y-113469519D01*
X258591550Y-113545141D01*
X258591546Y-113545144D01*
X258584454Y-113550454D01*
X258579144Y-113557546D01*
X258579141Y-113557550D01*
X258503519Y-113658568D01*
X258503516Y-113658572D01*
X258498204Y-113665669D01*
X258495104Y-113673978D01*
X258495104Y-113673980D01*
X258450620Y-113793247D01*
X258450619Y-113793250D01*
X258447909Y-113800517D01*
X258447079Y-113808227D01*
X258447079Y-113808232D01*
X258441855Y-113856819D01*
X258441854Y-113856831D01*
X258441500Y-113860127D01*
X258441500Y-113863448D01*
X258441500Y-113863449D01*
X258441500Y-115752560D01*
X258441500Y-115752578D01*
X258441501Y-115755872D01*
X258441853Y-115759150D01*
X258441854Y-115759161D01*
X258447079Y-115807768D01*
X258447080Y-115807773D01*
X258447909Y-115815483D01*
X258450619Y-115822749D01*
X258450620Y-115822753D01*
X258484217Y-115912831D01*
X258498204Y-115950331D01*
X258503518Y-115957430D01*
X258503519Y-115957431D01*
X258512358Y-115969239D01*
X258584454Y-116065546D01*
X258699669Y-116151796D01*
X258834517Y-116202091D01*
X258894127Y-116208500D01*
X258967500Y-116208500D01*
X259029500Y-116225113D01*
X259074887Y-116270500D01*
X259091500Y-116332500D01*
X259091500Y-116985771D01*
X259082061Y-117033224D01*
X259055181Y-117073452D01*
X257027451Y-119101181D01*
X256987223Y-119128061D01*
X256939770Y-119137500D01*
X253767720Y-119137500D01*
X253707604Y-119121953D01*
X253662562Y-119079210D01*
X253643890Y-119019990D01*
X253656270Y-118959142D01*
X253696596Y-118911925D01*
X253800555Y-118839132D01*
X253957132Y-118682555D01*
X254084142Y-118501167D01*
X254177723Y-118300480D01*
X254235035Y-118086591D01*
X254254334Y-117866000D01*
X254235035Y-117645409D01*
X254221659Y-117595491D01*
X254179122Y-117436741D01*
X254179121Y-117436740D01*
X254177723Y-117431520D01*
X254084142Y-117230833D01*
X253967843Y-117064742D01*
X253960237Y-117053879D01*
X253960235Y-117053877D01*
X253957132Y-117049445D01*
X253800555Y-116892868D01*
X253796124Y-116889765D01*
X253796120Y-116889762D01*
X253636205Y-116777788D01*
X253619167Y-116765858D01*
X253495907Y-116708381D01*
X253443732Y-116662625D01*
X253424312Y-116596000D01*
X253443732Y-116529375D01*
X253495908Y-116483618D01*
X253530722Y-116467384D01*
X253619167Y-116426142D01*
X253800555Y-116299132D01*
X253957132Y-116142555D01*
X254084142Y-115961167D01*
X254177723Y-115760480D01*
X254235035Y-115546591D01*
X254254334Y-115326000D01*
X254235035Y-115105409D01*
X254177723Y-114891520D01*
X254084142Y-114690833D01*
X253957132Y-114509445D01*
X253800555Y-114352868D01*
X253796124Y-114349765D01*
X253796120Y-114349762D01*
X253623604Y-114228965D01*
X253623605Y-114228965D01*
X253619167Y-114225858D01*
X253610470Y-114221802D01*
X253495907Y-114168381D01*
X253443731Y-114122624D01*
X253424312Y-114055998D01*
X253443732Y-113989373D01*
X253495905Y-113943619D01*
X253619167Y-113886142D01*
X253800555Y-113759132D01*
X253957132Y-113602555D01*
X254084142Y-113421167D01*
X254177723Y-113220480D01*
X254235035Y-113006591D01*
X254254334Y-112786000D01*
X254235035Y-112565409D01*
X254212391Y-112480903D01*
X254179122Y-112356741D01*
X254179121Y-112356740D01*
X254177723Y-112351520D01*
X254084142Y-112150833D01*
X253963016Y-111977848D01*
X253960237Y-111973879D01*
X253960235Y-111973877D01*
X253957132Y-111969445D01*
X253800804Y-111813117D01*
X258437626Y-111813117D01*
X258455937Y-112034102D01*
X258457621Y-112044196D01*
X258512059Y-112259166D01*
X258515378Y-112268833D01*
X258604456Y-112471913D01*
X258609322Y-112480903D01*
X258683245Y-112594051D01*
X258691212Y-112601776D01*
X258700592Y-112595853D01*
X259476904Y-111819542D01*
X259483568Y-111808000D01*
X260200431Y-111808000D01*
X260207095Y-111819542D01*
X260983405Y-112595852D01*
X260992786Y-112601776D01*
X261000754Y-112594051D01*
X261074675Y-112480906D01*
X261079543Y-112471911D01*
X261168621Y-112268833D01*
X261171940Y-112259166D01*
X261226378Y-112044196D01*
X261228062Y-112034102D01*
X261246374Y-111813117D01*
X261246374Y-111802883D01*
X261228062Y-111581897D01*
X261226378Y-111571803D01*
X261171940Y-111356833D01*
X261168621Y-111347166D01*
X261079543Y-111144086D01*
X261074678Y-111135096D01*
X261000753Y-111021947D01*
X260992786Y-111014222D01*
X260983405Y-111020146D01*
X260207095Y-111796457D01*
X260200431Y-111808000D01*
X259483568Y-111808000D01*
X259476904Y-111796457D01*
X258700592Y-111020145D01*
X258691212Y-111014222D01*
X258683245Y-111021946D01*
X258609322Y-111135096D01*
X258604456Y-111144086D01*
X258515378Y-111347166D01*
X258512059Y-111356833D01*
X258457621Y-111571803D01*
X258455937Y-111581897D01*
X258437626Y-111802883D01*
X258437626Y-111813117D01*
X253800804Y-111813117D01*
X253800555Y-111812868D01*
X253796124Y-111809765D01*
X253796120Y-111809762D01*
X253623604Y-111688965D01*
X253623605Y-111688965D01*
X253619167Y-111685858D01*
X253495907Y-111628381D01*
X253443732Y-111582625D01*
X253424312Y-111516000D01*
X253443732Y-111449375D01*
X253495908Y-111403618D01*
X253619167Y-111346142D01*
X253800555Y-111219132D01*
X253957132Y-111062555D01*
X254062188Y-110912520D01*
X256077618Y-110912520D01*
X256078871Y-110919631D01*
X256078872Y-110919632D01*
X256107234Y-111080486D01*
X256107235Y-111080492D01*
X256108489Y-111087599D01*
X256111346Y-111094224D01*
X256111348Y-111094228D01*
X256176042Y-111244204D01*
X256178904Y-111250838D01*
X256183217Y-111256631D01*
X256183218Y-111256633D01*
X256250618Y-111347166D01*
X256285067Y-111393439D01*
X256290598Y-111398080D01*
X256415720Y-111503071D01*
X256415723Y-111503073D01*
X256421254Y-111507714D01*
X256580123Y-111587501D01*
X256753110Y-111628500D01*
X256882694Y-111628500D01*
X256886292Y-111628500D01*
X257018577Y-111613038D01*
X257185635Y-111552234D01*
X257334168Y-111454543D01*
X257456167Y-111325231D01*
X257545057Y-111171269D01*
X257596045Y-111000958D01*
X257606382Y-110823480D01*
X257576852Y-110656006D01*
X259049007Y-110656006D01*
X259055667Y-110668114D01*
X259830457Y-111442904D01*
X259842000Y-111449568D01*
X259853542Y-111442904D01*
X260383925Y-110912520D01*
X262077618Y-110912520D01*
X262078871Y-110919631D01*
X262078872Y-110919632D01*
X262107234Y-111080486D01*
X262107235Y-111080492D01*
X262108489Y-111087599D01*
X262111346Y-111094224D01*
X262111348Y-111094228D01*
X262176042Y-111244204D01*
X262178904Y-111250838D01*
X262183217Y-111256631D01*
X262183218Y-111256633D01*
X262250618Y-111347166D01*
X262285067Y-111393439D01*
X262290598Y-111398080D01*
X262415720Y-111503071D01*
X262415723Y-111503073D01*
X262421254Y-111507714D01*
X262580123Y-111587501D01*
X262753110Y-111628500D01*
X262882694Y-111628500D01*
X262886292Y-111628500D01*
X263018577Y-111613038D01*
X263185635Y-111552234D01*
X263334168Y-111454543D01*
X263456167Y-111325231D01*
X263545057Y-111171269D01*
X263596045Y-111000958D01*
X263606382Y-110823480D01*
X263575511Y-110648401D01*
X263505096Y-110485162D01*
X263398933Y-110342561D01*
X263339235Y-110292468D01*
X263268279Y-110232928D01*
X263268274Y-110232925D01*
X263262746Y-110228286D01*
X263256294Y-110225045D01*
X263256290Y-110225043D01*
X263110330Y-110151740D01*
X263110331Y-110151740D01*
X263103877Y-110148499D01*
X263096857Y-110146835D01*
X263096854Y-110146834D01*
X262937915Y-110109165D01*
X262930890Y-110107500D01*
X262797708Y-110107500D01*
X262794143Y-110107916D01*
X262794137Y-110107917D01*
X262672593Y-110122123D01*
X262672585Y-110122124D01*
X262665423Y-110122962D01*
X262658645Y-110125428D01*
X262658636Y-110125431D01*
X262505147Y-110181297D01*
X262505142Y-110181299D01*
X262498365Y-110183766D01*
X262492341Y-110187727D01*
X262492335Y-110187731D01*
X262355862Y-110277490D01*
X262355856Y-110277494D01*
X262349832Y-110281457D01*
X262344882Y-110286703D01*
X262344878Y-110286707D01*
X262232785Y-110405519D01*
X262232780Y-110405524D01*
X262227833Y-110410769D01*
X262224224Y-110417018D01*
X262224223Y-110417021D01*
X262142554Y-110558475D01*
X262142551Y-110558481D01*
X262138943Y-110564731D01*
X262136872Y-110571646D01*
X262136872Y-110571648D01*
X262090026Y-110728121D01*
X262090024Y-110728129D01*
X262087955Y-110735042D01*
X262087535Y-110742248D01*
X262087534Y-110742256D01*
X262078037Y-110905310D01*
X262078037Y-110905318D01*
X262077618Y-110912520D01*
X260383925Y-110912520D01*
X260628332Y-110668113D01*
X260634992Y-110656007D01*
X260626886Y-110644818D01*
X260614394Y-110635096D01*
X260605847Y-110629512D01*
X260410805Y-110523960D01*
X260401452Y-110519858D01*
X260191709Y-110447853D01*
X260181800Y-110445344D01*
X259963070Y-110408844D01*
X259952873Y-110408000D01*
X259731127Y-110408000D01*
X259720929Y-110408844D01*
X259502199Y-110445344D01*
X259492290Y-110447853D01*
X259282547Y-110519858D01*
X259273194Y-110523960D01*
X259078156Y-110629510D01*
X259069600Y-110635100D01*
X259057112Y-110644818D01*
X259049007Y-110656006D01*
X257576852Y-110656006D01*
X257575511Y-110648401D01*
X257505096Y-110485162D01*
X257398933Y-110342561D01*
X257339235Y-110292468D01*
X257268279Y-110232928D01*
X257268274Y-110232925D01*
X257262746Y-110228286D01*
X257256294Y-110225045D01*
X257256290Y-110225043D01*
X257110330Y-110151740D01*
X257110331Y-110151740D01*
X257103877Y-110148499D01*
X257096857Y-110146835D01*
X257096854Y-110146834D01*
X256937915Y-110109165D01*
X256930890Y-110107500D01*
X256797708Y-110107500D01*
X256794143Y-110107916D01*
X256794137Y-110107917D01*
X256672593Y-110122123D01*
X256672585Y-110122124D01*
X256665423Y-110122962D01*
X256658645Y-110125428D01*
X256658636Y-110125431D01*
X256505147Y-110181297D01*
X256505142Y-110181299D01*
X256498365Y-110183766D01*
X256492341Y-110187727D01*
X256492335Y-110187731D01*
X256355862Y-110277490D01*
X256355856Y-110277494D01*
X256349832Y-110281457D01*
X256344882Y-110286703D01*
X256344878Y-110286707D01*
X256232785Y-110405519D01*
X256232780Y-110405524D01*
X256227833Y-110410769D01*
X256224224Y-110417018D01*
X256224223Y-110417021D01*
X256142554Y-110558475D01*
X256142551Y-110558481D01*
X256138943Y-110564731D01*
X256136872Y-110571646D01*
X256136872Y-110571648D01*
X256090026Y-110728121D01*
X256090024Y-110728129D01*
X256087955Y-110735042D01*
X256087535Y-110742248D01*
X256087534Y-110742256D01*
X256078037Y-110905310D01*
X256078037Y-110905318D01*
X256077618Y-110912520D01*
X254062188Y-110912520D01*
X254084142Y-110881167D01*
X254177723Y-110680480D01*
X254235035Y-110466591D01*
X254254334Y-110246000D01*
X254235035Y-110025409D01*
X254217062Y-109958335D01*
X254179122Y-109816741D01*
X254179121Y-109816740D01*
X254177723Y-109811520D01*
X254084142Y-109610833D01*
X253957132Y-109429445D01*
X253800555Y-109272868D01*
X253796124Y-109269765D01*
X253796120Y-109269762D01*
X253623604Y-109148965D01*
X253623605Y-109148965D01*
X253619167Y-109145858D01*
X253610470Y-109141802D01*
X253495907Y-109088381D01*
X253443731Y-109042624D01*
X253424312Y-108975998D01*
X253443732Y-108909373D01*
X253495905Y-108863619D01*
X253619167Y-108806142D01*
X253800555Y-108679132D01*
X253957132Y-108522555D01*
X254084142Y-108341167D01*
X254177723Y-108140480D01*
X254235035Y-107926591D01*
X254254334Y-107706000D01*
X254235035Y-107485409D01*
X254177723Y-107271520D01*
X254084142Y-107070833D01*
X253957132Y-106889445D01*
X253800555Y-106732868D01*
X253796124Y-106729765D01*
X253796120Y-106729762D01*
X253623604Y-106608965D01*
X253623605Y-106608965D01*
X253619167Y-106605858D01*
X253495907Y-106548381D01*
X253443732Y-106502625D01*
X253424312Y-106436000D01*
X253443732Y-106369375D01*
X253495908Y-106323618D01*
X253496500Y-106323342D01*
X253619167Y-106266142D01*
X253800555Y-106139132D01*
X253957132Y-105982555D01*
X254084142Y-105801167D01*
X254177723Y-105600480D01*
X254235035Y-105386591D01*
X254254334Y-105166000D01*
X254235035Y-104945409D01*
X254222525Y-104898723D01*
X254179122Y-104736741D01*
X254179121Y-104736740D01*
X254177723Y-104731520D01*
X254084142Y-104530833D01*
X253957132Y-104349445D01*
X253800555Y-104192868D01*
X253796124Y-104189765D01*
X253796120Y-104189762D01*
X253623604Y-104068965D01*
X253623605Y-104068965D01*
X253619167Y-104065858D01*
X253610470Y-104061802D01*
X253495907Y-104008381D01*
X253443731Y-103962624D01*
X253424312Y-103895998D01*
X253443732Y-103829373D01*
X253495905Y-103783619D01*
X253619167Y-103726142D01*
X253800555Y-103599132D01*
X253957132Y-103442555D01*
X254084142Y-103261167D01*
X254177723Y-103060480D01*
X254235035Y-102846591D01*
X254254334Y-102626000D01*
X254235035Y-102405409D01*
X254177723Y-102191520D01*
X254084142Y-101990833D01*
X253967843Y-101824742D01*
X253960237Y-101813879D01*
X253960235Y-101813877D01*
X253957132Y-101809445D01*
X253800555Y-101652868D01*
X253796124Y-101649765D01*
X253796120Y-101649762D01*
X253623604Y-101528965D01*
X253623605Y-101528965D01*
X253619167Y-101525858D01*
X253495907Y-101468381D01*
X253443732Y-101422625D01*
X253424312Y-101356000D01*
X253443732Y-101289375D01*
X253495908Y-101243618D01*
X253619167Y-101186142D01*
X253800555Y-101059132D01*
X253957132Y-100902555D01*
X254084142Y-100721167D01*
X254177723Y-100520480D01*
X254235035Y-100306591D01*
X254235507Y-100301191D01*
X254236446Y-100295868D01*
X254237964Y-100296135D01*
X254260513Y-100238142D01*
X254316478Y-100197103D01*
X254385729Y-100192562D01*
X254446574Y-100225942D01*
X255600618Y-101379985D01*
X255632488Y-101434748D01*
X255633143Y-101498106D01*
X255616151Y-101565203D01*
X255616148Y-101565215D01*
X255614892Y-101570179D01*
X255614468Y-101575288D01*
X255614467Y-101575298D01*
X255595711Y-101801657D01*
X255594357Y-101818000D01*
X255594781Y-101823117D01*
X255614467Y-102060701D01*
X255614468Y-102060709D01*
X255614892Y-102065821D01*
X255616149Y-102070788D01*
X255616151Y-102070795D01*
X255674678Y-102301910D01*
X255675937Y-102306881D01*
X255677997Y-102311577D01*
X255773766Y-102529910D01*
X255773769Y-102529916D01*
X255775827Y-102534607D01*
X255778627Y-102538893D01*
X255778631Y-102538900D01*
X255905892Y-102733687D01*
X255911836Y-102742785D01*
X255915310Y-102746559D01*
X255915311Y-102746560D01*
X256076784Y-102921967D01*
X256076787Y-102921970D01*
X256080256Y-102925738D01*
X256276491Y-103078474D01*
X256281002Y-103080915D01*
X256481813Y-103189589D01*
X256495190Y-103196828D01*
X256730386Y-103277571D01*
X256975665Y-103318500D01*
X257219201Y-103318500D01*
X257224335Y-103318500D01*
X257469614Y-103277571D01*
X257704810Y-103196828D01*
X257923509Y-103078474D01*
X258119744Y-102925738D01*
X258288164Y-102742785D01*
X258424173Y-102534607D01*
X258524063Y-102306881D01*
X258585108Y-102065821D01*
X258605643Y-101818000D01*
X262094357Y-101818000D01*
X262094781Y-101823117D01*
X262114467Y-102060701D01*
X262114468Y-102060709D01*
X262114892Y-102065821D01*
X262116149Y-102070788D01*
X262116151Y-102070795D01*
X262174678Y-102301910D01*
X262175937Y-102306881D01*
X262177997Y-102311577D01*
X262273766Y-102529910D01*
X262273769Y-102529916D01*
X262275827Y-102534607D01*
X262278627Y-102538893D01*
X262278631Y-102538900D01*
X262405892Y-102733687D01*
X262411836Y-102742785D01*
X262415310Y-102746559D01*
X262415311Y-102746560D01*
X262576784Y-102921967D01*
X262576787Y-102921970D01*
X262580256Y-102925738D01*
X262776491Y-103078474D01*
X262781002Y-103080915D01*
X262981813Y-103189589D01*
X262995190Y-103196828D01*
X263230386Y-103277571D01*
X263475665Y-103318500D01*
X263719201Y-103318500D01*
X263724335Y-103318500D01*
X263969614Y-103277571D01*
X264204810Y-103196828D01*
X264423509Y-103078474D01*
X264619744Y-102925738D01*
X264788164Y-102742785D01*
X264924173Y-102534607D01*
X265024063Y-102306881D01*
X265085108Y-102065821D01*
X265105643Y-101818000D01*
X265085108Y-101570179D01*
X265024063Y-101329119D01*
X264924173Y-101101393D01*
X264788164Y-100893215D01*
X264780269Y-100884639D01*
X264623215Y-100714032D01*
X264623211Y-100714029D01*
X264619744Y-100710262D01*
X264465166Y-100589949D01*
X264427559Y-100560678D01*
X264427557Y-100560676D01*
X264423509Y-100557526D01*
X264418997Y-100555084D01*
X264209316Y-100441610D01*
X264209310Y-100441607D01*
X264204810Y-100439172D01*
X264199969Y-100437510D01*
X264199962Y-100437507D01*
X263974465Y-100360094D01*
X263974461Y-100360093D01*
X263969614Y-100358429D01*
X263953751Y-100355782D01*
X263729398Y-100318344D01*
X263729387Y-100318343D01*
X263724335Y-100317500D01*
X263475665Y-100317500D01*
X263470613Y-100318343D01*
X263470601Y-100318344D01*
X263235443Y-100357585D01*
X263235441Y-100357585D01*
X263230386Y-100358429D01*
X263225541Y-100360092D01*
X263225534Y-100360094D01*
X263000037Y-100437507D01*
X263000026Y-100437511D01*
X262995190Y-100439172D01*
X262990693Y-100441605D01*
X262990683Y-100441610D01*
X262781002Y-100555084D01*
X262780995Y-100555088D01*
X262776491Y-100557526D01*
X262772448Y-100560672D01*
X262772440Y-100560678D01*
X262590471Y-100702311D01*
X262580256Y-100710262D01*
X262576793Y-100714023D01*
X262576784Y-100714032D01*
X262415311Y-100889439D01*
X262415305Y-100889446D01*
X262411836Y-100893215D01*
X262409031Y-100897506D01*
X262409028Y-100897512D01*
X262278631Y-101097099D01*
X262278624Y-101097111D01*
X262275827Y-101101393D01*
X262273772Y-101106077D01*
X262273766Y-101106089D01*
X262180031Y-101319785D01*
X262175937Y-101329119D01*
X262174679Y-101334084D01*
X262174678Y-101334089D01*
X262116151Y-101565204D01*
X262116149Y-101565213D01*
X262114892Y-101570179D01*
X262114468Y-101575288D01*
X262114467Y-101575298D01*
X262095711Y-101801657D01*
X262094357Y-101818000D01*
X258605643Y-101818000D01*
X258585108Y-101570179D01*
X258524063Y-101329119D01*
X258424173Y-101101393D01*
X258288164Y-100893215D01*
X258280269Y-100884639D01*
X258123215Y-100714032D01*
X258123211Y-100714029D01*
X258119744Y-100710262D01*
X257965166Y-100589949D01*
X257927559Y-100560678D01*
X257927557Y-100560676D01*
X257923509Y-100557526D01*
X257918997Y-100555084D01*
X257709316Y-100441610D01*
X257709310Y-100441607D01*
X257704810Y-100439172D01*
X257699969Y-100437510D01*
X257699962Y-100437507D01*
X257474465Y-100360094D01*
X257474461Y-100360093D01*
X257469614Y-100358429D01*
X257453751Y-100355782D01*
X257229398Y-100318344D01*
X257229387Y-100318343D01*
X257224335Y-100317500D01*
X256975665Y-100317500D01*
X256970613Y-100318343D01*
X256970601Y-100318344D01*
X256768841Y-100352011D01*
X256710601Y-100347790D01*
X256660751Y-100317383D01*
X254884616Y-98541248D01*
X256235749Y-98541248D01*
X256243855Y-98552439D01*
X256272717Y-98574903D01*
X256281279Y-98580496D01*
X256490885Y-98693929D01*
X256500239Y-98698032D01*
X256725656Y-98775417D01*
X256735568Y-98777928D01*
X256970643Y-98817155D01*
X256980839Y-98818000D01*
X257219161Y-98818000D01*
X257229356Y-98817155D01*
X257464431Y-98777928D01*
X257474343Y-98775417D01*
X257699760Y-98698032D01*
X257709114Y-98693929D01*
X257918723Y-98580495D01*
X257927281Y-98574903D01*
X257956146Y-98552437D01*
X257964250Y-98541250D01*
X257964249Y-98541248D01*
X262735749Y-98541248D01*
X262743855Y-98552439D01*
X262772717Y-98574903D01*
X262781279Y-98580496D01*
X262990885Y-98693929D01*
X263000239Y-98698032D01*
X263225656Y-98775417D01*
X263235568Y-98777928D01*
X263470643Y-98817155D01*
X263480839Y-98818000D01*
X263719161Y-98818000D01*
X263729356Y-98817155D01*
X263964431Y-98777928D01*
X263974343Y-98775417D01*
X264199760Y-98698032D01*
X264209114Y-98693929D01*
X264418723Y-98580495D01*
X264427281Y-98574903D01*
X264456146Y-98552437D01*
X264464250Y-98541250D01*
X264457589Y-98529142D01*
X263611542Y-97683095D01*
X263600000Y-97676431D01*
X263588457Y-97683095D01*
X262742408Y-98529143D01*
X262735749Y-98541248D01*
X257964249Y-98541248D01*
X257957589Y-98529142D01*
X257111542Y-97683095D01*
X257100000Y-97676431D01*
X257088457Y-97683095D01*
X256242408Y-98529143D01*
X256235749Y-98541248D01*
X254884616Y-98541248D01*
X254663729Y-98320361D01*
X254651947Y-98306727D01*
X254641925Y-98293265D01*
X254641921Y-98293261D01*
X254637610Y-98287470D01*
X254599667Y-98255631D01*
X254591691Y-98248323D01*
X254590329Y-98246961D01*
X254587777Y-98244409D01*
X254584953Y-98242176D01*
X254584944Y-98242168D01*
X254563445Y-98225170D01*
X254560674Y-98222913D01*
X254503214Y-98174698D01*
X254496760Y-98171456D01*
X254493859Y-98169548D01*
X254493588Y-98169352D01*
X254493292Y-98169187D01*
X254490339Y-98167366D01*
X254484677Y-98162889D01*
X254478134Y-98159838D01*
X254478131Y-98159836D01*
X254416692Y-98131186D01*
X254413446Y-98129615D01*
X254352884Y-98099200D01*
X254352885Y-98099200D01*
X254346433Y-98095960D01*
X254339409Y-98094295D01*
X254336151Y-98093109D01*
X254335832Y-98092977D01*
X254335504Y-98092884D01*
X254332218Y-98091795D01*
X254325673Y-98088743D01*
X254318604Y-98087283D01*
X254318600Y-98087282D01*
X254286708Y-98080697D01*
X254227567Y-98050274D01*
X254192653Y-97993668D01*
X254192008Y-97927168D01*
X254235035Y-97766591D01*
X254254334Y-97546000D01*
X254235035Y-97325409D01*
X254234421Y-97323117D01*
X255595283Y-97323117D01*
X255614962Y-97560618D01*
X255616646Y-97570712D01*
X255675153Y-97801747D01*
X255678472Y-97811414D01*
X255774208Y-98029673D01*
X255779070Y-98038656D01*
X255868999Y-98176304D01*
X255876963Y-98184024D01*
X255886345Y-98178100D01*
X256734904Y-97329542D01*
X256741568Y-97318000D01*
X257458431Y-97318000D01*
X257465095Y-97329542D01*
X258313653Y-98178100D01*
X258323034Y-98184024D01*
X258331002Y-98176299D01*
X258420924Y-98038664D01*
X258425792Y-98029669D01*
X258521527Y-97811414D01*
X258524846Y-97801747D01*
X258583353Y-97570712D01*
X258585037Y-97560618D01*
X258604717Y-97323117D01*
X262095283Y-97323117D01*
X262114962Y-97560618D01*
X262116646Y-97570712D01*
X262175153Y-97801747D01*
X262178472Y-97811414D01*
X262274208Y-98029673D01*
X262279070Y-98038656D01*
X262368999Y-98176304D01*
X262376963Y-98184024D01*
X262386345Y-98178100D01*
X263234904Y-97329542D01*
X263241568Y-97318000D01*
X263958431Y-97318000D01*
X263965095Y-97329542D01*
X264813653Y-98178100D01*
X264823034Y-98184024D01*
X264831002Y-98176299D01*
X264920924Y-98038664D01*
X264925792Y-98029669D01*
X265021527Y-97811414D01*
X265024846Y-97801747D01*
X265083353Y-97570712D01*
X265085037Y-97560618D01*
X265104717Y-97323117D01*
X265104717Y-97312883D01*
X265085037Y-97075381D01*
X265083353Y-97065287D01*
X265024846Y-96834252D01*
X265021527Y-96824585D01*
X264925792Y-96606330D01*
X264920924Y-96597335D01*
X264831002Y-96459699D01*
X264823034Y-96451974D01*
X264813653Y-96457898D01*
X263965095Y-97306457D01*
X263958431Y-97318000D01*
X263241568Y-97318000D01*
X263234904Y-97306457D01*
X262386345Y-96457898D01*
X262376964Y-96451974D01*
X262368997Y-96459699D01*
X262279072Y-96597338D01*
X262274207Y-96606328D01*
X262178472Y-96824585D01*
X262175153Y-96834252D01*
X262116646Y-97065287D01*
X262114962Y-97075381D01*
X262095283Y-97312883D01*
X262095283Y-97323117D01*
X258604717Y-97323117D01*
X258604717Y-97312883D01*
X258585037Y-97075381D01*
X258583353Y-97065287D01*
X258524846Y-96834252D01*
X258521527Y-96824585D01*
X258425792Y-96606330D01*
X258420924Y-96597335D01*
X258331002Y-96459699D01*
X258323034Y-96451974D01*
X258313653Y-96457898D01*
X257465095Y-97306457D01*
X257458431Y-97318000D01*
X256741568Y-97318000D01*
X256734904Y-97306457D01*
X255886345Y-96457898D01*
X255876964Y-96451974D01*
X255868997Y-96459699D01*
X255779072Y-96597338D01*
X255774207Y-96606328D01*
X255678472Y-96824585D01*
X255675153Y-96834252D01*
X255616646Y-97065287D01*
X255614962Y-97075381D01*
X255595283Y-97312883D01*
X255595283Y-97323117D01*
X254234421Y-97323117D01*
X254233560Y-97319906D01*
X254179122Y-97116741D01*
X254179121Y-97116740D01*
X254177723Y-97111520D01*
X254084142Y-96910833D01*
X253957132Y-96729445D01*
X253800555Y-96572868D01*
X253796124Y-96569765D01*
X253796120Y-96569762D01*
X253636362Y-96457898D01*
X253619167Y-96445858D01*
X253495907Y-96388381D01*
X253443732Y-96342625D01*
X253424312Y-96276000D01*
X253443732Y-96209375D01*
X253495908Y-96163618D01*
X253619167Y-96106142D01*
X253635438Y-96094749D01*
X256235748Y-96094749D01*
X256242408Y-96106855D01*
X257088457Y-96952904D01*
X257100000Y-96959568D01*
X257111542Y-96952904D01*
X257957590Y-96106855D01*
X257964250Y-96094749D01*
X262735748Y-96094749D01*
X262742408Y-96106855D01*
X263588457Y-96952904D01*
X263600000Y-96959568D01*
X263611542Y-96952904D01*
X264457590Y-96106855D01*
X264464250Y-96094749D01*
X264456143Y-96083559D01*
X264427286Y-96061099D01*
X264418719Y-96055503D01*
X264209114Y-95942070D01*
X264199760Y-95937967D01*
X263974343Y-95860582D01*
X263964431Y-95858071D01*
X263729356Y-95818844D01*
X263719161Y-95818000D01*
X263480839Y-95818000D01*
X263470643Y-95818844D01*
X263235568Y-95858071D01*
X263225656Y-95860582D01*
X263000239Y-95937967D01*
X262990885Y-95942070D01*
X262781276Y-96055504D01*
X262772717Y-96061096D01*
X262743854Y-96083560D01*
X262735748Y-96094749D01*
X257964250Y-96094749D01*
X257956143Y-96083559D01*
X257927286Y-96061099D01*
X257918719Y-96055503D01*
X257709114Y-95942070D01*
X257699760Y-95937967D01*
X257474343Y-95860582D01*
X257464431Y-95858071D01*
X257229356Y-95818844D01*
X257219161Y-95818000D01*
X256980839Y-95818000D01*
X256970643Y-95818844D01*
X256735568Y-95858071D01*
X256725656Y-95860582D01*
X256500239Y-95937967D01*
X256490885Y-95942070D01*
X256281276Y-96055504D01*
X256272717Y-96061096D01*
X256243854Y-96083560D01*
X256235748Y-96094749D01*
X253635438Y-96094749D01*
X253800555Y-95979132D01*
X253957132Y-95822555D01*
X254084142Y-95641167D01*
X254177723Y-95440480D01*
X254235035Y-95226591D01*
X254254334Y-95006000D01*
X254235035Y-94785409D01*
X254177723Y-94571520D01*
X254084142Y-94370833D01*
X253984204Y-94228108D01*
X253960237Y-94193879D01*
X253960235Y-94193877D01*
X253957132Y-94189445D01*
X253800555Y-94032868D01*
X253796124Y-94029765D01*
X253796120Y-94029762D01*
X253646974Y-93925329D01*
X253619167Y-93905858D01*
X253610470Y-93901802D01*
X253495907Y-93848381D01*
X253443731Y-93802624D01*
X253424312Y-93735998D01*
X253443732Y-93669373D01*
X253495905Y-93623619D01*
X253619167Y-93566142D01*
X253800555Y-93439132D01*
X253957132Y-93282555D01*
X254084142Y-93101167D01*
X254177723Y-92900480D01*
X254235035Y-92686591D01*
X254254334Y-92466000D01*
X254235035Y-92245409D01*
X254194435Y-92093891D01*
X254179122Y-92036741D01*
X254179121Y-92036740D01*
X254177723Y-92031520D01*
X254084142Y-91830833D01*
X254003970Y-91716337D01*
X253960237Y-91653879D01*
X253960235Y-91653877D01*
X253957132Y-91649445D01*
X253800555Y-91492868D01*
X253796124Y-91489765D01*
X253796120Y-91489762D01*
X253623604Y-91368965D01*
X253623605Y-91368965D01*
X253619167Y-91365858D01*
X253495907Y-91308381D01*
X253443732Y-91262625D01*
X253424312Y-91196000D01*
X253443732Y-91129375D01*
X253495908Y-91083618D01*
X253619167Y-91026142D01*
X253800555Y-90899132D01*
X253957132Y-90742555D01*
X254084142Y-90561167D01*
X254177723Y-90360480D01*
X254235035Y-90146591D01*
X254254334Y-89926000D01*
X254235035Y-89705409D01*
X254177723Y-89491520D01*
X254084142Y-89290833D01*
X253957132Y-89109445D01*
X253800555Y-88952868D01*
X253796124Y-88949765D01*
X253796120Y-88949762D01*
X253623604Y-88828965D01*
X253623605Y-88828965D01*
X253619167Y-88825858D01*
X253495315Y-88768105D01*
X253443140Y-88722349D01*
X253423721Y-88655724D01*
X253443141Y-88589099D01*
X253495317Y-88543342D01*
X253614009Y-88487995D01*
X253623345Y-88482605D01*
X253673220Y-88447682D01*
X253680651Y-88439573D01*
X253674737Y-88430290D01*
X252995542Y-87751095D01*
X252983999Y-87744431D01*
X252972457Y-87751095D01*
X252293258Y-88430293D01*
X252287347Y-88439572D01*
X252294780Y-88447683D01*
X252344644Y-88482598D01*
X252353994Y-88487996D01*
X252472683Y-88543342D01*
X252524858Y-88589099D01*
X252544278Y-88655724D01*
X252524859Y-88722349D01*
X252472683Y-88768106D01*
X252353743Y-88823568D01*
X252353738Y-88823570D01*
X252348833Y-88825858D01*
X252344399Y-88828962D01*
X252344395Y-88828965D01*
X252171879Y-88949762D01*
X252171869Y-88949769D01*
X252167445Y-88952868D01*
X252163619Y-88956693D01*
X252163613Y-88956699D01*
X252014699Y-89105613D01*
X252014693Y-89105619D01*
X252010868Y-89109445D01*
X252007769Y-89113869D01*
X252007762Y-89113879D01*
X251886965Y-89286395D01*
X251886962Y-89286399D01*
X251883858Y-89290833D01*
X251881569Y-89295741D01*
X251881566Y-89295747D01*
X251792563Y-89486616D01*
X251792560Y-89486623D01*
X251790277Y-89491520D01*
X251788880Y-89496730D01*
X251788877Y-89496741D01*
X251734366Y-89700176D01*
X251734363Y-89700189D01*
X251732965Y-89705409D01*
X251732493Y-89710798D01*
X251732492Y-89710807D01*
X251714232Y-89919524D01*
X251713666Y-89926000D01*
X251714138Y-89931395D01*
X251732492Y-90141192D01*
X251732493Y-90141199D01*
X251732965Y-90146591D01*
X251734364Y-90151812D01*
X251734366Y-90151823D01*
X251788877Y-90355258D01*
X251788879Y-90355265D01*
X251790277Y-90360480D01*
X251883858Y-90561167D01*
X251886965Y-90565604D01*
X252007762Y-90738120D01*
X252007765Y-90738124D01*
X252010868Y-90742555D01*
X252167445Y-90899132D01*
X252348833Y-91026142D01*
X252472092Y-91083618D01*
X252524268Y-91129375D01*
X252543687Y-91196000D01*
X252524268Y-91262625D01*
X252472092Y-91308382D01*
X252353743Y-91363568D01*
X252353738Y-91363570D01*
X252348833Y-91365858D01*
X252344399Y-91368962D01*
X252344395Y-91368965D01*
X252171879Y-91489762D01*
X252171869Y-91489769D01*
X252167445Y-91492868D01*
X252163619Y-91496693D01*
X252163613Y-91496699D01*
X252014699Y-91645613D01*
X252014693Y-91645619D01*
X252010868Y-91649445D01*
X252007769Y-91653869D01*
X252007762Y-91653879D01*
X251886965Y-91826395D01*
X251886962Y-91826399D01*
X251883858Y-91830833D01*
X251881569Y-91835741D01*
X251881566Y-91835747D01*
X251792563Y-92026616D01*
X251792560Y-92026623D01*
X251790277Y-92031520D01*
X251788880Y-92036730D01*
X251788877Y-92036741D01*
X251734366Y-92240176D01*
X251734363Y-92240189D01*
X251732965Y-92245409D01*
X251732493Y-92250798D01*
X251732492Y-92250807D01*
X251727541Y-92307401D01*
X251713666Y-92466000D01*
X251714138Y-92471395D01*
X251732492Y-92681192D01*
X251732493Y-92681199D01*
X251732965Y-92686591D01*
X251734364Y-92691812D01*
X251734366Y-92691823D01*
X251788877Y-92895258D01*
X251788879Y-92895265D01*
X251790277Y-92900480D01*
X251792561Y-92905380D01*
X251792563Y-92905383D01*
X251851561Y-93031906D01*
X251883858Y-93101167D01*
X251899886Y-93124057D01*
X252007762Y-93278120D01*
X252007765Y-93278124D01*
X252010868Y-93282555D01*
X252167445Y-93439132D01*
X252348833Y-93566142D01*
X252472094Y-93623619D01*
X252524267Y-93669373D01*
X252543687Y-93735998D01*
X252524268Y-93802624D01*
X252472092Y-93848381D01*
X252353743Y-93903568D01*
X252353738Y-93903570D01*
X252348833Y-93905858D01*
X252344399Y-93908962D01*
X252344395Y-93908965D01*
X252171879Y-94029762D01*
X252171869Y-94029769D01*
X252167445Y-94032868D01*
X252163619Y-94036693D01*
X252163613Y-94036699D01*
X252014699Y-94185613D01*
X252014693Y-94185619D01*
X252010868Y-94189445D01*
X252007769Y-94193869D01*
X252007762Y-94193879D01*
X251886965Y-94366395D01*
X251886962Y-94366399D01*
X251883858Y-94370833D01*
X251881569Y-94375741D01*
X251881566Y-94375747D01*
X251792563Y-94566616D01*
X251792560Y-94566623D01*
X251790277Y-94571520D01*
X251788880Y-94576730D01*
X251788877Y-94576741D01*
X251734366Y-94780176D01*
X251734363Y-94780189D01*
X251732965Y-94785409D01*
X251732493Y-94790798D01*
X251732492Y-94790807D01*
X251714232Y-94999524D01*
X251713666Y-95006000D01*
X251714138Y-95011395D01*
X251732492Y-95221192D01*
X251732493Y-95221199D01*
X251732965Y-95226591D01*
X251734364Y-95231812D01*
X251734366Y-95231823D01*
X251788877Y-95435258D01*
X251788879Y-95435265D01*
X251790277Y-95440480D01*
X251792561Y-95445380D01*
X251792563Y-95445383D01*
X251825259Y-95515500D01*
X251883858Y-95641167D01*
X251886965Y-95645604D01*
X252007762Y-95818120D01*
X252007765Y-95818124D01*
X252010868Y-95822555D01*
X252167445Y-95979132D01*
X252348833Y-96106142D01*
X252472092Y-96163618D01*
X252524268Y-96209375D01*
X252543687Y-96276000D01*
X252524268Y-96342625D01*
X252472092Y-96388382D01*
X252353743Y-96443568D01*
X252353738Y-96443570D01*
X252348833Y-96445858D01*
X252344399Y-96448962D01*
X252344395Y-96448965D01*
X252171879Y-96569762D01*
X252171869Y-96569769D01*
X252167445Y-96572868D01*
X252163619Y-96576693D01*
X252163613Y-96576699D01*
X252014699Y-96725613D01*
X252014693Y-96725619D01*
X252010868Y-96729445D01*
X252007769Y-96733869D01*
X252007762Y-96733879D01*
X251886965Y-96906395D01*
X251886962Y-96906399D01*
X251883858Y-96910833D01*
X251881569Y-96915741D01*
X251881566Y-96915747D01*
X251792563Y-97106616D01*
X251792560Y-97106623D01*
X251790277Y-97111520D01*
X251788880Y-97116730D01*
X251788877Y-97116741D01*
X251734366Y-97320176D01*
X251734363Y-97320189D01*
X251732965Y-97325409D01*
X251732493Y-97330798D01*
X251732492Y-97330807D01*
X251717643Y-97500545D01*
X251713666Y-97546000D01*
X251714138Y-97551395D01*
X251727338Y-97702273D01*
X251717953Y-97761531D01*
X251681846Y-97809446D01*
X251627470Y-97834802D01*
X251567556Y-97831662D01*
X251516129Y-97800761D01*
X247420819Y-93705451D01*
X247393939Y-93665223D01*
X247384500Y-93617770D01*
X247384500Y-87947707D01*
X247385809Y-87929736D01*
X247386297Y-87926396D01*
X247389289Y-87905977D01*
X247384971Y-87856633D01*
X247384500Y-87845827D01*
X247384500Y-87843902D01*
X247384500Y-87840291D01*
X247380894Y-87809443D01*
X247380537Y-87805956D01*
X247373998Y-87731203D01*
X247371724Y-87724341D01*
X247371027Y-87720965D01*
X247370970Y-87720613D01*
X247370875Y-87720277D01*
X247370079Y-87716919D01*
X247369241Y-87709745D01*
X247343569Y-87639212D01*
X247342401Y-87635848D01*
X247321086Y-87571521D01*
X247321085Y-87571519D01*
X247318814Y-87564665D01*
X247315022Y-87558518D01*
X247313559Y-87555379D01*
X247313431Y-87555069D01*
X247313257Y-87554758D01*
X247311710Y-87551677D01*
X247309237Y-87544883D01*
X247268005Y-87482194D01*
X247266106Y-87479212D01*
X247230504Y-87421491D01*
X247230501Y-87421488D01*
X247226712Y-87415344D01*
X247221605Y-87410237D01*
X247219459Y-87407523D01*
X247219257Y-87407244D01*
X247219022Y-87406987D01*
X247216796Y-87404334D01*
X247212830Y-87398304D01*
X247205507Y-87391395D01*
X251714640Y-87391395D01*
X251732988Y-87601113D01*
X251734860Y-87611730D01*
X251789345Y-87815075D01*
X251793037Y-87825217D01*
X251882003Y-88016005D01*
X251887401Y-88025355D01*
X251922314Y-88075217D01*
X251930427Y-88082651D01*
X251939705Y-88076740D01*
X252618904Y-87397542D01*
X252625568Y-87386000D01*
X252625567Y-87385999D01*
X253342431Y-87385999D01*
X253349095Y-87397542D01*
X254028290Y-88076737D01*
X254037573Y-88082651D01*
X254045682Y-88075220D01*
X254080605Y-88025345D01*
X254085993Y-88016013D01*
X254174962Y-87825217D01*
X254178654Y-87815075D01*
X254233139Y-87611730D01*
X254235011Y-87601113D01*
X254253360Y-87391395D01*
X254253360Y-87380605D01*
X254235011Y-87170886D01*
X254233139Y-87160269D01*
X254178654Y-86956924D01*
X254174962Y-86946782D01*
X254085996Y-86755994D01*
X254080598Y-86746644D01*
X254045683Y-86696780D01*
X254037572Y-86689347D01*
X254028293Y-86695258D01*
X253349095Y-87374457D01*
X253342431Y-87385999D01*
X252625567Y-87385999D01*
X252618904Y-87374457D01*
X251939705Y-86695258D01*
X251930426Y-86689347D01*
X251922315Y-86696780D01*
X251887399Y-86746647D01*
X251882004Y-86755992D01*
X251793037Y-86946782D01*
X251789345Y-86956924D01*
X251734860Y-87160269D01*
X251732988Y-87170886D01*
X251714640Y-87380605D01*
X251714640Y-87391395D01*
X247205507Y-87391395D01*
X247158290Y-87346848D01*
X247155703Y-87344335D01*
X244657368Y-84846000D01*
X251713666Y-84846000D01*
X251714138Y-84851395D01*
X251732492Y-85061192D01*
X251732493Y-85061199D01*
X251732965Y-85066591D01*
X251734364Y-85071812D01*
X251734366Y-85071823D01*
X251788877Y-85275258D01*
X251788879Y-85275265D01*
X251790277Y-85280480D01*
X251883858Y-85481167D01*
X251886965Y-85485604D01*
X252007762Y-85658120D01*
X252007765Y-85658124D01*
X252010868Y-85662555D01*
X252167445Y-85819132D01*
X252348833Y-85946142D01*
X252472682Y-86003893D01*
X252524858Y-86049649D01*
X252544278Y-86116274D01*
X252524859Y-86182900D01*
X252472683Y-86228657D01*
X252353992Y-86284004D01*
X252344647Y-86289399D01*
X252294780Y-86324315D01*
X252287347Y-86332426D01*
X252293258Y-86341705D01*
X252972457Y-87020904D01*
X252983999Y-87027568D01*
X252995542Y-87020904D01*
X253674740Y-86341705D01*
X253680651Y-86332427D01*
X253673217Y-86324314D01*
X253623355Y-86289401D01*
X253614005Y-86284003D01*
X253495316Y-86228657D01*
X253443140Y-86182900D01*
X253423721Y-86116274D01*
X253443141Y-86049649D01*
X253495312Y-86003895D01*
X253619167Y-85946142D01*
X253800555Y-85819132D01*
X253957132Y-85662555D01*
X254084142Y-85481167D01*
X254177723Y-85280480D01*
X254235035Y-85066591D01*
X254254334Y-84846000D01*
X254235035Y-84625409D01*
X254177723Y-84411520D01*
X254084142Y-84210833D01*
X253957132Y-84029445D01*
X253800555Y-83872868D01*
X253796124Y-83869765D01*
X253796120Y-83869762D01*
X253623604Y-83748965D01*
X253623605Y-83748965D01*
X253619167Y-83745858D01*
X253495907Y-83688381D01*
X253443732Y-83642625D01*
X253424312Y-83576000D01*
X253443732Y-83509375D01*
X253495908Y-83463618D01*
X253619167Y-83406142D01*
X253800555Y-83279132D01*
X253957132Y-83122555D01*
X254084142Y-82941167D01*
X254177723Y-82740480D01*
X254235035Y-82526591D01*
X254254334Y-82306000D01*
X254235035Y-82085409D01*
X254177723Y-81871520D01*
X254084142Y-81670833D01*
X253957132Y-81489445D01*
X253800555Y-81332868D01*
X253796124Y-81329765D01*
X253796120Y-81329762D01*
X253623604Y-81208965D01*
X253623605Y-81208965D01*
X253619167Y-81205858D01*
X253495907Y-81148381D01*
X253443732Y-81102625D01*
X253424312Y-81036000D01*
X253443732Y-80969375D01*
X253495908Y-80923618D01*
X253619167Y-80866142D01*
X253800555Y-80739132D01*
X253957132Y-80582555D01*
X254084142Y-80401167D01*
X254177723Y-80200480D01*
X254235035Y-79986591D01*
X254254334Y-79766000D01*
X254235035Y-79545409D01*
X254177723Y-79331520D01*
X254084142Y-79130833D01*
X253957132Y-78949445D01*
X253800555Y-78792868D01*
X253796124Y-78789765D01*
X253796120Y-78789762D01*
X253662009Y-78695856D01*
X253637333Y-78678578D01*
X259203500Y-78678578D01*
X259203501Y-78681872D01*
X259203853Y-78685150D01*
X259203854Y-78685161D01*
X259209079Y-78733768D01*
X259209080Y-78733773D01*
X259209909Y-78741483D01*
X259212619Y-78748749D01*
X259212620Y-78748753D01*
X259227916Y-78789762D01*
X259260204Y-78876331D01*
X259265518Y-78883430D01*
X259265519Y-78883431D01*
X259312068Y-78945613D01*
X259346454Y-78991546D01*
X259461669Y-79077796D01*
X259596517Y-79128091D01*
X259656127Y-79134500D01*
X261551872Y-79134499D01*
X261611483Y-79128091D01*
X261746331Y-79077796D01*
X261861546Y-78991546D01*
X261947796Y-78876331D01*
X261998091Y-78741483D01*
X262004500Y-78681873D01*
X262004499Y-76786128D01*
X261998091Y-76726517D01*
X261947796Y-76591669D01*
X261861546Y-76476454D01*
X261746331Y-76390204D01*
X261611483Y-76339909D01*
X261603770Y-76339079D01*
X261603767Y-76339079D01*
X261555180Y-76333855D01*
X261555169Y-76333854D01*
X261551873Y-76333500D01*
X261548551Y-76333500D01*
X260999586Y-76333500D01*
X260933490Y-76314416D01*
X260887739Y-76263037D01*
X260876416Y-76195180D01*
X260903005Y-76131730D01*
X260959323Y-76092219D01*
X261163453Y-76022141D01*
X261172805Y-76018039D01*
X261367845Y-75912488D01*
X261376397Y-75906901D01*
X261388888Y-75897179D01*
X261396992Y-75885992D01*
X261390331Y-75873884D01*
X260615542Y-75099095D01*
X260604000Y-75092431D01*
X260592457Y-75099095D01*
X259817666Y-75873885D01*
X259811006Y-75885991D01*
X259819113Y-75897181D01*
X259831602Y-75906901D01*
X259840151Y-75912487D01*
X260035194Y-76018039D01*
X260044550Y-76022142D01*
X260248677Y-76092219D01*
X260304996Y-76131730D01*
X260331585Y-76195180D01*
X260320262Y-76263037D01*
X260274511Y-76314416D01*
X260208415Y-76333500D01*
X259659439Y-76333500D01*
X259659420Y-76333500D01*
X259656128Y-76333501D01*
X259652850Y-76333853D01*
X259652838Y-76333854D01*
X259604231Y-76339079D01*
X259604225Y-76339080D01*
X259596517Y-76339909D01*
X259589252Y-76342618D01*
X259589246Y-76342620D01*
X259469980Y-76387104D01*
X259469978Y-76387104D01*
X259461669Y-76390204D01*
X259454572Y-76395516D01*
X259454568Y-76395519D01*
X259353550Y-76471141D01*
X259353546Y-76471144D01*
X259346454Y-76476454D01*
X259341144Y-76483546D01*
X259341141Y-76483550D01*
X259265519Y-76584568D01*
X259265516Y-76584572D01*
X259260204Y-76591669D01*
X259257104Y-76599978D01*
X259257104Y-76599980D01*
X259212620Y-76719247D01*
X259212619Y-76719250D01*
X259209909Y-76726517D01*
X259209079Y-76734227D01*
X259209079Y-76734232D01*
X259203855Y-76782819D01*
X259203854Y-76782831D01*
X259203500Y-76786127D01*
X259203500Y-76789448D01*
X259203500Y-76789449D01*
X259203500Y-78678560D01*
X259203500Y-78678578D01*
X253637333Y-78678578D01*
X253619167Y-78665858D01*
X253495907Y-78608381D01*
X253443732Y-78562625D01*
X253424312Y-78496000D01*
X253443732Y-78429375D01*
X253495908Y-78383618D01*
X253619167Y-78326142D01*
X253800555Y-78199132D01*
X253957132Y-78042555D01*
X254084142Y-77861167D01*
X254177723Y-77660480D01*
X254235035Y-77446591D01*
X254254334Y-77226000D01*
X254235035Y-77005409D01*
X254213716Y-76925848D01*
X254179122Y-76796741D01*
X254179121Y-76796740D01*
X254177723Y-76791520D01*
X254084142Y-76590833D01*
X253957132Y-76409445D01*
X253800555Y-76252868D01*
X253796124Y-76249765D01*
X253796120Y-76249762D01*
X253623604Y-76128965D01*
X253623605Y-76128965D01*
X253619167Y-76125858D01*
X253495907Y-76068381D01*
X253443732Y-76022625D01*
X253424312Y-75956000D01*
X253443732Y-75889375D01*
X253495908Y-75843618D01*
X253619167Y-75786142D01*
X253800555Y-75659132D01*
X253957132Y-75502555D01*
X254084142Y-75321167D01*
X254177723Y-75120480D01*
X254235035Y-74906591D01*
X254249687Y-74739117D01*
X259199626Y-74739117D01*
X259217937Y-74960102D01*
X259219621Y-74970196D01*
X259274059Y-75185166D01*
X259277378Y-75194833D01*
X259366456Y-75397913D01*
X259371322Y-75406903D01*
X259445245Y-75520051D01*
X259453212Y-75527776D01*
X259462592Y-75521853D01*
X260238904Y-74745542D01*
X260245567Y-74734000D01*
X260962431Y-74734000D01*
X260969095Y-74745542D01*
X261745405Y-75521852D01*
X261754786Y-75527776D01*
X261762754Y-75520051D01*
X261836675Y-75406906D01*
X261841543Y-75397911D01*
X261930621Y-75194833D01*
X261933940Y-75185166D01*
X261988378Y-74970196D01*
X261990062Y-74960102D01*
X262008374Y-74739117D01*
X262008374Y-74728883D01*
X261990062Y-74507897D01*
X261988378Y-74497803D01*
X261933940Y-74282833D01*
X261930621Y-74273166D01*
X261841543Y-74070086D01*
X261836678Y-74061096D01*
X261762753Y-73947947D01*
X261754786Y-73940222D01*
X261745405Y-73946146D01*
X260969095Y-74722457D01*
X260962431Y-74734000D01*
X260245567Y-74734000D01*
X260245568Y-74733999D01*
X260238904Y-74722457D01*
X259462592Y-73946145D01*
X259453212Y-73940222D01*
X259445245Y-73947946D01*
X259371322Y-74061096D01*
X259366456Y-74070086D01*
X259277378Y-74273166D01*
X259274059Y-74282833D01*
X259219621Y-74497803D01*
X259217937Y-74507897D01*
X259199626Y-74728883D01*
X259199626Y-74739117D01*
X254249687Y-74739117D01*
X254254334Y-74686000D01*
X254235035Y-74465409D01*
X254177723Y-74251520D01*
X254084142Y-74050833D01*
X253957132Y-73869445D01*
X253926207Y-73838520D01*
X256839618Y-73838520D01*
X256840871Y-73845631D01*
X256840872Y-73845632D01*
X256869234Y-74006486D01*
X256869235Y-74006492D01*
X256870489Y-74013599D01*
X256873346Y-74020224D01*
X256873348Y-74020228D01*
X256906581Y-74097269D01*
X256940904Y-74176838D01*
X256945217Y-74182631D01*
X256945218Y-74182633D01*
X257019815Y-74282833D01*
X257047067Y-74319439D01*
X257052598Y-74324080D01*
X257177720Y-74429071D01*
X257177723Y-74429073D01*
X257183254Y-74433714D01*
X257342123Y-74513501D01*
X257515110Y-74554500D01*
X257644694Y-74554500D01*
X257648292Y-74554500D01*
X257780577Y-74539038D01*
X257947635Y-74478234D01*
X258096168Y-74380543D01*
X258218167Y-74251231D01*
X258307057Y-74097269D01*
X258358045Y-73926958D01*
X258368382Y-73749480D01*
X258338852Y-73582006D01*
X259811007Y-73582006D01*
X259817667Y-73594114D01*
X260592457Y-74368904D01*
X260604000Y-74375568D01*
X260615542Y-74368904D01*
X261145925Y-73838520D01*
X262839618Y-73838520D01*
X262840871Y-73845631D01*
X262840872Y-73845632D01*
X262869234Y-74006486D01*
X262869235Y-74006492D01*
X262870489Y-74013599D01*
X262873346Y-74020224D01*
X262873348Y-74020228D01*
X262906581Y-74097269D01*
X262940904Y-74176838D01*
X262945217Y-74182631D01*
X262945218Y-74182633D01*
X263019815Y-74282833D01*
X263047067Y-74319439D01*
X263052598Y-74324080D01*
X263177720Y-74429071D01*
X263177723Y-74429073D01*
X263183254Y-74433714D01*
X263342123Y-74513501D01*
X263515110Y-74554500D01*
X263644694Y-74554500D01*
X263648292Y-74554500D01*
X263780577Y-74539038D01*
X263947635Y-74478234D01*
X264096168Y-74380543D01*
X264218167Y-74251231D01*
X264307057Y-74097269D01*
X264358045Y-73926958D01*
X264368382Y-73749480D01*
X264337511Y-73574401D01*
X264267096Y-73411162D01*
X264160933Y-73268561D01*
X264129992Y-73242598D01*
X264030279Y-73158928D01*
X264030274Y-73158925D01*
X264024746Y-73154286D01*
X264018294Y-73151045D01*
X264018290Y-73151043D01*
X263872330Y-73077740D01*
X263872331Y-73077740D01*
X263865877Y-73074499D01*
X263858857Y-73072835D01*
X263858854Y-73072834D01*
X263699915Y-73035165D01*
X263692890Y-73033500D01*
X263559708Y-73033500D01*
X263556143Y-73033916D01*
X263556137Y-73033917D01*
X263434593Y-73048123D01*
X263434585Y-73048124D01*
X263427423Y-73048962D01*
X263420645Y-73051428D01*
X263420636Y-73051431D01*
X263267147Y-73107297D01*
X263267142Y-73107299D01*
X263260365Y-73109766D01*
X263254341Y-73113727D01*
X263254335Y-73113731D01*
X263117862Y-73203490D01*
X263117856Y-73203494D01*
X263111832Y-73207457D01*
X263106882Y-73212703D01*
X263106878Y-73212707D01*
X262994785Y-73331519D01*
X262994780Y-73331524D01*
X262989833Y-73336769D01*
X262986224Y-73343018D01*
X262986223Y-73343021D01*
X262904554Y-73484475D01*
X262904551Y-73484481D01*
X262900943Y-73490731D01*
X262898872Y-73497646D01*
X262898872Y-73497648D01*
X262852026Y-73654121D01*
X262852024Y-73654129D01*
X262849955Y-73661042D01*
X262849535Y-73668248D01*
X262849534Y-73668256D01*
X262840037Y-73831310D01*
X262840037Y-73831318D01*
X262839618Y-73838520D01*
X261145925Y-73838520D01*
X261390332Y-73594113D01*
X261396992Y-73582007D01*
X261388886Y-73570818D01*
X261376394Y-73561096D01*
X261367847Y-73555512D01*
X261172805Y-73449960D01*
X261163452Y-73445858D01*
X260953709Y-73373853D01*
X260943800Y-73371344D01*
X260725070Y-73334844D01*
X260714873Y-73334000D01*
X260493127Y-73334000D01*
X260482929Y-73334844D01*
X260264199Y-73371344D01*
X260254290Y-73373853D01*
X260044547Y-73445858D01*
X260035194Y-73449960D01*
X259840156Y-73555510D01*
X259831600Y-73561100D01*
X259819112Y-73570818D01*
X259811007Y-73582006D01*
X258338852Y-73582006D01*
X258337511Y-73574401D01*
X258267096Y-73411162D01*
X258160933Y-73268561D01*
X258129992Y-73242598D01*
X258030279Y-73158928D01*
X258030274Y-73158925D01*
X258024746Y-73154286D01*
X258018294Y-73151045D01*
X258018290Y-73151043D01*
X257872330Y-73077740D01*
X257872331Y-73077740D01*
X257865877Y-73074499D01*
X257858857Y-73072835D01*
X257858854Y-73072834D01*
X257699915Y-73035165D01*
X257692890Y-73033500D01*
X257559708Y-73033500D01*
X257556143Y-73033916D01*
X257556137Y-73033917D01*
X257434593Y-73048123D01*
X257434585Y-73048124D01*
X257427423Y-73048962D01*
X257420645Y-73051428D01*
X257420636Y-73051431D01*
X257267147Y-73107297D01*
X257267142Y-73107299D01*
X257260365Y-73109766D01*
X257254341Y-73113727D01*
X257254335Y-73113731D01*
X257117862Y-73203490D01*
X257117856Y-73203494D01*
X257111832Y-73207457D01*
X257106882Y-73212703D01*
X257106878Y-73212707D01*
X256994785Y-73331519D01*
X256994780Y-73331524D01*
X256989833Y-73336769D01*
X256986224Y-73343018D01*
X256986223Y-73343021D01*
X256904554Y-73484475D01*
X256904551Y-73484481D01*
X256900943Y-73490731D01*
X256898872Y-73497646D01*
X256898872Y-73497648D01*
X256852026Y-73654121D01*
X256852024Y-73654129D01*
X256849955Y-73661042D01*
X256849535Y-73668248D01*
X256849534Y-73668256D01*
X256840037Y-73831310D01*
X256840037Y-73831318D01*
X256839618Y-73838520D01*
X253926207Y-73838520D01*
X253800555Y-73712868D01*
X253796124Y-73709765D01*
X253796120Y-73709762D01*
X253624878Y-73589857D01*
X253619167Y-73585858D01*
X253495315Y-73528105D01*
X253443140Y-73482349D01*
X253423721Y-73415724D01*
X253443141Y-73349099D01*
X253495317Y-73303342D01*
X253614009Y-73247995D01*
X253623345Y-73242605D01*
X253673220Y-73207682D01*
X253680651Y-73199573D01*
X253674737Y-73190290D01*
X252995542Y-72511095D01*
X252984000Y-72504431D01*
X252972457Y-72511095D01*
X252293258Y-73190293D01*
X252287347Y-73199572D01*
X252294780Y-73207683D01*
X252344644Y-73242598D01*
X252353994Y-73247996D01*
X252472683Y-73303342D01*
X252524858Y-73349099D01*
X252544278Y-73415724D01*
X252524859Y-73482349D01*
X252472683Y-73528106D01*
X252353743Y-73583568D01*
X252353738Y-73583570D01*
X252348833Y-73585858D01*
X252344399Y-73588962D01*
X252344395Y-73588965D01*
X252171879Y-73709762D01*
X252171869Y-73709769D01*
X252167445Y-73712868D01*
X252163619Y-73716693D01*
X252163613Y-73716699D01*
X252014699Y-73865613D01*
X252014693Y-73865619D01*
X252010868Y-73869445D01*
X252007769Y-73873869D01*
X252007762Y-73873879D01*
X251886965Y-74046395D01*
X251886962Y-74046399D01*
X251883858Y-74050833D01*
X251881569Y-74055741D01*
X251881566Y-74055747D01*
X251792563Y-74246616D01*
X251792560Y-74246623D01*
X251790277Y-74251520D01*
X251788880Y-74256730D01*
X251788877Y-74256741D01*
X251734366Y-74460176D01*
X251734363Y-74460189D01*
X251732965Y-74465409D01*
X251732493Y-74470798D01*
X251732492Y-74470807D01*
X251720808Y-74604368D01*
X251713666Y-74686000D01*
X251714138Y-74691395D01*
X251732492Y-74901192D01*
X251732493Y-74901199D01*
X251732965Y-74906591D01*
X251734364Y-74911812D01*
X251734366Y-74911823D01*
X251788877Y-75115258D01*
X251788879Y-75115265D01*
X251790277Y-75120480D01*
X251883858Y-75321167D01*
X251886965Y-75325604D01*
X252007762Y-75498120D01*
X252007765Y-75498124D01*
X252010868Y-75502555D01*
X252167445Y-75659132D01*
X252348833Y-75786142D01*
X252472092Y-75843618D01*
X252524268Y-75889375D01*
X252543687Y-75956000D01*
X252524268Y-76022625D01*
X252472092Y-76068382D01*
X252353743Y-76123568D01*
X252353738Y-76123570D01*
X252348833Y-76125858D01*
X252344399Y-76128962D01*
X252344395Y-76128965D01*
X252171879Y-76249762D01*
X252171869Y-76249769D01*
X252167445Y-76252868D01*
X252163619Y-76256693D01*
X252163613Y-76256699D01*
X252014699Y-76405613D01*
X252014693Y-76405619D01*
X252010868Y-76409445D01*
X252007769Y-76413869D01*
X252007762Y-76413879D01*
X251886965Y-76586395D01*
X251886962Y-76586399D01*
X251883858Y-76590833D01*
X251881569Y-76595741D01*
X251881566Y-76595747D01*
X251792563Y-76786616D01*
X251792560Y-76786623D01*
X251790277Y-76791520D01*
X251788880Y-76796730D01*
X251788877Y-76796741D01*
X251734366Y-77000176D01*
X251734363Y-77000189D01*
X251732965Y-77005409D01*
X251732493Y-77010798D01*
X251732492Y-77010807D01*
X251714232Y-77219524D01*
X251713666Y-77226000D01*
X251714138Y-77231395D01*
X251732492Y-77441192D01*
X251732493Y-77441199D01*
X251732965Y-77446591D01*
X251734364Y-77451812D01*
X251734366Y-77451823D01*
X251788877Y-77655258D01*
X251788879Y-77655265D01*
X251790277Y-77660480D01*
X251883858Y-77861167D01*
X251886965Y-77865604D01*
X252007762Y-78038120D01*
X252007765Y-78038124D01*
X252010868Y-78042555D01*
X252167445Y-78199132D01*
X252348833Y-78326142D01*
X252472092Y-78383618D01*
X252524268Y-78429375D01*
X252543687Y-78496000D01*
X252524268Y-78562625D01*
X252472092Y-78608382D01*
X252353743Y-78663568D01*
X252353738Y-78663570D01*
X252348833Y-78665858D01*
X252344399Y-78668962D01*
X252344395Y-78668965D01*
X252171879Y-78789762D01*
X252171869Y-78789769D01*
X252167445Y-78792868D01*
X252163619Y-78796693D01*
X252163613Y-78796699D01*
X252014699Y-78945613D01*
X252014693Y-78945619D01*
X252010868Y-78949445D01*
X252007769Y-78953869D01*
X252007762Y-78953879D01*
X251886965Y-79126395D01*
X251886962Y-79126399D01*
X251883858Y-79130833D01*
X251881569Y-79135741D01*
X251881566Y-79135747D01*
X251792563Y-79326616D01*
X251792560Y-79326623D01*
X251790277Y-79331520D01*
X251788880Y-79336730D01*
X251788877Y-79336741D01*
X251734366Y-79540176D01*
X251734363Y-79540189D01*
X251732965Y-79545409D01*
X251732493Y-79550798D01*
X251732492Y-79550807D01*
X251714232Y-79759524D01*
X251713666Y-79766000D01*
X251714138Y-79771395D01*
X251732492Y-79981192D01*
X251732493Y-79981199D01*
X251732965Y-79986591D01*
X251734364Y-79991812D01*
X251734366Y-79991823D01*
X251788877Y-80195258D01*
X251788879Y-80195265D01*
X251790277Y-80200480D01*
X251792561Y-80205380D01*
X251792563Y-80205383D01*
X251814951Y-80253395D01*
X251883858Y-80401167D01*
X251886965Y-80405604D01*
X252007762Y-80578120D01*
X252007765Y-80578124D01*
X252010868Y-80582555D01*
X252167445Y-80739132D01*
X252348833Y-80866142D01*
X252472092Y-80923618D01*
X252524268Y-80969375D01*
X252543687Y-81036000D01*
X252524268Y-81102625D01*
X252472092Y-81148382D01*
X252353743Y-81203568D01*
X252353738Y-81203570D01*
X252348833Y-81205858D01*
X252344399Y-81208962D01*
X252344395Y-81208965D01*
X252171879Y-81329762D01*
X252171869Y-81329769D01*
X252167445Y-81332868D01*
X252163619Y-81336693D01*
X252163613Y-81336699D01*
X252014699Y-81485613D01*
X252014693Y-81485619D01*
X252010868Y-81489445D01*
X252007769Y-81493869D01*
X252007762Y-81493879D01*
X251886965Y-81666395D01*
X251886962Y-81666399D01*
X251883858Y-81670833D01*
X251881569Y-81675741D01*
X251881566Y-81675747D01*
X251792563Y-81866616D01*
X251792560Y-81866623D01*
X251790277Y-81871520D01*
X251788880Y-81876730D01*
X251788877Y-81876741D01*
X251734366Y-82080176D01*
X251734363Y-82080189D01*
X251732965Y-82085409D01*
X251732493Y-82090798D01*
X251732492Y-82090807D01*
X251714232Y-82299524D01*
X251713666Y-82306000D01*
X251714138Y-82311395D01*
X251732492Y-82521192D01*
X251732493Y-82521199D01*
X251732965Y-82526591D01*
X251734364Y-82531812D01*
X251734366Y-82531823D01*
X251788877Y-82735258D01*
X251788879Y-82735265D01*
X251790277Y-82740480D01*
X251883858Y-82941167D01*
X251886965Y-82945604D01*
X252007762Y-83118120D01*
X252007764Y-83118122D01*
X252010868Y-83122555D01*
X252167445Y-83279132D01*
X252348833Y-83406142D01*
X252472092Y-83463618D01*
X252524268Y-83509375D01*
X252543687Y-83576000D01*
X252524268Y-83642625D01*
X252472092Y-83688382D01*
X252353743Y-83743568D01*
X252353738Y-83743570D01*
X252348833Y-83745858D01*
X252344399Y-83748962D01*
X252344395Y-83748965D01*
X252171879Y-83869762D01*
X252171869Y-83869769D01*
X252167445Y-83872868D01*
X252163619Y-83876693D01*
X252163613Y-83876699D01*
X252014699Y-84025613D01*
X252014693Y-84025619D01*
X252010868Y-84029445D01*
X252007769Y-84033869D01*
X252007762Y-84033879D01*
X251886965Y-84206395D01*
X251886962Y-84206399D01*
X251883858Y-84210833D01*
X251881569Y-84215741D01*
X251881566Y-84215747D01*
X251792563Y-84406616D01*
X251792560Y-84406623D01*
X251790277Y-84411520D01*
X251788880Y-84416730D01*
X251788877Y-84416741D01*
X251734366Y-84620176D01*
X251734363Y-84620189D01*
X251732965Y-84625409D01*
X251732493Y-84630798D01*
X251732492Y-84630807D01*
X251714232Y-84839524D01*
X251713666Y-84846000D01*
X244657368Y-84846000D01*
X241631729Y-81820361D01*
X241619947Y-81806727D01*
X241609925Y-81793265D01*
X241609921Y-81793261D01*
X241605610Y-81787470D01*
X241567667Y-81755631D01*
X241559691Y-81748323D01*
X241558329Y-81746961D01*
X241555777Y-81744409D01*
X241552953Y-81742176D01*
X241552944Y-81742168D01*
X241531445Y-81725170D01*
X241528674Y-81722913D01*
X241471214Y-81674698D01*
X241464760Y-81671456D01*
X241461859Y-81669548D01*
X241461588Y-81669352D01*
X241461292Y-81669187D01*
X241458339Y-81667366D01*
X241452677Y-81662889D01*
X241446134Y-81659838D01*
X241446131Y-81659836D01*
X241384692Y-81631186D01*
X241381446Y-81629615D01*
X241320884Y-81599200D01*
X241320885Y-81599200D01*
X241314433Y-81595960D01*
X241307409Y-81594295D01*
X241304151Y-81593109D01*
X241303832Y-81592977D01*
X241303504Y-81592884D01*
X241300218Y-81591795D01*
X241293673Y-81588743D01*
X241286604Y-81587283D01*
X241286600Y-81587282D01*
X241220212Y-81573574D01*
X241216691Y-81572794D01*
X241150741Y-81557163D01*
X241150734Y-81557162D01*
X241143721Y-81555500D01*
X241136510Y-81555500D01*
X241133061Y-81555097D01*
X241132727Y-81555043D01*
X241132374Y-81555028D01*
X241128929Y-81554726D01*
X241121856Y-81553266D01*
X241114638Y-81553476D01*
X241046870Y-81555448D01*
X241043263Y-81555500D01*
X228667934Y-81555500D01*
X228610676Y-81541489D01*
X228566359Y-81502623D01*
X228557132Y-81489445D01*
X228400555Y-81332868D01*
X228396124Y-81329765D01*
X228396120Y-81329762D01*
X228223604Y-81208965D01*
X228223605Y-81208965D01*
X228219167Y-81205858D01*
X228095907Y-81148381D01*
X228043732Y-81102625D01*
X228024312Y-81036000D01*
X228043732Y-80969375D01*
X228095908Y-80923618D01*
X228219167Y-80866142D01*
X228400555Y-80739132D01*
X228557132Y-80582555D01*
X228684142Y-80401167D01*
X228777723Y-80200480D01*
X228835035Y-79986591D01*
X228854334Y-79766000D01*
X228835035Y-79545409D01*
X228777723Y-79331520D01*
X228684142Y-79130833D01*
X228557132Y-78949445D01*
X228400555Y-78792868D01*
X228396124Y-78789765D01*
X228396120Y-78789762D01*
X228262009Y-78695856D01*
X228219167Y-78665858D01*
X228095907Y-78608381D01*
X228043732Y-78562625D01*
X228024312Y-78496000D01*
X228043732Y-78429375D01*
X228095908Y-78383618D01*
X228219167Y-78326142D01*
X228400555Y-78199132D01*
X228557132Y-78042555D01*
X228684142Y-77861167D01*
X228777723Y-77660480D01*
X228835035Y-77446591D01*
X228854334Y-77226000D01*
X228835035Y-77005409D01*
X228813716Y-76925848D01*
X228779122Y-76796741D01*
X228779121Y-76796740D01*
X228777723Y-76791520D01*
X228684142Y-76590833D01*
X228557132Y-76409445D01*
X228400555Y-76252868D01*
X228396124Y-76249765D01*
X228396120Y-76249762D01*
X228223604Y-76128965D01*
X228223605Y-76128965D01*
X228219167Y-76125858D01*
X228095907Y-76068381D01*
X228043732Y-76022625D01*
X228024312Y-75956000D01*
X228043732Y-75889375D01*
X228095908Y-75843618D01*
X228219167Y-75786142D01*
X228400555Y-75659132D01*
X228557132Y-75502555D01*
X228684142Y-75321167D01*
X228777723Y-75120480D01*
X228835035Y-74906591D01*
X228854334Y-74686000D01*
X228835035Y-74465409D01*
X228777723Y-74251520D01*
X228684142Y-74050833D01*
X228557132Y-73869445D01*
X228400555Y-73712868D01*
X228396124Y-73709765D01*
X228396120Y-73709762D01*
X228308414Y-73648350D01*
X228292309Y-73637072D01*
X228251984Y-73589857D01*
X228239604Y-73529009D01*
X228258276Y-73469789D01*
X228303318Y-73427046D01*
X228363433Y-73411499D01*
X228396872Y-73411499D01*
X228456483Y-73405091D01*
X228591331Y-73354796D01*
X228706546Y-73268546D01*
X228792796Y-73153331D01*
X228843091Y-73018483D01*
X228849500Y-72958873D01*
X228849500Y-72151395D01*
X251714640Y-72151395D01*
X251732988Y-72361113D01*
X251734860Y-72371730D01*
X251789345Y-72575075D01*
X251793037Y-72585217D01*
X251882003Y-72776005D01*
X251887401Y-72785355D01*
X251922314Y-72835217D01*
X251930427Y-72842651D01*
X251939705Y-72836740D01*
X252618904Y-72157542D01*
X252625567Y-72146000D01*
X253342431Y-72146000D01*
X253349095Y-72157542D01*
X254028290Y-72836737D01*
X254037573Y-72842651D01*
X254045682Y-72835220D01*
X254080605Y-72785345D01*
X254085993Y-72776013D01*
X254174962Y-72585217D01*
X254178654Y-72575075D01*
X254233139Y-72371730D01*
X254235011Y-72361113D01*
X254253360Y-72151395D01*
X254253360Y-72140605D01*
X254235011Y-71930886D01*
X254233139Y-71920269D01*
X254178654Y-71716924D01*
X254174962Y-71706782D01*
X254085996Y-71515994D01*
X254080598Y-71506644D01*
X254045683Y-71456780D01*
X254037572Y-71449347D01*
X254028293Y-71455258D01*
X253349095Y-72134457D01*
X253342431Y-72146000D01*
X252625567Y-72146000D01*
X252625568Y-72145999D01*
X252618904Y-72134457D01*
X251939705Y-71455258D01*
X251930426Y-71449347D01*
X251922315Y-71456780D01*
X251887399Y-71506647D01*
X251882004Y-71515992D01*
X251793037Y-71706782D01*
X251789345Y-71716924D01*
X251734860Y-71920269D01*
X251732988Y-71930886D01*
X251714640Y-72140605D01*
X251714640Y-72151395D01*
X228849500Y-72151395D01*
X228849499Y-71333128D01*
X228843091Y-71273517D01*
X228792796Y-71138669D01*
X228758178Y-71092426D01*
X252287347Y-71092426D01*
X252293258Y-71101705D01*
X252972457Y-71780904D01*
X252984000Y-71787568D01*
X252995542Y-71780904D01*
X253674740Y-71101705D01*
X253680651Y-71092427D01*
X253673217Y-71084314D01*
X253623355Y-71049401D01*
X253614005Y-71044003D01*
X253423217Y-70955037D01*
X253413075Y-70951345D01*
X253209730Y-70896860D01*
X253199113Y-70894988D01*
X252989395Y-70876640D01*
X252978605Y-70876640D01*
X252768886Y-70894988D01*
X252758269Y-70896860D01*
X252554924Y-70951345D01*
X252544782Y-70955037D01*
X252353992Y-71044004D01*
X252344647Y-71049399D01*
X252294780Y-71084315D01*
X252287347Y-71092426D01*
X228758178Y-71092426D01*
X228706546Y-71023454D01*
X228591331Y-70937204D01*
X228456483Y-70886909D01*
X228448770Y-70886079D01*
X228448767Y-70886079D01*
X228400180Y-70880855D01*
X228400169Y-70880854D01*
X228396873Y-70880500D01*
X228393550Y-70880500D01*
X226774439Y-70880500D01*
X226774420Y-70880500D01*
X226771128Y-70880501D01*
X226767850Y-70880853D01*
X226767838Y-70880854D01*
X226719231Y-70886079D01*
X226719225Y-70886080D01*
X226711517Y-70886909D01*
X226704252Y-70889618D01*
X226704246Y-70889620D01*
X226584980Y-70934104D01*
X226584978Y-70934104D01*
X226576669Y-70937204D01*
X226569572Y-70942516D01*
X226569568Y-70942519D01*
X226468550Y-71018141D01*
X226468546Y-71018144D01*
X226461454Y-71023454D01*
X226456144Y-71030546D01*
X226456141Y-71030550D01*
X226380519Y-71131568D01*
X226380516Y-71131572D01*
X226375204Y-71138669D01*
X226372104Y-71146978D01*
X226372104Y-71146980D01*
X226327620Y-71266247D01*
X226327619Y-71266250D01*
X226324909Y-71273517D01*
X226324079Y-71281227D01*
X226324079Y-71281232D01*
X226318855Y-71329819D01*
X226318854Y-71329831D01*
X226318500Y-71333127D01*
X226318500Y-71336448D01*
X226318500Y-71336449D01*
X226318500Y-72955560D01*
X226318500Y-72955578D01*
X226318501Y-72958872D01*
X226318853Y-72962150D01*
X226318854Y-72962161D01*
X226324079Y-73010768D01*
X226324080Y-73010773D01*
X226324909Y-73018483D01*
X226327619Y-73025749D01*
X226327620Y-73025753D01*
X226347010Y-73077740D01*
X226375204Y-73153331D01*
X226380518Y-73160430D01*
X226380519Y-73160431D01*
X226446069Y-73247995D01*
X226461454Y-73268546D01*
X226576669Y-73354796D01*
X226711517Y-73405091D01*
X226771127Y-73411500D01*
X226804563Y-73411499D01*
X226864678Y-73427045D01*
X226909721Y-73469787D01*
X226928394Y-73529007D01*
X226916015Y-73589856D01*
X226875688Y-73637073D01*
X226771887Y-73709756D01*
X226771875Y-73709766D01*
X226767445Y-73712868D01*
X226763619Y-73716693D01*
X226763613Y-73716699D01*
X226614699Y-73865613D01*
X226614693Y-73865619D01*
X226610868Y-73869445D01*
X226607769Y-73873869D01*
X226607762Y-73873879D01*
X226486965Y-74046395D01*
X226486962Y-74046399D01*
X226483858Y-74050833D01*
X226481569Y-74055741D01*
X226481566Y-74055747D01*
X226392563Y-74246616D01*
X226392560Y-74246623D01*
X226390277Y-74251520D01*
X226388880Y-74256730D01*
X226388877Y-74256741D01*
X226334366Y-74460176D01*
X226334363Y-74460189D01*
X226332965Y-74465409D01*
X226332493Y-74470798D01*
X226332492Y-74470807D01*
X226320808Y-74604368D01*
X226313666Y-74686000D01*
X226314138Y-74691395D01*
X226332492Y-74901192D01*
X226332493Y-74901199D01*
X226332965Y-74906591D01*
X226334364Y-74911812D01*
X226334366Y-74911823D01*
X226388877Y-75115258D01*
X226388879Y-75115265D01*
X226390277Y-75120480D01*
X226483858Y-75321167D01*
X226486965Y-75325604D01*
X226607762Y-75498120D01*
X226607765Y-75498124D01*
X226610868Y-75502555D01*
X226767445Y-75659132D01*
X226948833Y-75786142D01*
X227072092Y-75843618D01*
X227124268Y-75889375D01*
X227143687Y-75956000D01*
X227124268Y-76022625D01*
X227072092Y-76068382D01*
X226953743Y-76123568D01*
X226953738Y-76123570D01*
X226948833Y-76125858D01*
X226944399Y-76128962D01*
X226944395Y-76128965D01*
X226771879Y-76249762D01*
X226771869Y-76249769D01*
X226767445Y-76252868D01*
X226763619Y-76256693D01*
X226763613Y-76256699D01*
X226614699Y-76405613D01*
X226614693Y-76405619D01*
X226610868Y-76409445D01*
X226607769Y-76413869D01*
X226607762Y-76413879D01*
X226486965Y-76586395D01*
X226486962Y-76586399D01*
X226483858Y-76590833D01*
X226481569Y-76595741D01*
X226481566Y-76595747D01*
X226392563Y-76786616D01*
X226392560Y-76786623D01*
X226390277Y-76791520D01*
X226388880Y-76796730D01*
X226388877Y-76796741D01*
X226334366Y-77000176D01*
X226334363Y-77000189D01*
X226332965Y-77005409D01*
X226332493Y-77010798D01*
X226332492Y-77010807D01*
X226314232Y-77219524D01*
X226313666Y-77226000D01*
X226314138Y-77231395D01*
X226332492Y-77441192D01*
X226332493Y-77441199D01*
X226332965Y-77446591D01*
X226334364Y-77451812D01*
X226334366Y-77451823D01*
X226388877Y-77655258D01*
X226388879Y-77655265D01*
X226390277Y-77660480D01*
X226483858Y-77861167D01*
X226486965Y-77865604D01*
X226607762Y-78038120D01*
X226607765Y-78038124D01*
X226610868Y-78042555D01*
X226767445Y-78199132D01*
X226948833Y-78326142D01*
X227072092Y-78383618D01*
X227124268Y-78429375D01*
X227143687Y-78496000D01*
X227124268Y-78562625D01*
X227072092Y-78608382D01*
X226953743Y-78663568D01*
X226953738Y-78663570D01*
X226948833Y-78665858D01*
X226944399Y-78668962D01*
X226944395Y-78668965D01*
X226771879Y-78789762D01*
X226771869Y-78789769D01*
X226767445Y-78792868D01*
X226763619Y-78796693D01*
X226763613Y-78796699D01*
X226614699Y-78945613D01*
X226614693Y-78945619D01*
X226610868Y-78949445D01*
X226607769Y-78953869D01*
X226607762Y-78953879D01*
X226486965Y-79126395D01*
X226486962Y-79126399D01*
X226483858Y-79130833D01*
X226481569Y-79135741D01*
X226481566Y-79135747D01*
X226392563Y-79326616D01*
X226392560Y-79326623D01*
X226390277Y-79331520D01*
X226388880Y-79336730D01*
X226388877Y-79336741D01*
X226334366Y-79540176D01*
X226334363Y-79540189D01*
X226332965Y-79545409D01*
X226332493Y-79550798D01*
X226332492Y-79550807D01*
X226314232Y-79759524D01*
X226313666Y-79766000D01*
X226314138Y-79771395D01*
X226332492Y-79981192D01*
X226332493Y-79981199D01*
X226332965Y-79986591D01*
X226334364Y-79991812D01*
X226334366Y-79991823D01*
X226388877Y-80195258D01*
X226388879Y-80195265D01*
X226390277Y-80200480D01*
X226392561Y-80205380D01*
X226392563Y-80205383D01*
X226414951Y-80253395D01*
X226483858Y-80401167D01*
X226486965Y-80405604D01*
X226607762Y-80578120D01*
X226607765Y-80578124D01*
X226610868Y-80582555D01*
X226767445Y-80739132D01*
X226948833Y-80866142D01*
X227072092Y-80923618D01*
X227124268Y-80969375D01*
X227143687Y-81036000D01*
X227124268Y-81102625D01*
X227072092Y-81148382D01*
X226953743Y-81203568D01*
X226953738Y-81203570D01*
X226948833Y-81205858D01*
X226944399Y-81208962D01*
X226944395Y-81208965D01*
X226771879Y-81329762D01*
X226771869Y-81329769D01*
X226767445Y-81332868D01*
X226763619Y-81336693D01*
X226763613Y-81336699D01*
X226614699Y-81485613D01*
X226614693Y-81485619D01*
X226610868Y-81489445D01*
X226607769Y-81493869D01*
X226607762Y-81493879D01*
X226486965Y-81666395D01*
X226486962Y-81666399D01*
X226483858Y-81670833D01*
X226481569Y-81675741D01*
X226481566Y-81675747D01*
X226392563Y-81866616D01*
X226392560Y-81866623D01*
X226390277Y-81871520D01*
X226388880Y-81876730D01*
X226388877Y-81876741D01*
X226334366Y-82080176D01*
X226334363Y-82080189D01*
X226332965Y-82085409D01*
X226332493Y-82090798D01*
X226332492Y-82090807D01*
X226314232Y-82299524D01*
X226313666Y-82306000D01*
X226314138Y-82311395D01*
X226332492Y-82521192D01*
X226332493Y-82521199D01*
X226332965Y-82526591D01*
X226334364Y-82531812D01*
X226334366Y-82531823D01*
X226388877Y-82735258D01*
X226388879Y-82735265D01*
X226390277Y-82740480D01*
X226483858Y-82941167D01*
X226486965Y-82945604D01*
X226607762Y-83118120D01*
X226607764Y-83118122D01*
X226610868Y-83122555D01*
X226767445Y-83279132D01*
X226948833Y-83406142D01*
X227072092Y-83463618D01*
X227124268Y-83509375D01*
X227143687Y-83576000D01*
X227124268Y-83642625D01*
X227072092Y-83688382D01*
X226953743Y-83743568D01*
X226953738Y-83743570D01*
X226948833Y-83745858D01*
X226944399Y-83748962D01*
X226944395Y-83748965D01*
X226771879Y-83869762D01*
X226771869Y-83869769D01*
X226767445Y-83872868D01*
X226763619Y-83876693D01*
X226763613Y-83876699D01*
X226614699Y-84025613D01*
X226614693Y-84025619D01*
X226610868Y-84029445D01*
X226607769Y-84033869D01*
X226607762Y-84033879D01*
X226486965Y-84206395D01*
X226486962Y-84206399D01*
X226483858Y-84210833D01*
X226481569Y-84215741D01*
X226481566Y-84215747D01*
X226392563Y-84406616D01*
X226392560Y-84406623D01*
X226390277Y-84411520D01*
X226388880Y-84416730D01*
X226388877Y-84416741D01*
X226334366Y-84620176D01*
X226334363Y-84620189D01*
X226332965Y-84625409D01*
X226332493Y-84630798D01*
X226332492Y-84630807D01*
X226314232Y-84839524D01*
X226313666Y-84846000D01*
X226314138Y-84851395D01*
X226332492Y-85061192D01*
X226332493Y-85061199D01*
X226332965Y-85066591D01*
X226334364Y-85071812D01*
X226334366Y-85071823D01*
X226388877Y-85275258D01*
X226388879Y-85275265D01*
X226390277Y-85280480D01*
X226483858Y-85481167D01*
X226486965Y-85485604D01*
X226607762Y-85658120D01*
X226607765Y-85658124D01*
X226610868Y-85662555D01*
X226767445Y-85819132D01*
X226948833Y-85946142D01*
X227072092Y-86003618D01*
X227124268Y-86049375D01*
X227143687Y-86116000D01*
X227124268Y-86182625D01*
X227072092Y-86228382D01*
X226953743Y-86283568D01*
X226953738Y-86283570D01*
X226948833Y-86285858D01*
X226944399Y-86288962D01*
X226944395Y-86288965D01*
X226771879Y-86409762D01*
X226771869Y-86409769D01*
X226767445Y-86412868D01*
X226763619Y-86416693D01*
X226763613Y-86416699D01*
X226614699Y-86565613D01*
X226614693Y-86565619D01*
X226610868Y-86569445D01*
X226607769Y-86573869D01*
X226607762Y-86573879D01*
X226486965Y-86746395D01*
X226486962Y-86746399D01*
X226483858Y-86750833D01*
X226481569Y-86755741D01*
X226481566Y-86755747D01*
X226392563Y-86946616D01*
X226392560Y-86946623D01*
X226390277Y-86951520D01*
X226388880Y-86956730D01*
X226388877Y-86956741D01*
X226334366Y-87160176D01*
X226334363Y-87160189D01*
X226332965Y-87165409D01*
X226332493Y-87170798D01*
X226332492Y-87170807D01*
X226317311Y-87344335D01*
X226313666Y-87386000D01*
X226314138Y-87391395D01*
X226332492Y-87601192D01*
X226332493Y-87601199D01*
X226332965Y-87606591D01*
X226334364Y-87611812D01*
X226334366Y-87611823D01*
X226388877Y-87815258D01*
X226388879Y-87815265D01*
X226390277Y-87820480D01*
X226392561Y-87825380D01*
X226392563Y-87825383D01*
X226433478Y-87913126D01*
X226483858Y-88021167D01*
X226486965Y-88025604D01*
X226607762Y-88198120D01*
X226607765Y-88198124D01*
X226610868Y-88202555D01*
X226767445Y-88359132D01*
X226948833Y-88486142D01*
X227071500Y-88543342D01*
X227072092Y-88543618D01*
X227124268Y-88589375D01*
X227143687Y-88656000D01*
X227124268Y-88722625D01*
X227072092Y-88768382D01*
X226953743Y-88823568D01*
X226953738Y-88823570D01*
X226948833Y-88825858D01*
X226944399Y-88828962D01*
X226944395Y-88828965D01*
X226771879Y-88949762D01*
X226771869Y-88949769D01*
X226767445Y-88952868D01*
X226763619Y-88956693D01*
X226763613Y-88956699D01*
X226614699Y-89105613D01*
X226614693Y-89105619D01*
X226610868Y-89109445D01*
X226607769Y-89113869D01*
X226607762Y-89113879D01*
X226486965Y-89286395D01*
X226486962Y-89286399D01*
X226483858Y-89290833D01*
X226481569Y-89295741D01*
X226481566Y-89295747D01*
X226392563Y-89486616D01*
X226392560Y-89486623D01*
X226390277Y-89491520D01*
X226388880Y-89496730D01*
X226388877Y-89496741D01*
X226334366Y-89700176D01*
X226334363Y-89700189D01*
X226332965Y-89705409D01*
X226332493Y-89710798D01*
X226332492Y-89710807D01*
X226314232Y-89919524D01*
X226313666Y-89926000D01*
X226314138Y-89931395D01*
X226332492Y-90141192D01*
X226332493Y-90141199D01*
X226332965Y-90146591D01*
X226334364Y-90151812D01*
X226334366Y-90151823D01*
X226388877Y-90355258D01*
X226388879Y-90355265D01*
X226390277Y-90360480D01*
X226483858Y-90561167D01*
X226486965Y-90565604D01*
X226607762Y-90738120D01*
X226607765Y-90738124D01*
X226610868Y-90742555D01*
X226767445Y-90899132D01*
X226948833Y-91026142D01*
X227072092Y-91083618D01*
X227124268Y-91129375D01*
X227143687Y-91196000D01*
X227124268Y-91262625D01*
X227072092Y-91308382D01*
X226953743Y-91363568D01*
X226953738Y-91363570D01*
X226948833Y-91365858D01*
X226944399Y-91368962D01*
X226944395Y-91368965D01*
X226771879Y-91489762D01*
X226771869Y-91489769D01*
X226767445Y-91492868D01*
X226763619Y-91496693D01*
X226763613Y-91496699D01*
X226614699Y-91645613D01*
X226614693Y-91645619D01*
X226610868Y-91649445D01*
X226607769Y-91653869D01*
X226607762Y-91653879D01*
X226486965Y-91826395D01*
X226486962Y-91826399D01*
X226483858Y-91830833D01*
X226481569Y-91835741D01*
X226481566Y-91835747D01*
X226392563Y-92026616D01*
X226392560Y-92026623D01*
X226390277Y-92031520D01*
X226388880Y-92036730D01*
X226388877Y-92036741D01*
X226334366Y-92240176D01*
X226334363Y-92240189D01*
X226332965Y-92245409D01*
X226332493Y-92250798D01*
X226332492Y-92250807D01*
X226327541Y-92307401D01*
X226313666Y-92466000D01*
X226314138Y-92471395D01*
X226332492Y-92681192D01*
X226332493Y-92681199D01*
X226332965Y-92686591D01*
X226334364Y-92691812D01*
X226334366Y-92691823D01*
X226388877Y-92895258D01*
X226388879Y-92895265D01*
X226390277Y-92900480D01*
X226392561Y-92905380D01*
X226392563Y-92905383D01*
X226451561Y-93031906D01*
X226483858Y-93101167D01*
X226499886Y-93124057D01*
X226607762Y-93278120D01*
X226607765Y-93278124D01*
X226610868Y-93282555D01*
X226767445Y-93439132D01*
X226948833Y-93566142D01*
X227072094Y-93623619D01*
X227124267Y-93669373D01*
X227143687Y-93735998D01*
X227124268Y-93802624D01*
X227072092Y-93848381D01*
X226953743Y-93903568D01*
X226953738Y-93903570D01*
X226948833Y-93905858D01*
X226944399Y-93908962D01*
X226944395Y-93908965D01*
X226771879Y-94029762D01*
X226771869Y-94029769D01*
X226767445Y-94032868D01*
X226763619Y-94036693D01*
X226763613Y-94036699D01*
X226614699Y-94185613D01*
X226614693Y-94185619D01*
X226610868Y-94189445D01*
X226607769Y-94193869D01*
X226607762Y-94193879D01*
X226486965Y-94366395D01*
X226486962Y-94366399D01*
X226483858Y-94370833D01*
X226481569Y-94375741D01*
X226481566Y-94375747D01*
X226392563Y-94566616D01*
X226392560Y-94566623D01*
X226390277Y-94571520D01*
X226388880Y-94576730D01*
X226388877Y-94576741D01*
X226334366Y-94780176D01*
X226334363Y-94780189D01*
X226332965Y-94785409D01*
X226332493Y-94790798D01*
X226332492Y-94790807D01*
X226314232Y-94999524D01*
X226313666Y-95006000D01*
X226314138Y-95011395D01*
X226332492Y-95221192D01*
X226332493Y-95221199D01*
X226332965Y-95226591D01*
X226334364Y-95231812D01*
X226334366Y-95231823D01*
X226368553Y-95359406D01*
X226370395Y-95415691D01*
X226347154Y-95466986D01*
X226303622Y-95502712D01*
X226248778Y-95515500D01*
X98152229Y-95515500D01*
X98104776Y-95506061D01*
X98064548Y-95479181D01*
X95908770Y-93323402D01*
X95878521Y-93274041D01*
X95823179Y-93103716D01*
X95728533Y-92939784D01*
X95723475Y-92934167D01*
X95606220Y-92803942D01*
X95606219Y-92803941D01*
X95601871Y-92799112D01*
X95596613Y-92795292D01*
X95596611Y-92795290D01*
X95453988Y-92691669D01*
X95453987Y-92691668D01*
X95448730Y-92687849D01*
X95442792Y-92685205D01*
X95281745Y-92613501D01*
X95281740Y-92613499D01*
X95275803Y-92610856D01*
X95269444Y-92609504D01*
X95269440Y-92609503D01*
X95097008Y-92572852D01*
X95097005Y-92572851D01*
X95090646Y-92571500D01*
X94901354Y-92571500D01*
X94894995Y-92572851D01*
X94894991Y-92572852D01*
X94722559Y-92609503D01*
X94722552Y-92609505D01*
X94716197Y-92610856D01*
X94710262Y-92613498D01*
X94710254Y-92613501D01*
X94549207Y-92685205D01*
X94549202Y-92685207D01*
X94543270Y-92687849D01*
X94538016Y-92691665D01*
X94538011Y-92691669D01*
X94395388Y-92795290D01*
X94395381Y-92795295D01*
X94390129Y-92799112D01*
X94385784Y-92803937D01*
X94385779Y-92803942D01*
X94267813Y-92934956D01*
X94267808Y-92934962D01*
X94263467Y-92939784D01*
X94260222Y-92945404D01*
X94260218Y-92945410D01*
X94172069Y-93098089D01*
X94172066Y-93098094D01*
X94168821Y-93103716D01*
X94166815Y-93109888D01*
X94166813Y-93109894D01*
X94112333Y-93277564D01*
X94112331Y-93277573D01*
X94110326Y-93283744D01*
X94109648Y-93290194D01*
X94109646Y-93290204D01*
X94101828Y-93364598D01*
X94090540Y-93472000D01*
X94091219Y-93478460D01*
X94109646Y-93653795D01*
X94109647Y-93653803D01*
X94110326Y-93660256D01*
X94112331Y-93666428D01*
X94112333Y-93666435D01*
X94141099Y-93754965D01*
X94168821Y-93840284D01*
X94172068Y-93845908D01*
X94172069Y-93845910D01*
X94236797Y-93958023D01*
X94263467Y-94004216D01*
X94267811Y-94009041D01*
X94267813Y-94009043D01*
X94379242Y-94132797D01*
X94390129Y-94144888D01*
X94395387Y-94148708D01*
X94395388Y-94148709D01*
X94412347Y-94161030D01*
X94543270Y-94256151D01*
X94716197Y-94333144D01*
X94781335Y-94346989D01*
X94814714Y-94359303D01*
X94843228Y-94380596D01*
X97214267Y-96751634D01*
X97226049Y-96765267D01*
X97236077Y-96778738D01*
X97236081Y-96778742D01*
X97240390Y-96784530D01*
X97278352Y-96816384D01*
X97286313Y-96823680D01*
X97290224Y-96827591D01*
X97314542Y-96846819D01*
X97317337Y-96849096D01*
X97374786Y-96897302D01*
X97381245Y-96900545D01*
X97384134Y-96902446D01*
X97384413Y-96902648D01*
X97384713Y-96902815D01*
X97387654Y-96904629D01*
X97393323Y-96909111D01*
X97461321Y-96940819D01*
X97464534Y-96942374D01*
X97531567Y-96976040D01*
X97538594Y-96977705D01*
X97541835Y-96978885D01*
X97542164Y-96979021D01*
X97542498Y-96979116D01*
X97545778Y-96980202D01*
X97552327Y-96983257D01*
X97625856Y-96998438D01*
X97629290Y-96999200D01*
X97702279Y-97016500D01*
X97709500Y-97016500D01*
X97712938Y-97016902D01*
X97713277Y-97016956D01*
X97713627Y-97016972D01*
X97717070Y-97017273D01*
X97724145Y-97018734D01*
X97799130Y-97016552D01*
X97802738Y-97016500D01*
X226254137Y-97016500D01*
X226308981Y-97029288D01*
X226352513Y-97065014D01*
X226375754Y-97116309D01*
X226373912Y-97172594D01*
X226334366Y-97320176D01*
X226334363Y-97320189D01*
X226332965Y-97325409D01*
X226332493Y-97330798D01*
X226332492Y-97330807D01*
X226317643Y-97500545D01*
X226313666Y-97546000D01*
X226314138Y-97551395D01*
X226332492Y-97761192D01*
X226332493Y-97761199D01*
X226332965Y-97766591D01*
X226334364Y-97771812D01*
X226334366Y-97771823D01*
X226388877Y-97975258D01*
X226388879Y-97975265D01*
X226390277Y-97980480D01*
X226392561Y-97985380D01*
X226392563Y-97985383D01*
X226459819Y-98129615D01*
X226483858Y-98181167D01*
X226486965Y-98185604D01*
X226607762Y-98358120D01*
X226607765Y-98358124D01*
X226610868Y-98362555D01*
X226767445Y-98519132D01*
X226771877Y-98522235D01*
X226771879Y-98522237D01*
X226815009Y-98552437D01*
X226948833Y-98646142D01*
X227072094Y-98703619D01*
X227124267Y-98749373D01*
X227143687Y-98815998D01*
X227124268Y-98882624D01*
X227072092Y-98928381D01*
X226953743Y-98983568D01*
X226953738Y-98983570D01*
X226948833Y-98985858D01*
X226944399Y-98988962D01*
X226944395Y-98988965D01*
X226771879Y-99109762D01*
X226771869Y-99109769D01*
X226767445Y-99112868D01*
X226763619Y-99116693D01*
X226763613Y-99116699D01*
X226614699Y-99265613D01*
X226614693Y-99265619D01*
X226610868Y-99269445D01*
X226607769Y-99273869D01*
X226607762Y-99273879D01*
X226486965Y-99446395D01*
X226486962Y-99446399D01*
X226483858Y-99450833D01*
X226481569Y-99455741D01*
X226481566Y-99455747D01*
X226392563Y-99646616D01*
X226392560Y-99646623D01*
X226390277Y-99651520D01*
X226388880Y-99656730D01*
X226388877Y-99656741D01*
X226334366Y-99860176D01*
X226334363Y-99860189D01*
X226332965Y-99865409D01*
X226332493Y-99870798D01*
X226332492Y-99870807D01*
X226318680Y-100028687D01*
X226313666Y-100086000D01*
X226314138Y-100091395D01*
X226332492Y-100301192D01*
X226332493Y-100301199D01*
X226332965Y-100306591D01*
X226334364Y-100311812D01*
X226334366Y-100311823D01*
X226388877Y-100515258D01*
X226388879Y-100515265D01*
X226390277Y-100520480D01*
X226392561Y-100525380D01*
X226392563Y-100525383D01*
X226475065Y-100702311D01*
X226483858Y-100721167D01*
X226486965Y-100725604D01*
X226607762Y-100898120D01*
X226607765Y-100898124D01*
X226610868Y-100902555D01*
X226767445Y-101059132D01*
X226771877Y-101062235D01*
X226771879Y-101062237D01*
X226821667Y-101097099D01*
X226948833Y-101186142D01*
X227072092Y-101243618D01*
X227124268Y-101289375D01*
X227143687Y-101356000D01*
X227124268Y-101422625D01*
X227072092Y-101468382D01*
X226953743Y-101523568D01*
X226953738Y-101523570D01*
X226948833Y-101525858D01*
X226944399Y-101528962D01*
X226944395Y-101528965D01*
X226771879Y-101649762D01*
X226771869Y-101649769D01*
X226767445Y-101652868D01*
X226763619Y-101656693D01*
X226763613Y-101656699D01*
X226614699Y-101805613D01*
X226614693Y-101805619D01*
X226610868Y-101809445D01*
X226607769Y-101813869D01*
X226607762Y-101813879D01*
X226486965Y-101986395D01*
X226486962Y-101986399D01*
X226483858Y-101990833D01*
X226481569Y-101995741D01*
X226481566Y-101995747D01*
X226392563Y-102186616D01*
X226392560Y-102186623D01*
X226390277Y-102191520D01*
X226388880Y-102196730D01*
X226388877Y-102196741D01*
X226334366Y-102400176D01*
X226334363Y-102400189D01*
X226332965Y-102405409D01*
X226332493Y-102410798D01*
X226332492Y-102410807D01*
X226321286Y-102538900D01*
X226313666Y-102626000D01*
X226314138Y-102631395D01*
X226332492Y-102841192D01*
X226332493Y-102841199D01*
X226332965Y-102846591D01*
X226334364Y-102851812D01*
X226334366Y-102851823D01*
X226388877Y-103055258D01*
X226388879Y-103055265D01*
X226390277Y-103060480D01*
X226392561Y-103065380D01*
X226392563Y-103065383D01*
X226454632Y-103198492D01*
X226483858Y-103261167D01*
X226486965Y-103265604D01*
X226607762Y-103438120D01*
X226607765Y-103438124D01*
X226610868Y-103442555D01*
X226767445Y-103599132D01*
X226948833Y-103726142D01*
X227072682Y-103783893D01*
X227124858Y-103829649D01*
X227144278Y-103896274D01*
X227124859Y-103962900D01*
X227072683Y-104008657D01*
X226953992Y-104064004D01*
X226944647Y-104069399D01*
X226894780Y-104104315D01*
X226887347Y-104112426D01*
X226893258Y-104121705D01*
X227572457Y-104800904D01*
X227584000Y-104807568D01*
X227595542Y-104800904D01*
X228274740Y-104121705D01*
X228280651Y-104112427D01*
X228273217Y-104104314D01*
X228223355Y-104069401D01*
X228214005Y-104064003D01*
X228095316Y-104008657D01*
X228043140Y-103962900D01*
X228023721Y-103896274D01*
X228043141Y-103829649D01*
X228095312Y-103783895D01*
X228219167Y-103726142D01*
X228400555Y-103599132D01*
X228557132Y-103442555D01*
X228684142Y-103261167D01*
X228777723Y-103060480D01*
X228835035Y-102846591D01*
X228854334Y-102626000D01*
X228835035Y-102405409D01*
X228777723Y-102191520D01*
X228684142Y-101990833D01*
X228567843Y-101824742D01*
X228560237Y-101813879D01*
X228560235Y-101813877D01*
X228557132Y-101809445D01*
X228400555Y-101652868D01*
X228396124Y-101649765D01*
X228396120Y-101649762D01*
X228223604Y-101528965D01*
X228223605Y-101528965D01*
X228219167Y-101525858D01*
X228095907Y-101468381D01*
X228043732Y-101422625D01*
X228024312Y-101356000D01*
X228043732Y-101289375D01*
X228095908Y-101243618D01*
X228219167Y-101186142D01*
X228400555Y-101059132D01*
X228557132Y-100902555D01*
X228684142Y-100721167D01*
X228777723Y-100520480D01*
X228835035Y-100306591D01*
X228854334Y-100086000D01*
X228835035Y-99865409D01*
X228777723Y-99651520D01*
X228684142Y-99450833D01*
X228557132Y-99269445D01*
X228400555Y-99112868D01*
X228396124Y-99109765D01*
X228396120Y-99109762D01*
X228223604Y-98988965D01*
X228223605Y-98988965D01*
X228219167Y-98985858D01*
X228210470Y-98981802D01*
X228095907Y-98928381D01*
X228043731Y-98882624D01*
X228024312Y-98815998D01*
X228043732Y-98749373D01*
X228095905Y-98703619D01*
X228219167Y-98646142D01*
X228400555Y-98519132D01*
X228557132Y-98362555D01*
X228684142Y-98181167D01*
X228777723Y-97980480D01*
X228835035Y-97766591D01*
X228854334Y-97546000D01*
X228846148Y-97452434D01*
X228855533Y-97393177D01*
X228891640Y-97345262D01*
X228946016Y-97319906D01*
X229005930Y-97323046D01*
X229057355Y-97353946D01*
X229264027Y-97560618D01*
X229462181Y-97758772D01*
X229489061Y-97799000D01*
X229498500Y-97846453D01*
X229498500Y-102792225D01*
X229497978Y-102803280D01*
X229496327Y-102810667D01*
X229496571Y-102818453D01*
X229496571Y-102818461D01*
X229498439Y-102877873D01*
X229498500Y-102881768D01*
X229498500Y-102909350D01*
X229498988Y-102913219D01*
X229498989Y-102913225D01*
X229499004Y-102913343D01*
X229499918Y-102924966D01*
X229501045Y-102960830D01*
X229501046Y-102960837D01*
X229501291Y-102968627D01*
X229503467Y-102976119D01*
X229503468Y-102976121D01*
X229506879Y-102987862D01*
X229510825Y-103006915D01*
X229513336Y-103026792D01*
X229516206Y-103034042D01*
X229516208Y-103034048D01*
X229529414Y-103067404D01*
X229533197Y-103078451D01*
X229545382Y-103120390D01*
X229549353Y-103127105D01*
X229549354Y-103127107D01*
X229555581Y-103137637D01*
X229564136Y-103155099D01*
X229568642Y-103166480D01*
X229568643Y-103166483D01*
X229571514Y-103173732D01*
X229586016Y-103193692D01*
X229597181Y-103209060D01*
X229603593Y-103218822D01*
X229621856Y-103249702D01*
X229621859Y-103249707D01*
X229625830Y-103256420D01*
X229631345Y-103261935D01*
X229639990Y-103270580D01*
X229652626Y-103285374D01*
X229659819Y-103295275D01*
X229659823Y-103295279D01*
X229664406Y-103301587D01*
X229670415Y-103306558D01*
X229670416Y-103306559D01*
X229698058Y-103329426D01*
X229706699Y-103337289D01*
X231150707Y-104781298D01*
X231158159Y-104789487D01*
X231162214Y-104795877D01*
X231211223Y-104841900D01*
X231214019Y-104844610D01*
X231233529Y-104864120D01*
X231236709Y-104866587D01*
X231245571Y-104874155D01*
X231258880Y-104886654D01*
X231271732Y-104898723D01*
X231271734Y-104898724D01*
X231277418Y-104904062D01*
X231284251Y-104907818D01*
X231284252Y-104907819D01*
X231294973Y-104913713D01*
X231311234Y-104924394D01*
X231327064Y-104936673D01*
X231367155Y-104954021D01*
X231377635Y-104959155D01*
X231415908Y-104980197D01*
X231435316Y-104985180D01*
X231453719Y-104991481D01*
X231464944Y-104996339D01*
X231464946Y-104996339D01*
X231472104Y-104999437D01*
X231515258Y-105006271D01*
X231526644Y-105008629D01*
X231568981Y-105019500D01*
X231589017Y-105019500D01*
X231608415Y-105021027D01*
X231620486Y-105022939D01*
X231620487Y-105022939D01*
X231628196Y-105024160D01*
X231666276Y-105020560D01*
X231671676Y-105020050D01*
X231683345Y-105019500D01*
X244778225Y-105019500D01*
X244789280Y-105020021D01*
X244796667Y-105021673D01*
X244863872Y-105019561D01*
X244867768Y-105019500D01*
X244891448Y-105019500D01*
X244895350Y-105019500D01*
X244899313Y-105018999D01*
X244910963Y-105018080D01*
X244954627Y-105016709D01*
X244973861Y-105011119D01*
X244992917Y-105007174D01*
X245012792Y-105004664D01*
X245053395Y-104988587D01*
X245064450Y-104984802D01*
X245106390Y-104972618D01*
X245123629Y-104962422D01*
X245141103Y-104953862D01*
X245152474Y-104949360D01*
X245152476Y-104949358D01*
X245159732Y-104946486D01*
X245195069Y-104920811D01*
X245204824Y-104914403D01*
X245242420Y-104892170D01*
X245256584Y-104878005D01*
X245271379Y-104865368D01*
X245287587Y-104853594D01*
X245315428Y-104819938D01*
X245323279Y-104811309D01*
X249386771Y-100747819D01*
X249427000Y-100720939D01*
X249474453Y-100711500D01*
X251812538Y-100711500D01*
X251869795Y-100725511D01*
X251914113Y-100764376D01*
X252007762Y-100898120D01*
X252007765Y-100898124D01*
X252010868Y-100902555D01*
X252167445Y-101059132D01*
X252171877Y-101062235D01*
X252171879Y-101062237D01*
X252221667Y-101097099D01*
X252348833Y-101186142D01*
X252472092Y-101243618D01*
X252524268Y-101289375D01*
X252543687Y-101356000D01*
X252524268Y-101422625D01*
X252472092Y-101468382D01*
X252353743Y-101523568D01*
X252353738Y-101523570D01*
X252348833Y-101525858D01*
X252344399Y-101528962D01*
X252344395Y-101528965D01*
X252171879Y-101649762D01*
X252171869Y-101649769D01*
X252167445Y-101652868D01*
X252163619Y-101656693D01*
X252163613Y-101656699D01*
X252014699Y-101805613D01*
X252014693Y-101805619D01*
X252010868Y-101809445D01*
X252007769Y-101813869D01*
X252007762Y-101813879D01*
X251886965Y-101986395D01*
X251886962Y-101986399D01*
X251883858Y-101990833D01*
X251881569Y-101995741D01*
X251881566Y-101995747D01*
X251792563Y-102186616D01*
X251792560Y-102186623D01*
X251790277Y-102191520D01*
X251788880Y-102196730D01*
X251788877Y-102196741D01*
X251734366Y-102400176D01*
X251734363Y-102400189D01*
X251732965Y-102405409D01*
X251732493Y-102410798D01*
X251732492Y-102410807D01*
X251721286Y-102538900D01*
X251713666Y-102626000D01*
X251714138Y-102631395D01*
X251732492Y-102841192D01*
X251732493Y-102841199D01*
X251732965Y-102846591D01*
X251734364Y-102851812D01*
X251734366Y-102851823D01*
X251788877Y-103055258D01*
X251788879Y-103055265D01*
X251790277Y-103060480D01*
X251792561Y-103065380D01*
X251792563Y-103065383D01*
X251854632Y-103198492D01*
X251883858Y-103261167D01*
X251886965Y-103265604D01*
X252007762Y-103438120D01*
X252007765Y-103438124D01*
X252010868Y-103442555D01*
X252167445Y-103599132D01*
X252348833Y-103726142D01*
X252472094Y-103783619D01*
X252524267Y-103829373D01*
X252543687Y-103895998D01*
X252524268Y-103962624D01*
X252472092Y-104008381D01*
X252353743Y-104063568D01*
X252353738Y-104063570D01*
X252348833Y-104065858D01*
X252344399Y-104068962D01*
X252344395Y-104068965D01*
X252171879Y-104189762D01*
X252171869Y-104189769D01*
X252167445Y-104192868D01*
X252163619Y-104196693D01*
X252163613Y-104196699D01*
X252014699Y-104345613D01*
X252014693Y-104345619D01*
X252010868Y-104349445D01*
X252007769Y-104353869D01*
X252007762Y-104353879D01*
X251886965Y-104526395D01*
X251886962Y-104526399D01*
X251883858Y-104530833D01*
X251881569Y-104535741D01*
X251881566Y-104535747D01*
X251792563Y-104726616D01*
X251792560Y-104726623D01*
X251790277Y-104731520D01*
X251788880Y-104736730D01*
X251788877Y-104736741D01*
X251734366Y-104940176D01*
X251734363Y-104940189D01*
X251732965Y-104945409D01*
X251732493Y-104950798D01*
X251732492Y-104950807D01*
X251726075Y-105024160D01*
X251713666Y-105166000D01*
X251714138Y-105171395D01*
X251732492Y-105381192D01*
X251732493Y-105381199D01*
X251732965Y-105386591D01*
X251734364Y-105391812D01*
X251734366Y-105391823D01*
X251788877Y-105595258D01*
X251788879Y-105595265D01*
X251790277Y-105600480D01*
X251883858Y-105801167D01*
X251886965Y-105805604D01*
X252007762Y-105978120D01*
X252007765Y-105978124D01*
X252010868Y-105982555D01*
X252167445Y-106139132D01*
X252348833Y-106266142D01*
X252471500Y-106323342D01*
X252472092Y-106323618D01*
X252524268Y-106369375D01*
X252543687Y-106436000D01*
X252524268Y-106502625D01*
X252472092Y-106548382D01*
X252353743Y-106603568D01*
X252353738Y-106603570D01*
X252348833Y-106605858D01*
X252344399Y-106608962D01*
X252344395Y-106608965D01*
X252171879Y-106729762D01*
X252171869Y-106729769D01*
X252167445Y-106732868D01*
X252163619Y-106736693D01*
X252163613Y-106736699D01*
X252014699Y-106885613D01*
X252014693Y-106885619D01*
X252010868Y-106889445D01*
X252007769Y-106893869D01*
X252007762Y-106893879D01*
X251886965Y-107066395D01*
X251886962Y-107066399D01*
X251883858Y-107070833D01*
X251881569Y-107075741D01*
X251881566Y-107075747D01*
X251792563Y-107266616D01*
X251792560Y-107266623D01*
X251790277Y-107271520D01*
X251788880Y-107276730D01*
X251788877Y-107276741D01*
X251734366Y-107480176D01*
X251734363Y-107480189D01*
X251732965Y-107485409D01*
X251732493Y-107490798D01*
X251732492Y-107490807D01*
X251714232Y-107699524D01*
X251713666Y-107706000D01*
X251714138Y-107711395D01*
X251732492Y-107921192D01*
X251732493Y-107921199D01*
X251732965Y-107926591D01*
X251734364Y-107931812D01*
X251734366Y-107931823D01*
X251788877Y-108135258D01*
X251788879Y-108135265D01*
X251790277Y-108140480D01*
X251883858Y-108341167D01*
X251886965Y-108345604D01*
X252007762Y-108518120D01*
X252007765Y-108518124D01*
X252010868Y-108522555D01*
X252167445Y-108679132D01*
X252348833Y-108806142D01*
X252472094Y-108863619D01*
X252524267Y-108909373D01*
X252543687Y-108975998D01*
X252524268Y-109042624D01*
X252472092Y-109088381D01*
X252353743Y-109143568D01*
X252353738Y-109143570D01*
X252348833Y-109145858D01*
X252344399Y-109148962D01*
X252344395Y-109148965D01*
X252171879Y-109269762D01*
X252171869Y-109269769D01*
X252167445Y-109272868D01*
X252163619Y-109276693D01*
X252163613Y-109276699D01*
X252014699Y-109425613D01*
X252014693Y-109425619D01*
X252010868Y-109429445D01*
X252007769Y-109433869D01*
X252007762Y-109433879D01*
X251886965Y-109606395D01*
X251886962Y-109606399D01*
X251883858Y-109610833D01*
X251881569Y-109615741D01*
X251881566Y-109615747D01*
X251792563Y-109806616D01*
X251792560Y-109806623D01*
X251790277Y-109811520D01*
X251788880Y-109816730D01*
X251788877Y-109816741D01*
X251734366Y-110020176D01*
X251734363Y-110020189D01*
X251732965Y-110025409D01*
X251732493Y-110030798D01*
X251732492Y-110030807D01*
X251719327Y-110181297D01*
X251713666Y-110246000D01*
X251714138Y-110251395D01*
X251732492Y-110461192D01*
X251732493Y-110461199D01*
X251732965Y-110466591D01*
X251734364Y-110471812D01*
X251734366Y-110471823D01*
X251788877Y-110675258D01*
X251788879Y-110675265D01*
X251790277Y-110680480D01*
X251792561Y-110685380D01*
X251792563Y-110685383D01*
X251856958Y-110823480D01*
X251883858Y-110881167D01*
X251886965Y-110885604D01*
X252007762Y-111058120D01*
X252007765Y-111058124D01*
X252010868Y-111062555D01*
X252167445Y-111219132D01*
X252171877Y-111222235D01*
X252171879Y-111222237D01*
X252221002Y-111256633D01*
X252348833Y-111346142D01*
X252472092Y-111403618D01*
X252524268Y-111449375D01*
X252543687Y-111516000D01*
X252524268Y-111582625D01*
X252472092Y-111628382D01*
X252353743Y-111683568D01*
X252353738Y-111683570D01*
X252348833Y-111685858D01*
X252344399Y-111688962D01*
X252344395Y-111688965D01*
X252171879Y-111809762D01*
X252171869Y-111809769D01*
X252167445Y-111812868D01*
X252163619Y-111816693D01*
X252163613Y-111816699D01*
X252014699Y-111965613D01*
X252014693Y-111965619D01*
X252010868Y-111969445D01*
X252007769Y-111973869D01*
X252007762Y-111973879D01*
X251886965Y-112146395D01*
X251886962Y-112146399D01*
X251883858Y-112150833D01*
X251881569Y-112155741D01*
X251881566Y-112155747D01*
X251792563Y-112346616D01*
X251792560Y-112346623D01*
X251790277Y-112351520D01*
X251788880Y-112356730D01*
X251788877Y-112356741D01*
X251734366Y-112560176D01*
X251734363Y-112560189D01*
X251732965Y-112565409D01*
X251732493Y-112570798D01*
X251732492Y-112570807D01*
X251723290Y-112675992D01*
X251713666Y-112786000D01*
X251714138Y-112791395D01*
X251732492Y-113001192D01*
X251732493Y-113001199D01*
X251732965Y-113006591D01*
X251734364Y-113011812D01*
X251734366Y-113011823D01*
X251788877Y-113215258D01*
X251788879Y-113215265D01*
X251790277Y-113220480D01*
X251792561Y-113225380D01*
X251792563Y-113225383D01*
X251881566Y-113416252D01*
X251883858Y-113421167D01*
X251886965Y-113425604D01*
X252007762Y-113598120D01*
X252007765Y-113598124D01*
X252010868Y-113602555D01*
X252167445Y-113759132D01*
X252171877Y-113762235D01*
X252171879Y-113762237D01*
X252216166Y-113793247D01*
X252348833Y-113886142D01*
X252472094Y-113943619D01*
X252524267Y-113989373D01*
X252543687Y-114055998D01*
X252524268Y-114122624D01*
X252472092Y-114168381D01*
X252353743Y-114223568D01*
X252353738Y-114223570D01*
X252348833Y-114225858D01*
X252344399Y-114228962D01*
X252344395Y-114228965D01*
X252171879Y-114349762D01*
X252171869Y-114349769D01*
X252167445Y-114352868D01*
X252163619Y-114356693D01*
X252163613Y-114356699D01*
X252014699Y-114505613D01*
X252014693Y-114505619D01*
X252010868Y-114509445D01*
X252007769Y-114513869D01*
X252007762Y-114513879D01*
X251886965Y-114686395D01*
X251886962Y-114686399D01*
X251883858Y-114690833D01*
X251881569Y-114695741D01*
X251881566Y-114695747D01*
X251792563Y-114886616D01*
X251792560Y-114886623D01*
X251790277Y-114891520D01*
X251788880Y-114896730D01*
X251788877Y-114896741D01*
X251734366Y-115100176D01*
X251734363Y-115100189D01*
X251732965Y-115105409D01*
X251732493Y-115110798D01*
X251732492Y-115110807D01*
X251715895Y-115300527D01*
X251713666Y-115326000D01*
X251714138Y-115331395D01*
X251732492Y-115541192D01*
X251732493Y-115541199D01*
X251732965Y-115546591D01*
X251734364Y-115551812D01*
X251734366Y-115551823D01*
X251788877Y-115755258D01*
X251788879Y-115755265D01*
X251790277Y-115760480D01*
X251792561Y-115765380D01*
X251792563Y-115765383D01*
X251881566Y-115956252D01*
X251883858Y-115961167D01*
X251886965Y-115965604D01*
X252007762Y-116138120D01*
X252007765Y-116138124D01*
X252010868Y-116142555D01*
X252167445Y-116299132D01*
X252171877Y-116302235D01*
X252171879Y-116302237D01*
X252227651Y-116341289D01*
X252348833Y-116426142D01*
X252437278Y-116467384D01*
X252472092Y-116483618D01*
X252524268Y-116529375D01*
X252543687Y-116596000D01*
X252524268Y-116662625D01*
X252472092Y-116708382D01*
X252353743Y-116763568D01*
X252353738Y-116763570D01*
X252348833Y-116765858D01*
X252344399Y-116768962D01*
X252344395Y-116768965D01*
X252171879Y-116889762D01*
X252171869Y-116889769D01*
X252167445Y-116892868D01*
X252163619Y-116896693D01*
X252163613Y-116896699D01*
X252014699Y-117045613D01*
X252014693Y-117045619D01*
X252010868Y-117049445D01*
X252007769Y-117053869D01*
X252007762Y-117053879D01*
X251886965Y-117226395D01*
X251886962Y-117226399D01*
X251883858Y-117230833D01*
X251881569Y-117235741D01*
X251881566Y-117235747D01*
X251792563Y-117426616D01*
X251792560Y-117426623D01*
X251790277Y-117431520D01*
X251788880Y-117436730D01*
X251788877Y-117436741D01*
X251734366Y-117640176D01*
X251734363Y-117640189D01*
X251732965Y-117645409D01*
X251732493Y-117650798D01*
X251732492Y-117650807D01*
X251715508Y-117844948D01*
X251713666Y-117866000D01*
X251714138Y-117871395D01*
X251732492Y-118081192D01*
X251732493Y-118081199D01*
X251732965Y-118086591D01*
X251734364Y-118091812D01*
X251734366Y-118091823D01*
X251788877Y-118295258D01*
X251788879Y-118295265D01*
X251790277Y-118300480D01*
X251792561Y-118305380D01*
X251792563Y-118305383D01*
X251850266Y-118429129D01*
X251883858Y-118501167D01*
X251886965Y-118505604D01*
X252007762Y-118678120D01*
X252007765Y-118678124D01*
X252010868Y-118682555D01*
X252167445Y-118839132D01*
X252171877Y-118842235D01*
X252171879Y-118842237D01*
X252271404Y-118911925D01*
X252311730Y-118959142D01*
X252324110Y-119019990D01*
X252305438Y-119079210D01*
X252260396Y-119121953D01*
X252200280Y-119137500D01*
X245284429Y-119137500D01*
X245236976Y-119128061D01*
X245196748Y-119101181D01*
X243586780Y-117491213D01*
X243554910Y-117436449D01*
X243554256Y-117373094D01*
X243572508Y-117301021D01*
X243593043Y-117053200D01*
X243572508Y-116805379D01*
X243511463Y-116564319D01*
X243411573Y-116336593D01*
X243407592Y-116330500D01*
X243313953Y-116187174D01*
X243275564Y-116128415D01*
X243248649Y-116099177D01*
X243110615Y-115949232D01*
X243110611Y-115949229D01*
X243107144Y-115945462D01*
X242949488Y-115822753D01*
X242914959Y-115795878D01*
X242914957Y-115795876D01*
X242910909Y-115792726D01*
X242906397Y-115790284D01*
X242696716Y-115676810D01*
X242696710Y-115676807D01*
X242692210Y-115674372D01*
X242687369Y-115672710D01*
X242687362Y-115672707D01*
X242461865Y-115595294D01*
X242461861Y-115595293D01*
X242457014Y-115593629D01*
X242448168Y-115592152D01*
X242216798Y-115553544D01*
X242216787Y-115553543D01*
X242211735Y-115552700D01*
X241963065Y-115552700D01*
X241958013Y-115553543D01*
X241958001Y-115553544D01*
X241722843Y-115592785D01*
X241722841Y-115592785D01*
X241717786Y-115593629D01*
X241712941Y-115595292D01*
X241712934Y-115595294D01*
X241487437Y-115672707D01*
X241487426Y-115672711D01*
X241482590Y-115674372D01*
X241478093Y-115676805D01*
X241478083Y-115676810D01*
X241268402Y-115790284D01*
X241268395Y-115790288D01*
X241263891Y-115792726D01*
X241259848Y-115795872D01*
X241259840Y-115795878D01*
X241071704Y-115942311D01*
X241067656Y-115945462D01*
X241064193Y-115949223D01*
X241064184Y-115949232D01*
X240902711Y-116124639D01*
X240902705Y-116124646D01*
X240899236Y-116128415D01*
X240896431Y-116132706D01*
X240896428Y-116132712D01*
X240766031Y-116332299D01*
X240766024Y-116332311D01*
X240763227Y-116336593D01*
X240761172Y-116341277D01*
X240761166Y-116341289D01*
X240674205Y-116539542D01*
X240663337Y-116564319D01*
X240662079Y-116569284D01*
X240662078Y-116569289D01*
X240603551Y-116800404D01*
X240603549Y-116800413D01*
X240602292Y-116805379D01*
X240601868Y-116810488D01*
X240601867Y-116810498D01*
X240587344Y-116985771D01*
X240581757Y-117053200D01*
X240582181Y-117058317D01*
X240601867Y-117295901D01*
X240601868Y-117295909D01*
X240602292Y-117301021D01*
X240603549Y-117305988D01*
X240603551Y-117305995D01*
X240636587Y-117436449D01*
X240663337Y-117542081D01*
X240665397Y-117546777D01*
X240761166Y-117765110D01*
X240761169Y-117765116D01*
X240763227Y-117769807D01*
X240766027Y-117774093D01*
X240766031Y-117774100D01*
X240863792Y-117923734D01*
X240899236Y-117977985D01*
X240902710Y-117981759D01*
X240902711Y-117981760D01*
X241064184Y-118157167D01*
X241064187Y-118157170D01*
X241067656Y-118160938D01*
X241263891Y-118313674D01*
X241482590Y-118432028D01*
X241717786Y-118512771D01*
X241963065Y-118553700D01*
X242206601Y-118553700D01*
X242211735Y-118553700D01*
X242418558Y-118519188D01*
X242476797Y-118523409D01*
X242526648Y-118553816D01*
X244346467Y-120373634D01*
X244358249Y-120387267D01*
X244368277Y-120400738D01*
X244368281Y-120400742D01*
X244372590Y-120406530D01*
X244382611Y-120414939D01*
X244401169Y-120430511D01*
X244436434Y-120479049D01*
X244444784Y-120538462D01*
X244424263Y-120594840D01*
X244379677Y-120634986D01*
X244321463Y-120649500D01*
X215951569Y-120649500D01*
X215904116Y-120640061D01*
X215863888Y-120613181D01*
X213116708Y-117866000D01*
X226313666Y-117866000D01*
X226314138Y-117871395D01*
X226332492Y-118081192D01*
X226332493Y-118081199D01*
X226332965Y-118086591D01*
X226334364Y-118091812D01*
X226334366Y-118091823D01*
X226388877Y-118295258D01*
X226388879Y-118295265D01*
X226390277Y-118300480D01*
X226392561Y-118305380D01*
X226392563Y-118305383D01*
X226450266Y-118429129D01*
X226483858Y-118501167D01*
X226486965Y-118505604D01*
X226607762Y-118678120D01*
X226607765Y-118678124D01*
X226610868Y-118682555D01*
X226767445Y-118839132D01*
X226948833Y-118966142D01*
X227149520Y-119059723D01*
X227154740Y-119061121D01*
X227154741Y-119061122D01*
X227358176Y-119115633D01*
X227358178Y-119115633D01*
X227363409Y-119117035D01*
X227584000Y-119136334D01*
X227804591Y-119117035D01*
X228018480Y-119059723D01*
X228219167Y-118966142D01*
X228400555Y-118839132D01*
X228557132Y-118682555D01*
X228684142Y-118501167D01*
X228777723Y-118300480D01*
X228784162Y-118276448D01*
X232079149Y-118276448D01*
X232087255Y-118287639D01*
X232116117Y-118310103D01*
X232124679Y-118315696D01*
X232334285Y-118429129D01*
X232343639Y-118433232D01*
X232569056Y-118510617D01*
X232578968Y-118513128D01*
X232814043Y-118552355D01*
X232824239Y-118553200D01*
X233062561Y-118553200D01*
X233072756Y-118552355D01*
X233307831Y-118513128D01*
X233317743Y-118510617D01*
X233543160Y-118433232D01*
X233552514Y-118429129D01*
X233762123Y-118315695D01*
X233770681Y-118310103D01*
X233799546Y-118287637D01*
X233807650Y-118276450D01*
X233800989Y-118264342D01*
X232954942Y-117418295D01*
X232943400Y-117411631D01*
X232931857Y-117418295D01*
X232085808Y-118264343D01*
X232079149Y-118276448D01*
X228784162Y-118276448D01*
X228835035Y-118086591D01*
X228854334Y-117866000D01*
X228835035Y-117645409D01*
X228821659Y-117595491D01*
X228779122Y-117436741D01*
X228779121Y-117436740D01*
X228777723Y-117431520D01*
X228684142Y-117230833D01*
X228567843Y-117064742D01*
X228563344Y-117058317D01*
X231438683Y-117058317D01*
X231458362Y-117295818D01*
X231460046Y-117305912D01*
X231518553Y-117536947D01*
X231521872Y-117546614D01*
X231617608Y-117764873D01*
X231622470Y-117773856D01*
X231712399Y-117911504D01*
X231720363Y-117919224D01*
X231729745Y-117913300D01*
X232578304Y-117064742D01*
X232584968Y-117053200D01*
X233301831Y-117053200D01*
X233308495Y-117064742D01*
X234157053Y-117913300D01*
X234166434Y-117919224D01*
X234174402Y-117911499D01*
X234264324Y-117773864D01*
X234269192Y-117764869D01*
X234364927Y-117546614D01*
X234368246Y-117536947D01*
X234426753Y-117305912D01*
X234428437Y-117295818D01*
X234448117Y-117058317D01*
X234448117Y-117048083D01*
X234428437Y-116810581D01*
X234426753Y-116800487D01*
X234368246Y-116569452D01*
X234364927Y-116559785D01*
X234269192Y-116341530D01*
X234264324Y-116332535D01*
X234174402Y-116194899D01*
X234166434Y-116187174D01*
X234157053Y-116193098D01*
X233308495Y-117041657D01*
X233301831Y-117053200D01*
X232584968Y-117053200D01*
X232578304Y-117041657D01*
X231729745Y-116193098D01*
X231720364Y-116187174D01*
X231712397Y-116194899D01*
X231622472Y-116332538D01*
X231617607Y-116341528D01*
X231521872Y-116559785D01*
X231518553Y-116569452D01*
X231460046Y-116800487D01*
X231458362Y-116810581D01*
X231438683Y-117048083D01*
X231438683Y-117058317D01*
X228563344Y-117058317D01*
X228560237Y-117053879D01*
X228560235Y-117053877D01*
X228557132Y-117049445D01*
X228400555Y-116892868D01*
X228396124Y-116889765D01*
X228396120Y-116889762D01*
X228236205Y-116777788D01*
X228219167Y-116765858D01*
X228095907Y-116708381D01*
X228043732Y-116662625D01*
X228024312Y-116596000D01*
X228043732Y-116529375D01*
X228095908Y-116483618D01*
X228130722Y-116467384D01*
X228219167Y-116426142D01*
X228400555Y-116299132D01*
X228557132Y-116142555D01*
X228684142Y-115961167D01*
X228745329Y-115829949D01*
X232079148Y-115829949D01*
X232085808Y-115842055D01*
X232931857Y-116688104D01*
X232943400Y-116694768D01*
X232954942Y-116688104D01*
X233800990Y-115842055D01*
X233807650Y-115829949D01*
X233799543Y-115818759D01*
X233770686Y-115796299D01*
X233762119Y-115790703D01*
X233552514Y-115677270D01*
X233543160Y-115673167D01*
X233317743Y-115595782D01*
X233307831Y-115593271D01*
X233072756Y-115554044D01*
X233062561Y-115553200D01*
X232824239Y-115553200D01*
X232814043Y-115554044D01*
X232578968Y-115593271D01*
X232569056Y-115595782D01*
X232343639Y-115673167D01*
X232334285Y-115677270D01*
X232124676Y-115790704D01*
X232116117Y-115796296D01*
X232087254Y-115818760D01*
X232079148Y-115829949D01*
X228745329Y-115829949D01*
X228777723Y-115760480D01*
X228835035Y-115546591D01*
X228854334Y-115326000D01*
X228835035Y-115105409D01*
X228777723Y-114891520D01*
X228684142Y-114690833D01*
X228557132Y-114509445D01*
X228400555Y-114352868D01*
X228396124Y-114349765D01*
X228396120Y-114349762D01*
X228223604Y-114228965D01*
X228223605Y-114228965D01*
X228219167Y-114225858D01*
X228210470Y-114221802D01*
X228095907Y-114168381D01*
X228043731Y-114122624D01*
X228024312Y-114055998D01*
X228043732Y-113989373D01*
X228095905Y-113943619D01*
X228219167Y-113886142D01*
X228400555Y-113759132D01*
X228557132Y-113602555D01*
X228684142Y-113421167D01*
X228777723Y-113220480D01*
X228835035Y-113006591D01*
X228854334Y-112786000D01*
X228835035Y-112565409D01*
X228812391Y-112480903D01*
X228779122Y-112356741D01*
X228779121Y-112356740D01*
X228777723Y-112351520D01*
X228684142Y-112150833D01*
X228563016Y-111977848D01*
X228560237Y-111973879D01*
X228560235Y-111973877D01*
X228557132Y-111969445D01*
X228400555Y-111812868D01*
X228396124Y-111809765D01*
X228396120Y-111809762D01*
X228223604Y-111688965D01*
X228223605Y-111688965D01*
X228219167Y-111685858D01*
X228095907Y-111628381D01*
X228043732Y-111582625D01*
X228024312Y-111516000D01*
X228043732Y-111449375D01*
X228095908Y-111403618D01*
X228219167Y-111346142D01*
X228400555Y-111219132D01*
X228557132Y-111062555D01*
X228684142Y-110881167D01*
X228777723Y-110680480D01*
X228835035Y-110466591D01*
X228854334Y-110246000D01*
X228835035Y-110025409D01*
X228817062Y-109958335D01*
X228779122Y-109816741D01*
X228779121Y-109816740D01*
X228777723Y-109811520D01*
X228684142Y-109610833D01*
X228557132Y-109429445D01*
X228400555Y-109272868D01*
X228396124Y-109269765D01*
X228396120Y-109269762D01*
X228223604Y-109148965D01*
X228223605Y-109148965D01*
X228219167Y-109145858D01*
X228210470Y-109141802D01*
X228095907Y-109088381D01*
X228043731Y-109042624D01*
X228024312Y-108975998D01*
X228043732Y-108909373D01*
X228095905Y-108863619D01*
X228219167Y-108806142D01*
X228400555Y-108679132D01*
X228557132Y-108522555D01*
X228684142Y-108341167D01*
X228777723Y-108140480D01*
X228835035Y-107926591D01*
X228854334Y-107706000D01*
X228835035Y-107485409D01*
X228777723Y-107271520D01*
X228684142Y-107070833D01*
X228557132Y-106889445D01*
X228400555Y-106732868D01*
X228396124Y-106729765D01*
X228396120Y-106729762D01*
X228223604Y-106608965D01*
X228223605Y-106608965D01*
X228219167Y-106605858D01*
X228095315Y-106548105D01*
X228043140Y-106502349D01*
X228023721Y-106435724D01*
X228043141Y-106369099D01*
X228095317Y-106323342D01*
X228214009Y-106267995D01*
X228223345Y-106262605D01*
X228273220Y-106227682D01*
X228280651Y-106219573D01*
X228274737Y-106210290D01*
X227595542Y-105531095D01*
X227584000Y-105524431D01*
X227572457Y-105531095D01*
X226893258Y-106210293D01*
X226887347Y-106219572D01*
X226894780Y-106227683D01*
X226944644Y-106262598D01*
X226953994Y-106267996D01*
X227072683Y-106323342D01*
X227124858Y-106369099D01*
X227144278Y-106435724D01*
X227124859Y-106502349D01*
X227072683Y-106548106D01*
X226953743Y-106603568D01*
X226953738Y-106603570D01*
X226948833Y-106605858D01*
X226944399Y-106608962D01*
X226944395Y-106608965D01*
X226771879Y-106729762D01*
X226771869Y-106729769D01*
X226767445Y-106732868D01*
X226763619Y-106736693D01*
X226763613Y-106736699D01*
X226614699Y-106885613D01*
X226614693Y-106885619D01*
X226610868Y-106889445D01*
X226607769Y-106893869D01*
X226607762Y-106893879D01*
X226486965Y-107066395D01*
X226486962Y-107066399D01*
X226483858Y-107070833D01*
X226481569Y-107075741D01*
X226481566Y-107075747D01*
X226392563Y-107266616D01*
X226392560Y-107266623D01*
X226390277Y-107271520D01*
X226388880Y-107276730D01*
X226388877Y-107276741D01*
X226334366Y-107480176D01*
X226334363Y-107480189D01*
X226332965Y-107485409D01*
X226332493Y-107490798D01*
X226332492Y-107490807D01*
X226314232Y-107699524D01*
X226313666Y-107706000D01*
X226314138Y-107711395D01*
X226332492Y-107921192D01*
X226332493Y-107921199D01*
X226332965Y-107926591D01*
X226334364Y-107931812D01*
X226334366Y-107931823D01*
X226388877Y-108135258D01*
X226388879Y-108135265D01*
X226390277Y-108140480D01*
X226483858Y-108341167D01*
X226486965Y-108345604D01*
X226607762Y-108518120D01*
X226607765Y-108518124D01*
X226610868Y-108522555D01*
X226767445Y-108679132D01*
X226948833Y-108806142D01*
X227072094Y-108863619D01*
X227124267Y-108909373D01*
X227143687Y-108975998D01*
X227124268Y-109042624D01*
X227072092Y-109088381D01*
X226953743Y-109143568D01*
X226953738Y-109143570D01*
X226948833Y-109145858D01*
X226944399Y-109148962D01*
X226944395Y-109148965D01*
X226771879Y-109269762D01*
X226771869Y-109269769D01*
X226767445Y-109272868D01*
X226763619Y-109276693D01*
X226763613Y-109276699D01*
X226614699Y-109425613D01*
X226614693Y-109425619D01*
X226610868Y-109429445D01*
X226607769Y-109433869D01*
X226607762Y-109433879D01*
X226486965Y-109606395D01*
X226486962Y-109606399D01*
X226483858Y-109610833D01*
X226481569Y-109615741D01*
X226481566Y-109615747D01*
X226392563Y-109806616D01*
X226392560Y-109806623D01*
X226390277Y-109811520D01*
X226388880Y-109816730D01*
X226388877Y-109816741D01*
X226334366Y-110020176D01*
X226334363Y-110020189D01*
X226332965Y-110025409D01*
X226332493Y-110030798D01*
X226332492Y-110030807D01*
X226319327Y-110181297D01*
X226313666Y-110246000D01*
X226314138Y-110251395D01*
X226332492Y-110461192D01*
X226332493Y-110461199D01*
X226332965Y-110466591D01*
X226334364Y-110471812D01*
X226334366Y-110471823D01*
X226388877Y-110675258D01*
X226388879Y-110675265D01*
X226390277Y-110680480D01*
X226392561Y-110685380D01*
X226392563Y-110685383D01*
X226456958Y-110823480D01*
X226483858Y-110881167D01*
X226486965Y-110885604D01*
X226607762Y-111058120D01*
X226607765Y-111058124D01*
X226610868Y-111062555D01*
X226767445Y-111219132D01*
X226771877Y-111222235D01*
X226771879Y-111222237D01*
X226821002Y-111256633D01*
X226948833Y-111346142D01*
X227072092Y-111403618D01*
X227124268Y-111449375D01*
X227143687Y-111516000D01*
X227124268Y-111582625D01*
X227072092Y-111628382D01*
X226953743Y-111683568D01*
X226953738Y-111683570D01*
X226948833Y-111685858D01*
X226944399Y-111688962D01*
X226944395Y-111688965D01*
X226771879Y-111809762D01*
X226771869Y-111809769D01*
X226767445Y-111812868D01*
X226763619Y-111816693D01*
X226763613Y-111816699D01*
X226614699Y-111965613D01*
X226614693Y-111965619D01*
X226610868Y-111969445D01*
X226607769Y-111973869D01*
X226607762Y-111973879D01*
X226486965Y-112146395D01*
X226486962Y-112146399D01*
X226483858Y-112150833D01*
X226481569Y-112155741D01*
X226481566Y-112155747D01*
X226392563Y-112346616D01*
X226392560Y-112346623D01*
X226390277Y-112351520D01*
X226388880Y-112356730D01*
X226388877Y-112356741D01*
X226334366Y-112560176D01*
X226334363Y-112560189D01*
X226332965Y-112565409D01*
X226332493Y-112570798D01*
X226332492Y-112570807D01*
X226323290Y-112675992D01*
X226313666Y-112786000D01*
X226314138Y-112791395D01*
X226332492Y-113001192D01*
X226332493Y-113001199D01*
X226332965Y-113006591D01*
X226334364Y-113011812D01*
X226334366Y-113011823D01*
X226388877Y-113215258D01*
X226388879Y-113215265D01*
X226390277Y-113220480D01*
X226392561Y-113225380D01*
X226392563Y-113225383D01*
X226481566Y-113416252D01*
X226483858Y-113421167D01*
X226486965Y-113425604D01*
X226607762Y-113598120D01*
X226607765Y-113598124D01*
X226610868Y-113602555D01*
X226767445Y-113759132D01*
X226771877Y-113762235D01*
X226771879Y-113762237D01*
X226816166Y-113793247D01*
X226948833Y-113886142D01*
X227072094Y-113943619D01*
X227124267Y-113989373D01*
X227143687Y-114055998D01*
X227124268Y-114122624D01*
X227072092Y-114168381D01*
X226953743Y-114223568D01*
X226953738Y-114223570D01*
X226948833Y-114225858D01*
X226944399Y-114228962D01*
X226944395Y-114228965D01*
X226771879Y-114349762D01*
X226771869Y-114349769D01*
X226767445Y-114352868D01*
X226763619Y-114356693D01*
X226763613Y-114356699D01*
X226614699Y-114505613D01*
X226614693Y-114505619D01*
X226610868Y-114509445D01*
X226607769Y-114513869D01*
X226607762Y-114513879D01*
X226486965Y-114686395D01*
X226486962Y-114686399D01*
X226483858Y-114690833D01*
X226481569Y-114695741D01*
X226481566Y-114695747D01*
X226392563Y-114886616D01*
X226392560Y-114886623D01*
X226390277Y-114891520D01*
X226388880Y-114896730D01*
X226388877Y-114896741D01*
X226334366Y-115100176D01*
X226334363Y-115100189D01*
X226332965Y-115105409D01*
X226332493Y-115110798D01*
X226332492Y-115110807D01*
X226315895Y-115300527D01*
X226313666Y-115326000D01*
X226314138Y-115331395D01*
X226332492Y-115541192D01*
X226332493Y-115541199D01*
X226332965Y-115546591D01*
X226334364Y-115551812D01*
X226334366Y-115551823D01*
X226388877Y-115755258D01*
X226388879Y-115755265D01*
X226390277Y-115760480D01*
X226392561Y-115765380D01*
X226392563Y-115765383D01*
X226481566Y-115956252D01*
X226483858Y-115961167D01*
X226486965Y-115965604D01*
X226607762Y-116138120D01*
X226607765Y-116138124D01*
X226610868Y-116142555D01*
X226767445Y-116299132D01*
X226771877Y-116302235D01*
X226771879Y-116302237D01*
X226827651Y-116341289D01*
X226948833Y-116426142D01*
X227037278Y-116467384D01*
X227072092Y-116483618D01*
X227124268Y-116529375D01*
X227143687Y-116596000D01*
X227124268Y-116662625D01*
X227072092Y-116708382D01*
X226953743Y-116763568D01*
X226953738Y-116763570D01*
X226948833Y-116765858D01*
X226944399Y-116768962D01*
X226944395Y-116768965D01*
X226771879Y-116889762D01*
X226771869Y-116889769D01*
X226767445Y-116892868D01*
X226763619Y-116896693D01*
X226763613Y-116896699D01*
X226614699Y-117045613D01*
X226614693Y-117045619D01*
X226610868Y-117049445D01*
X226607769Y-117053869D01*
X226607762Y-117053879D01*
X226486965Y-117226395D01*
X226486962Y-117226399D01*
X226483858Y-117230833D01*
X226481569Y-117235741D01*
X226481566Y-117235747D01*
X226392563Y-117426616D01*
X226392560Y-117426623D01*
X226390277Y-117431520D01*
X226388880Y-117436730D01*
X226388877Y-117436741D01*
X226334366Y-117640176D01*
X226334363Y-117640189D01*
X226332965Y-117645409D01*
X226332493Y-117650798D01*
X226332492Y-117650807D01*
X226315508Y-117844948D01*
X226313666Y-117866000D01*
X213116708Y-117866000D01*
X212099010Y-116848302D01*
X212099009Y-116848301D01*
X212090423Y-116839715D01*
X212090383Y-116839617D01*
X212090284Y-116839576D01*
X212090000Y-116839458D01*
X212089899Y-116839500D01*
X77254431Y-116839500D01*
X77245583Y-116839184D01*
X77180834Y-116834552D01*
X77179953Y-116834486D01*
X77033964Y-116822996D01*
X77017336Y-116820544D01*
X76926837Y-116800858D01*
X76924246Y-116800266D01*
X76810337Y-116772918D01*
X76795952Y-116768526D01*
X76703909Y-116734196D01*
X76699789Y-116732575D01*
X76596759Y-116689898D01*
X76584787Y-116684170D01*
X76496657Y-116636049D01*
X76491292Y-116632943D01*
X76398004Y-116575776D01*
X76388498Y-116569326D01*
X76307334Y-116508567D01*
X76301134Y-116503607D01*
X76218544Y-116433068D01*
X76211395Y-116426459D01*
X76139539Y-116354603D01*
X76132930Y-116347454D01*
X76062380Y-116264850D01*
X76057438Y-116258673D01*
X75996666Y-116177492D01*
X75990230Y-116168006D01*
X75933040Y-116074681D01*
X75929962Y-116069364D01*
X75905279Y-116024160D01*
X75881828Y-115981211D01*
X75876100Y-115969239D01*
X75833423Y-115866209D01*
X75831802Y-115862089D01*
X75827337Y-115850119D01*
X75805177Y-115790704D01*
X75797472Y-115770046D01*
X75793080Y-115755661D01*
X75792983Y-115755258D01*
X75765713Y-115641671D01*
X75765140Y-115639161D01*
X75745454Y-115548662D01*
X75743002Y-115532034D01*
X75731511Y-115386026D01*
X75731445Y-115385143D01*
X75726816Y-115320418D01*
X75726500Y-115311572D01*
X75726500Y-113030000D01*
X80444652Y-113030000D01*
X80444834Y-113033357D01*
X80463845Y-113384007D01*
X80463846Y-113384018D01*
X80464028Y-113387371D01*
X80464572Y-113390692D01*
X80464573Y-113390697D01*
X80521384Y-113737233D01*
X80521387Y-113737248D01*
X80521929Y-113740552D01*
X80522827Y-113743789D01*
X80522828Y-113743790D01*
X80591013Y-113989373D01*
X80617676Y-114085403D01*
X80750147Y-114417880D01*
X80917789Y-114734085D01*
X81118635Y-115030311D01*
X81350332Y-115303086D01*
X81352763Y-115305389D01*
X81352769Y-115305395D01*
X81479071Y-115425034D01*
X81610163Y-115549211D01*
X81895081Y-115765800D01*
X82201747Y-115950315D01*
X82526565Y-116100591D01*
X82865726Y-116214868D01*
X83215254Y-116291805D01*
X83571052Y-116330500D01*
X83925590Y-116330500D01*
X83928948Y-116330500D01*
X84284746Y-116291805D01*
X84634274Y-116214868D01*
X84973435Y-116100591D01*
X85298253Y-115950315D01*
X85604919Y-115765800D01*
X85889837Y-115549211D01*
X86149668Y-115303086D01*
X86381365Y-115030311D01*
X86582211Y-114734085D01*
X86749853Y-114417880D01*
X86882324Y-114085403D01*
X86978071Y-113740552D01*
X87035972Y-113387371D01*
X87055348Y-113030000D01*
X216658652Y-113030000D01*
X216658834Y-113033357D01*
X216677845Y-113384007D01*
X216677846Y-113384018D01*
X216678028Y-113387371D01*
X216678572Y-113390692D01*
X216678573Y-113390697D01*
X216735384Y-113737233D01*
X216735387Y-113737248D01*
X216735929Y-113740552D01*
X216736827Y-113743789D01*
X216736828Y-113743790D01*
X216805013Y-113989373D01*
X216831676Y-114085403D01*
X216964147Y-114417880D01*
X217131789Y-114734085D01*
X217332635Y-115030311D01*
X217564332Y-115303086D01*
X217566763Y-115305389D01*
X217566769Y-115305395D01*
X217693071Y-115425034D01*
X217824163Y-115549211D01*
X218109081Y-115765800D01*
X218415747Y-115950315D01*
X218740565Y-116100591D01*
X219079726Y-116214868D01*
X219429254Y-116291805D01*
X219785052Y-116330500D01*
X220139590Y-116330500D01*
X220142948Y-116330500D01*
X220498746Y-116291805D01*
X220848274Y-116214868D01*
X221187435Y-116100591D01*
X221512253Y-115950315D01*
X221818919Y-115765800D01*
X222103837Y-115549211D01*
X222363668Y-115303086D01*
X222595365Y-115030311D01*
X222796211Y-114734085D01*
X222963853Y-114417880D01*
X223096324Y-114085403D01*
X223192071Y-113740552D01*
X223249972Y-113387371D01*
X223269348Y-113030000D01*
X223249972Y-112672629D01*
X223192071Y-112319448D01*
X223096324Y-111974597D01*
X222963853Y-111642120D01*
X222796211Y-111325915D01*
X222595365Y-111029689D01*
X222363668Y-110756914D01*
X222361235Y-110754609D01*
X222361230Y-110754604D01*
X222106267Y-110513091D01*
X222103837Y-110510789D01*
X221882537Y-110342561D01*
X221821587Y-110296228D01*
X221821585Y-110296226D01*
X221818919Y-110294200D01*
X221816045Y-110292471D01*
X221816041Y-110292468D01*
X221515135Y-110111419D01*
X221515134Y-110111418D01*
X221512253Y-110109685D01*
X221508432Y-110107917D01*
X221190490Y-109960822D01*
X221190483Y-109960819D01*
X221187435Y-109959409D01*
X221099005Y-109929613D01*
X220851457Y-109846204D01*
X220851448Y-109846201D01*
X220848274Y-109845132D01*
X220845006Y-109844412D01*
X220844993Y-109844409D01*
X220502033Y-109768918D01*
X220502023Y-109768916D01*
X220498746Y-109768195D01*
X220142948Y-109729500D01*
X219785052Y-109729500D01*
X219781715Y-109729862D01*
X219781713Y-109729863D01*
X219432600Y-109767831D01*
X219432598Y-109767831D01*
X219429254Y-109768195D01*
X219425979Y-109768915D01*
X219425966Y-109768918D01*
X219083006Y-109844409D01*
X219082988Y-109844413D01*
X219079726Y-109845132D01*
X219076555Y-109846200D01*
X219076542Y-109846204D01*
X218743752Y-109958335D01*
X218743749Y-109958336D01*
X218740565Y-109959409D01*
X218737522Y-109960816D01*
X218737509Y-109960822D01*
X218418802Y-110108271D01*
X218418792Y-110108275D01*
X218415747Y-110109685D01*
X218412873Y-110111414D01*
X218412864Y-110111419D01*
X218111958Y-110292468D01*
X218111945Y-110292476D01*
X218109081Y-110294200D01*
X218106423Y-110296220D01*
X218106412Y-110296228D01*
X217826822Y-110508767D01*
X217826814Y-110508773D01*
X217824163Y-110510789D01*
X217821739Y-110513084D01*
X217821732Y-110513091D01*
X217566769Y-110754604D01*
X217566754Y-110754619D01*
X217564332Y-110756914D01*
X217562169Y-110759459D01*
X217562158Y-110759472D01*
X217334808Y-111027130D01*
X217334802Y-111027137D01*
X217332635Y-111029689D01*
X217330755Y-111032461D01*
X217330748Y-111032471D01*
X217133679Y-111323126D01*
X217133671Y-111323138D01*
X217131789Y-111325915D01*
X217130214Y-111328885D01*
X217130212Y-111328889D01*
X216965722Y-111639148D01*
X216965717Y-111639157D01*
X216964147Y-111642120D01*
X216962906Y-111645232D01*
X216962902Y-111645243D01*
X216832924Y-111971464D01*
X216831676Y-111974597D01*
X216830775Y-111977841D01*
X216830773Y-111977848D01*
X216752666Y-112259166D01*
X216735929Y-112319448D01*
X216735388Y-112322747D01*
X216735384Y-112322766D01*
X216678573Y-112669302D01*
X216678028Y-112672629D01*
X216677846Y-112675979D01*
X216677845Y-112675992D01*
X216658834Y-113026643D01*
X216658652Y-113030000D01*
X87055348Y-113030000D01*
X87035972Y-112672629D01*
X86978071Y-112319448D01*
X86882324Y-111974597D01*
X86749853Y-111642120D01*
X86582211Y-111325915D01*
X86381365Y-111029689D01*
X86149668Y-110756914D01*
X86147235Y-110754609D01*
X86147230Y-110754604D01*
X85892267Y-110513091D01*
X85889837Y-110510789D01*
X85668537Y-110342561D01*
X85607587Y-110296228D01*
X85607585Y-110296226D01*
X85604919Y-110294200D01*
X85602045Y-110292471D01*
X85602041Y-110292468D01*
X85301135Y-110111419D01*
X85301134Y-110111418D01*
X85298253Y-110109685D01*
X85294432Y-110107917D01*
X84976490Y-109960822D01*
X84976483Y-109960819D01*
X84973435Y-109959409D01*
X84885005Y-109929613D01*
X84637457Y-109846204D01*
X84637448Y-109846201D01*
X84634274Y-109845132D01*
X84631006Y-109844412D01*
X84630993Y-109844409D01*
X84288033Y-109768918D01*
X84288023Y-109768916D01*
X84284746Y-109768195D01*
X83928948Y-109729500D01*
X83571052Y-109729500D01*
X83567715Y-109729862D01*
X83567713Y-109729863D01*
X83218600Y-109767831D01*
X83218598Y-109767831D01*
X83215254Y-109768195D01*
X83211979Y-109768915D01*
X83211966Y-109768918D01*
X82869006Y-109844409D01*
X82868988Y-109844413D01*
X82865726Y-109845132D01*
X82862555Y-109846200D01*
X82862542Y-109846204D01*
X82529752Y-109958335D01*
X82529749Y-109958336D01*
X82526565Y-109959409D01*
X82523522Y-109960816D01*
X82523509Y-109960822D01*
X82204802Y-110108271D01*
X82204792Y-110108275D01*
X82201747Y-110109685D01*
X82198873Y-110111414D01*
X82198864Y-110111419D01*
X81897958Y-110292468D01*
X81897945Y-110292476D01*
X81895081Y-110294200D01*
X81892423Y-110296220D01*
X81892412Y-110296228D01*
X81612822Y-110508767D01*
X81612814Y-110508773D01*
X81610163Y-110510789D01*
X81607739Y-110513084D01*
X81607732Y-110513091D01*
X81352769Y-110754604D01*
X81352754Y-110754619D01*
X81350332Y-110756914D01*
X81348169Y-110759459D01*
X81348158Y-110759472D01*
X81120808Y-111027130D01*
X81120802Y-111027137D01*
X81118635Y-111029689D01*
X81116755Y-111032461D01*
X81116748Y-111032471D01*
X80919679Y-111323126D01*
X80919671Y-111323138D01*
X80917789Y-111325915D01*
X80916214Y-111328885D01*
X80916212Y-111328889D01*
X80751722Y-111639148D01*
X80751717Y-111639157D01*
X80750147Y-111642120D01*
X80748906Y-111645232D01*
X80748902Y-111645243D01*
X80618924Y-111971464D01*
X80617676Y-111974597D01*
X80616775Y-111977841D01*
X80616773Y-111977848D01*
X80538666Y-112259166D01*
X80521929Y-112319448D01*
X80521388Y-112322747D01*
X80521384Y-112322766D01*
X80464573Y-112669302D01*
X80464028Y-112672629D01*
X80463846Y-112675979D01*
X80463845Y-112675992D01*
X80444834Y-113026643D01*
X80444652Y-113030000D01*
X75726500Y-113030000D01*
X75726500Y-105171395D01*
X226314640Y-105171395D01*
X226332988Y-105381113D01*
X226334860Y-105391730D01*
X226389345Y-105595075D01*
X226393037Y-105605217D01*
X226482003Y-105796005D01*
X226487401Y-105805355D01*
X226522314Y-105855217D01*
X226530427Y-105862651D01*
X226539705Y-105856740D01*
X227218904Y-105177542D01*
X227225568Y-105166000D01*
X227225567Y-105165999D01*
X227942431Y-105165999D01*
X227949095Y-105177542D01*
X228628290Y-105856737D01*
X228637573Y-105862651D01*
X228645682Y-105855220D01*
X228680605Y-105805345D01*
X228685993Y-105796013D01*
X228774962Y-105605217D01*
X228778654Y-105595075D01*
X228833139Y-105391730D01*
X228835011Y-105381113D01*
X228853360Y-105171395D01*
X228853360Y-105160605D01*
X228835011Y-104950886D01*
X228833139Y-104940269D01*
X228778654Y-104736924D01*
X228774962Y-104726782D01*
X228685996Y-104535994D01*
X228680598Y-104526644D01*
X228645683Y-104476780D01*
X228637572Y-104469347D01*
X228628293Y-104475258D01*
X227949095Y-105154457D01*
X227942431Y-105165999D01*
X227225567Y-105165999D01*
X227218904Y-105154457D01*
X226539705Y-104475258D01*
X226530426Y-104469347D01*
X226522315Y-104476780D01*
X226487399Y-104526647D01*
X226482004Y-104535992D01*
X226393037Y-104726782D01*
X226389345Y-104736924D01*
X226334860Y-104940269D01*
X226332988Y-104950886D01*
X226314640Y-105160605D01*
X226314640Y-105171395D01*
X75726500Y-105171395D01*
X75726500Y-77978000D01*
X80444652Y-77978000D01*
X80444834Y-77981357D01*
X80463845Y-78332007D01*
X80463846Y-78332018D01*
X80464028Y-78335371D01*
X80464572Y-78338692D01*
X80464573Y-78338697D01*
X80521384Y-78685233D01*
X80521387Y-78685248D01*
X80521929Y-78688552D01*
X80522827Y-78691789D01*
X80522828Y-78691790D01*
X80606054Y-78991546D01*
X80617676Y-79033403D01*
X80618924Y-79036535D01*
X80736456Y-79331520D01*
X80750147Y-79365880D01*
X80917789Y-79682085D01*
X80919676Y-79684868D01*
X80919679Y-79684873D01*
X81116748Y-79975528D01*
X81118635Y-79978311D01*
X81120808Y-79980869D01*
X81311511Y-80205383D01*
X81350332Y-80251086D01*
X81352763Y-80253389D01*
X81352769Y-80253395D01*
X81503582Y-80396252D01*
X81610163Y-80497211D01*
X81895081Y-80713800D01*
X82201747Y-80898315D01*
X82526565Y-81048591D01*
X82865726Y-81162868D01*
X83215254Y-81239805D01*
X83571052Y-81278500D01*
X83925590Y-81278500D01*
X83928948Y-81278500D01*
X84284746Y-81239805D01*
X84634274Y-81162868D01*
X84973435Y-81048591D01*
X85298253Y-80898315D01*
X85604919Y-80713800D01*
X85889837Y-80497211D01*
X86149668Y-80251086D01*
X86381365Y-79978311D01*
X86582211Y-79682085D01*
X86749853Y-79365880D01*
X86882324Y-79033403D01*
X86978071Y-78688552D01*
X87035972Y-78335371D01*
X87055348Y-77978000D01*
X216658652Y-77978000D01*
X216658834Y-77981357D01*
X216677845Y-78332007D01*
X216677846Y-78332018D01*
X216678028Y-78335371D01*
X216678572Y-78338692D01*
X216678573Y-78338697D01*
X216735384Y-78685233D01*
X216735387Y-78685248D01*
X216735929Y-78688552D01*
X216736827Y-78691789D01*
X216736828Y-78691790D01*
X216820054Y-78991546D01*
X216831676Y-79033403D01*
X216832924Y-79036535D01*
X216950456Y-79331520D01*
X216964147Y-79365880D01*
X217131789Y-79682085D01*
X217133676Y-79684868D01*
X217133679Y-79684873D01*
X217330748Y-79975528D01*
X217332635Y-79978311D01*
X217334808Y-79980869D01*
X217525511Y-80205383D01*
X217564332Y-80251086D01*
X217566763Y-80253389D01*
X217566769Y-80253395D01*
X217717582Y-80396252D01*
X217824163Y-80497211D01*
X218109081Y-80713800D01*
X218415747Y-80898315D01*
X218740565Y-81048591D01*
X219079726Y-81162868D01*
X219429254Y-81239805D01*
X219785052Y-81278500D01*
X220139590Y-81278500D01*
X220142948Y-81278500D01*
X220498746Y-81239805D01*
X220848274Y-81162868D01*
X221187435Y-81048591D01*
X221512253Y-80898315D01*
X221818919Y-80713800D01*
X222103837Y-80497211D01*
X222363668Y-80251086D01*
X222595365Y-79978311D01*
X222796211Y-79682085D01*
X222963853Y-79365880D01*
X223096324Y-79033403D01*
X223192071Y-78688552D01*
X223249972Y-78335371D01*
X223269348Y-77978000D01*
X223249972Y-77620629D01*
X223192071Y-77267448D01*
X223096324Y-76922597D01*
X222963853Y-76590120D01*
X222796211Y-76273915D01*
X222595365Y-75977689D01*
X222363668Y-75704914D01*
X222361235Y-75702609D01*
X222361230Y-75702604D01*
X222106267Y-75461091D01*
X222103837Y-75458789D01*
X221818919Y-75242200D01*
X221816045Y-75240471D01*
X221816041Y-75240468D01*
X221515135Y-75059419D01*
X221515134Y-75059418D01*
X221512253Y-75057685D01*
X221301330Y-74960102D01*
X221190490Y-74908822D01*
X221190483Y-74908819D01*
X221187435Y-74907409D01*
X221049271Y-74860856D01*
X220851457Y-74794204D01*
X220851448Y-74794201D01*
X220848274Y-74793132D01*
X220845006Y-74792412D01*
X220844993Y-74792409D01*
X220502033Y-74716918D01*
X220502023Y-74716916D01*
X220498746Y-74716195D01*
X220142948Y-74677500D01*
X219785052Y-74677500D01*
X219781715Y-74677862D01*
X219781713Y-74677863D01*
X219432600Y-74715831D01*
X219432598Y-74715831D01*
X219429254Y-74716195D01*
X219425979Y-74716915D01*
X219425966Y-74716918D01*
X219083006Y-74792409D01*
X219082988Y-74792413D01*
X219079726Y-74793132D01*
X219076555Y-74794200D01*
X219076542Y-74794204D01*
X218743752Y-74906335D01*
X218743749Y-74906336D01*
X218740565Y-74907409D01*
X218737522Y-74908816D01*
X218737509Y-74908822D01*
X218418802Y-75056271D01*
X218418792Y-75056275D01*
X218415747Y-75057685D01*
X218412873Y-75059414D01*
X218412864Y-75059419D01*
X218111958Y-75240468D01*
X218111945Y-75240476D01*
X218109081Y-75242200D01*
X218106423Y-75244220D01*
X218106412Y-75244228D01*
X217826822Y-75456767D01*
X217826814Y-75456773D01*
X217824163Y-75458789D01*
X217821739Y-75461084D01*
X217821732Y-75461091D01*
X217566769Y-75702604D01*
X217566754Y-75702619D01*
X217564332Y-75704914D01*
X217562169Y-75707459D01*
X217562158Y-75707472D01*
X217334808Y-75975130D01*
X217334802Y-75975137D01*
X217332635Y-75977689D01*
X217330755Y-75980461D01*
X217330748Y-75980471D01*
X217133679Y-76271126D01*
X217133671Y-76271138D01*
X217131789Y-76273915D01*
X217130214Y-76276885D01*
X217130212Y-76276889D01*
X216965722Y-76587148D01*
X216965717Y-76587157D01*
X216964147Y-76590120D01*
X216962906Y-76593232D01*
X216962902Y-76593243D01*
X216832924Y-76919464D01*
X216831676Y-76922597D01*
X216830775Y-76925841D01*
X216830773Y-76925848D01*
X216748935Y-77220605D01*
X216735929Y-77267448D01*
X216735388Y-77270747D01*
X216735384Y-77270766D01*
X216705702Y-77451823D01*
X216678028Y-77620629D01*
X216677846Y-77623979D01*
X216677845Y-77623992D01*
X216665253Y-77856252D01*
X216658652Y-77978000D01*
X87055348Y-77978000D01*
X87035972Y-77620629D01*
X86978071Y-77267448D01*
X86882324Y-76922597D01*
X86749853Y-76590120D01*
X86582211Y-76273915D01*
X86381365Y-75977689D01*
X86149668Y-75704914D01*
X86147235Y-75702609D01*
X86147230Y-75702604D01*
X85892267Y-75461091D01*
X85889837Y-75458789D01*
X85604919Y-75242200D01*
X85602045Y-75240471D01*
X85602041Y-75240468D01*
X85301135Y-75059419D01*
X85301134Y-75059418D01*
X85298253Y-75057685D01*
X85087330Y-74960102D01*
X84976490Y-74908822D01*
X84976483Y-74908819D01*
X84973435Y-74907409D01*
X84835271Y-74860856D01*
X84637457Y-74794204D01*
X84637448Y-74794201D01*
X84634274Y-74793132D01*
X84631006Y-74792412D01*
X84630993Y-74792409D01*
X84288033Y-74716918D01*
X84288023Y-74716916D01*
X84284746Y-74716195D01*
X83928948Y-74677500D01*
X83571052Y-74677500D01*
X83567715Y-74677862D01*
X83567713Y-74677863D01*
X83218600Y-74715831D01*
X83218598Y-74715831D01*
X83215254Y-74716195D01*
X83211979Y-74716915D01*
X83211966Y-74716918D01*
X82869006Y-74792409D01*
X82868988Y-74792413D01*
X82865726Y-74793132D01*
X82862555Y-74794200D01*
X82862542Y-74794204D01*
X82529752Y-74906335D01*
X82529749Y-74906336D01*
X82526565Y-74907409D01*
X82523522Y-74908816D01*
X82523509Y-74908822D01*
X82204802Y-75056271D01*
X82204792Y-75056275D01*
X82201747Y-75057685D01*
X82198873Y-75059414D01*
X82198864Y-75059419D01*
X81897958Y-75240468D01*
X81897945Y-75240476D01*
X81895081Y-75242200D01*
X81892423Y-75244220D01*
X81892412Y-75244228D01*
X81612822Y-75456767D01*
X81612814Y-75456773D01*
X81610163Y-75458789D01*
X81607739Y-75461084D01*
X81607732Y-75461091D01*
X81352769Y-75702604D01*
X81352754Y-75702619D01*
X81350332Y-75704914D01*
X81348169Y-75707459D01*
X81348158Y-75707472D01*
X81120808Y-75975130D01*
X81120802Y-75975137D01*
X81118635Y-75977689D01*
X81116755Y-75980461D01*
X81116748Y-75980471D01*
X80919679Y-76271126D01*
X80919671Y-76271138D01*
X80917789Y-76273915D01*
X80916214Y-76276885D01*
X80916212Y-76276889D01*
X80751722Y-76587148D01*
X80751717Y-76587157D01*
X80750147Y-76590120D01*
X80748906Y-76593232D01*
X80748902Y-76593243D01*
X80618924Y-76919464D01*
X80617676Y-76922597D01*
X80616775Y-76925841D01*
X80616773Y-76925848D01*
X80534935Y-77220605D01*
X80521929Y-77267448D01*
X80521388Y-77270747D01*
X80521384Y-77270766D01*
X80491702Y-77451823D01*
X80464028Y-77620629D01*
X80463846Y-77623979D01*
X80463845Y-77623992D01*
X80451253Y-77856252D01*
X80444652Y-77978000D01*
X75726500Y-77978000D01*
X75726500Y-74934428D01*
X75726816Y-74925583D01*
X75731445Y-74860856D01*
X75731511Y-74859972D01*
X75736687Y-74794204D01*
X75743002Y-74713957D01*
X75745454Y-74697336D01*
X75765159Y-74606751D01*
X75765704Y-74604368D01*
X75793082Y-74490328D01*
X75797472Y-74475952D01*
X75831824Y-74383852D01*
X75833400Y-74379845D01*
X75876103Y-74276752D01*
X75881828Y-74264787D01*
X75929981Y-74176600D01*
X75933019Y-74171352D01*
X75990243Y-74077972D01*
X75996652Y-74068526D01*
X76057461Y-73987295D01*
X76062355Y-73981178D01*
X76132954Y-73898517D01*
X76139514Y-73891421D01*
X76211421Y-73819514D01*
X76218517Y-73812954D01*
X76301178Y-73742355D01*
X76307295Y-73737461D01*
X76388526Y-73676652D01*
X76397972Y-73670243D01*
X76491352Y-73613019D01*
X76496600Y-73609981D01*
X76584792Y-73561825D01*
X76596752Y-73556103D01*
X76699845Y-73513400D01*
X76703852Y-73511824D01*
X76795958Y-73477469D01*
X76810328Y-73473082D01*
X76924368Y-73445704D01*
X76926751Y-73445159D01*
X77017339Y-73425453D01*
X77033957Y-73423002D01*
X77180054Y-73411504D01*
X77180729Y-73411454D01*
X77228692Y-73408023D01*
X77245583Y-73406816D01*
X77254428Y-73406500D01*
X212089899Y-73406500D01*
X212090000Y-73406542D01*
X212090284Y-73406424D01*
X212090284Y-73406423D01*
X212090383Y-73406383D01*
X212090423Y-73406284D01*
X215863887Y-69632819D01*
X215904116Y-69605939D01*
X215951569Y-69596500D01*
X266695572Y-69596500D01*
X266704418Y-69596816D01*
G37*
%TD.AperFunction*%
%TA.AperFunction,Conductor*%
G36*
X240741223Y-83065939D02*
G01*
X240781451Y-83092819D01*
X245847181Y-88158548D01*
X245874061Y-88198776D01*
X245883500Y-88246229D01*
X245883500Y-93916293D01*
X245882191Y-93934264D01*
X245878711Y-93958023D01*
X245879340Y-93965214D01*
X245879340Y-93965221D01*
X245883028Y-94007369D01*
X245883500Y-94018176D01*
X245883500Y-94023709D01*
X245883916Y-94027272D01*
X245883917Y-94027282D01*
X245887098Y-94054496D01*
X245887464Y-94058082D01*
X245893371Y-94125604D01*
X245893372Y-94125609D01*
X245894001Y-94132797D01*
X245896271Y-94139649D01*
X245896976Y-94143063D01*
X245897028Y-94143384D01*
X245897120Y-94143709D01*
X245897920Y-94147085D01*
X245898759Y-94154255D01*
X245924413Y-94224742D01*
X245925582Y-94228108D01*
X245946913Y-94292479D01*
X245946917Y-94292489D01*
X245949186Y-94299334D01*
X245952971Y-94305472D01*
X245954443Y-94308628D01*
X245954570Y-94308935D01*
X245954729Y-94309220D01*
X245956295Y-94312338D01*
X245958763Y-94319117D01*
X245962727Y-94325144D01*
X245962729Y-94325148D01*
X245999979Y-94381784D01*
X246001900Y-94384799D01*
X246041288Y-94448656D01*
X246046392Y-94453760D01*
X246048542Y-94456479D01*
X246048739Y-94456752D01*
X246048973Y-94457007D01*
X246051202Y-94459663D01*
X246055170Y-94465696D01*
X246060423Y-94470652D01*
X246060424Y-94470653D01*
X246109709Y-94517151D01*
X246112296Y-94519664D01*
X248499027Y-96906395D01*
X250841452Y-99248819D01*
X250871702Y-99298182D01*
X250876244Y-99355898D01*
X250854089Y-99409385D01*
X250810066Y-99446985D01*
X250753771Y-99460500D01*
X249241775Y-99460500D01*
X249230719Y-99459978D01*
X249223333Y-99458327D01*
X249215545Y-99458571D01*
X249215538Y-99458571D01*
X249156127Y-99460439D01*
X249152232Y-99460500D01*
X249124650Y-99460500D01*
X249120805Y-99460985D01*
X249120780Y-99460987D01*
X249120653Y-99461004D01*
X249109034Y-99461918D01*
X249073172Y-99463045D01*
X249073165Y-99463046D01*
X249065373Y-99463291D01*
X249057888Y-99465465D01*
X249057872Y-99465468D01*
X249046126Y-99468881D01*
X249027083Y-99472825D01*
X249014949Y-99474358D01*
X249014948Y-99474358D01*
X249007208Y-99475336D01*
X248999958Y-99478205D01*
X248999951Y-99478208D01*
X248966598Y-99491413D01*
X248955554Y-99495194D01*
X248921101Y-99505204D01*
X248921090Y-99505208D01*
X248913610Y-99507382D01*
X248906898Y-99511351D01*
X248906896Y-99511352D01*
X248896364Y-99517580D01*
X248878904Y-99526134D01*
X248867519Y-99530642D01*
X248867513Y-99530644D01*
X248860268Y-99533514D01*
X248853963Y-99538094D01*
X248853955Y-99538099D01*
X248824932Y-99559185D01*
X248815174Y-99565595D01*
X248784296Y-99583857D01*
X248784290Y-99583861D01*
X248777580Y-99587830D01*
X248772067Y-99593341D01*
X248772060Y-99593348D01*
X248763410Y-99601998D01*
X248748627Y-99614624D01*
X248738726Y-99621817D01*
X248738716Y-99621826D01*
X248732413Y-99626406D01*
X248727444Y-99632411D01*
X248727441Y-99632415D01*
X248704572Y-99660059D01*
X248696711Y-99668697D01*
X244633228Y-103732181D01*
X244593000Y-103759061D01*
X244545547Y-103768500D01*
X231958453Y-103768500D01*
X231911000Y-103759061D01*
X231870772Y-103732181D01*
X231175039Y-103036448D01*
X232079149Y-103036448D01*
X232087255Y-103047639D01*
X232116117Y-103070103D01*
X232124679Y-103075696D01*
X232334285Y-103189129D01*
X232343639Y-103193232D01*
X232569056Y-103270617D01*
X232578968Y-103273128D01*
X232814043Y-103312355D01*
X232824239Y-103313200D01*
X233062561Y-103313200D01*
X233072756Y-103312355D01*
X233307831Y-103273128D01*
X233317743Y-103270617D01*
X233543160Y-103193232D01*
X233552514Y-103189129D01*
X233762123Y-103075695D01*
X233770681Y-103070103D01*
X233799546Y-103047637D01*
X233807650Y-103036450D01*
X233800989Y-103024342D01*
X232954942Y-102178295D01*
X232943400Y-102171631D01*
X232931857Y-102178295D01*
X232085808Y-103024343D01*
X232079149Y-103036448D01*
X231175039Y-103036448D01*
X230785819Y-102647228D01*
X230758939Y-102607000D01*
X230749500Y-102559547D01*
X230749500Y-101818317D01*
X231438683Y-101818317D01*
X231458362Y-102055818D01*
X231460046Y-102065912D01*
X231518553Y-102296947D01*
X231521872Y-102306614D01*
X231617608Y-102524873D01*
X231622470Y-102533856D01*
X231712399Y-102671504D01*
X231720363Y-102679224D01*
X231729745Y-102673300D01*
X232578304Y-101824742D01*
X232584968Y-101813199D01*
X233301831Y-101813199D01*
X233308495Y-101824742D01*
X234157053Y-102673300D01*
X234166434Y-102679224D01*
X234174402Y-102671499D01*
X234264324Y-102533864D01*
X234269192Y-102524869D01*
X234364927Y-102306614D01*
X234368246Y-102296947D01*
X234426753Y-102065912D01*
X234428437Y-102055818D01*
X234448117Y-101818317D01*
X234448117Y-101813200D01*
X240581757Y-101813200D01*
X240582181Y-101818317D01*
X240601867Y-102055901D01*
X240601868Y-102055909D01*
X240602292Y-102061021D01*
X240603549Y-102065988D01*
X240603551Y-102065995D01*
X240604767Y-102070795D01*
X240663337Y-102302081D01*
X240667502Y-102311577D01*
X240761166Y-102525110D01*
X240761169Y-102525116D01*
X240763227Y-102529807D01*
X240766027Y-102534093D01*
X240766031Y-102534100D01*
X240894075Y-102730085D01*
X240899236Y-102737985D01*
X240902710Y-102741759D01*
X240902711Y-102741760D01*
X241064184Y-102917167D01*
X241064187Y-102917170D01*
X241067656Y-102920938D01*
X241263891Y-103073674D01*
X241482590Y-103192028D01*
X241717786Y-103272771D01*
X241963065Y-103313700D01*
X242206601Y-103313700D01*
X242211735Y-103313700D01*
X242457014Y-103272771D01*
X242692210Y-103192028D01*
X242910909Y-103073674D01*
X243107144Y-102920938D01*
X243275564Y-102737985D01*
X243411573Y-102529807D01*
X243511463Y-102302081D01*
X243572508Y-102061021D01*
X243593043Y-101813200D01*
X243572508Y-101565379D01*
X243511463Y-101324319D01*
X243413738Y-101101528D01*
X243413633Y-101101289D01*
X243413632Y-101101287D01*
X243411573Y-101096593D01*
X243275564Y-100888415D01*
X243161378Y-100764376D01*
X243110615Y-100709232D01*
X243110611Y-100709229D01*
X243107144Y-100705462D01*
X242958733Y-100589949D01*
X242914963Y-100555881D01*
X242914960Y-100555879D01*
X242910909Y-100552726D01*
X242902879Y-100548380D01*
X242855377Y-100502802D01*
X242837900Y-100439328D01*
X242837900Y-93554831D01*
X242847339Y-93507379D01*
X242874218Y-93467151D01*
X242976769Y-93364598D01*
X243005284Y-93343304D01*
X243038669Y-93330987D01*
X243103803Y-93317144D01*
X243276730Y-93240151D01*
X243429871Y-93128888D01*
X243556533Y-92988216D01*
X243651179Y-92824284D01*
X243709674Y-92644256D01*
X243729460Y-92456000D01*
X243709674Y-92267744D01*
X243651179Y-92087716D01*
X243556533Y-91923784D01*
X243429871Y-91783112D01*
X243424613Y-91779292D01*
X243424611Y-91779290D01*
X243281988Y-91675669D01*
X243281987Y-91675668D01*
X243276730Y-91671849D01*
X243270792Y-91669205D01*
X243109745Y-91597501D01*
X243109740Y-91597499D01*
X243103803Y-91594856D01*
X243097444Y-91593504D01*
X243097440Y-91593503D01*
X242925008Y-91556852D01*
X242925005Y-91556851D01*
X242918646Y-91555500D01*
X242729354Y-91555500D01*
X242722995Y-91556851D01*
X242722991Y-91556852D01*
X242550559Y-91593503D01*
X242550552Y-91593505D01*
X242544197Y-91594856D01*
X242538262Y-91597498D01*
X242538254Y-91597501D01*
X242377207Y-91669205D01*
X242377202Y-91669207D01*
X242371270Y-91671849D01*
X242366016Y-91675665D01*
X242366011Y-91675669D01*
X242223388Y-91779290D01*
X242223381Y-91779295D01*
X242218129Y-91783112D01*
X242213784Y-91787937D01*
X242213779Y-91787942D01*
X242095813Y-91918956D01*
X242095808Y-91918962D01*
X242091467Y-91923784D01*
X242088222Y-91929404D01*
X242088218Y-91929410D01*
X242000069Y-92082089D01*
X242000066Y-92082094D01*
X241996821Y-92087716D01*
X241994816Y-92093885D01*
X241994814Y-92093891D01*
X241941479Y-92258039D01*
X241911229Y-92307401D01*
X241601758Y-92616872D01*
X241588130Y-92628650D01*
X241574663Y-92638676D01*
X241574657Y-92638681D01*
X241568870Y-92642990D01*
X241564232Y-92648516D01*
X241564230Y-92648519D01*
X241537033Y-92680930D01*
X241529750Y-92688880D01*
X241528369Y-92690261D01*
X241528355Y-92690276D01*
X241525809Y-92692823D01*
X241523573Y-92695650D01*
X241523571Y-92695653D01*
X241506576Y-92717146D01*
X241504302Y-92719937D01*
X241460739Y-92771854D01*
X241460735Y-92771858D01*
X241456098Y-92777386D01*
X241452860Y-92783830D01*
X241450937Y-92786755D01*
X241450752Y-92787011D01*
X241450592Y-92787298D01*
X241448763Y-92790263D01*
X241444289Y-92795923D01*
X241441239Y-92802462D01*
X241441238Y-92802465D01*
X241412592Y-92863894D01*
X241411023Y-92867136D01*
X241380596Y-92927722D01*
X241380594Y-92927727D01*
X241377360Y-92934167D01*
X241375696Y-92941184D01*
X241374509Y-92944447D01*
X241374377Y-92944763D01*
X241374288Y-92945080D01*
X241373191Y-92948387D01*
X241370143Y-92954927D01*
X241368684Y-92961990D01*
X241368683Y-92961995D01*
X241354974Y-93028387D01*
X241354194Y-93031906D01*
X241338564Y-93097855D01*
X241338563Y-93097860D01*
X241336900Y-93104879D01*
X241336900Y-93112091D01*
X241336497Y-93115539D01*
X241336443Y-93115873D01*
X241336428Y-93116226D01*
X241336126Y-93119670D01*
X241334666Y-93126744D01*
X241334876Y-93133960D01*
X241334876Y-93133961D01*
X241336848Y-93201730D01*
X241336900Y-93205337D01*
X241336900Y-100439328D01*
X241319423Y-100502802D01*
X241271920Y-100548380D01*
X241263891Y-100552726D01*
X241259845Y-100555875D01*
X241259836Y-100555881D01*
X241071704Y-100702311D01*
X241067656Y-100705462D01*
X241064193Y-100709223D01*
X241064184Y-100709232D01*
X240902711Y-100884639D01*
X240902705Y-100884646D01*
X240899236Y-100888415D01*
X240896431Y-100892706D01*
X240896428Y-100892712D01*
X240766031Y-101092299D01*
X240766024Y-101092311D01*
X240763227Y-101096593D01*
X240761172Y-101101277D01*
X240761166Y-101101289D01*
X240665397Y-101319622D01*
X240663337Y-101324319D01*
X240662079Y-101329284D01*
X240662078Y-101329289D01*
X240603551Y-101560404D01*
X240603549Y-101560413D01*
X240602292Y-101565379D01*
X240601868Y-101570488D01*
X240601867Y-101570498D01*
X240582713Y-101801657D01*
X240581757Y-101813200D01*
X234448117Y-101813200D01*
X234448117Y-101808083D01*
X234428437Y-101570581D01*
X234426753Y-101560487D01*
X234368246Y-101329452D01*
X234364927Y-101319785D01*
X234269192Y-101101530D01*
X234264324Y-101092535D01*
X234174402Y-100954899D01*
X234166434Y-100947174D01*
X234157053Y-100953098D01*
X233308495Y-101801657D01*
X233301831Y-101813199D01*
X232584968Y-101813199D01*
X232578304Y-101801657D01*
X231729745Y-100953098D01*
X231720364Y-100947174D01*
X231712397Y-100954899D01*
X231622472Y-101092538D01*
X231617607Y-101101528D01*
X231521872Y-101319785D01*
X231518553Y-101329452D01*
X231460046Y-101560487D01*
X231458362Y-101570581D01*
X231438683Y-101808083D01*
X231438683Y-101818317D01*
X230749500Y-101818317D01*
X230749500Y-100589949D01*
X232079148Y-100589949D01*
X232085808Y-100602055D01*
X232931857Y-101448104D01*
X232943400Y-101454768D01*
X232954942Y-101448104D01*
X233800990Y-100602055D01*
X233807650Y-100589949D01*
X233799543Y-100578759D01*
X233770686Y-100556299D01*
X233762119Y-100550703D01*
X233552514Y-100437270D01*
X233543160Y-100433167D01*
X233317743Y-100355782D01*
X233307831Y-100353271D01*
X233072756Y-100314044D01*
X233062561Y-100313200D01*
X232824239Y-100313200D01*
X232814043Y-100314044D01*
X232578968Y-100353271D01*
X232569056Y-100355782D01*
X232343639Y-100433167D01*
X232334285Y-100437270D01*
X232124676Y-100550704D01*
X232116117Y-100556296D01*
X232087254Y-100578760D01*
X232079148Y-100589949D01*
X230749500Y-100589949D01*
X230749500Y-97613771D01*
X230750020Y-97602718D01*
X230751672Y-97595332D01*
X230749561Y-97528144D01*
X230749500Y-97524250D01*
X230749500Y-97500545D01*
X230749500Y-97496650D01*
X230748998Y-97492681D01*
X230748080Y-97481024D01*
X230746954Y-97445173D01*
X230746709Y-97437373D01*
X230741120Y-97418140D01*
X230737174Y-97399083D01*
X230735641Y-97386944D01*
X230734664Y-97379208D01*
X230718582Y-97338591D01*
X230714803Y-97327551D01*
X230704795Y-97293102D01*
X230704793Y-97293099D01*
X230702618Y-97285610D01*
X230698647Y-97278896D01*
X230698645Y-97278891D01*
X230692421Y-97268368D01*
X230683858Y-97250890D01*
X230676486Y-97232268D01*
X230671902Y-97225959D01*
X230671899Y-97225953D01*
X230650817Y-97196937D01*
X230644401Y-97187170D01*
X230626143Y-97156296D01*
X230626140Y-97156292D01*
X230622170Y-97149579D01*
X230608005Y-97135414D01*
X230595368Y-97120618D01*
X230588184Y-97110729D01*
X230588178Y-97110723D01*
X230583594Y-97104413D01*
X230549946Y-97076577D01*
X230541305Y-97068714D01*
X229351286Y-95878695D01*
X229343842Y-95870514D01*
X229339786Y-95864123D01*
X229290775Y-95818098D01*
X229287978Y-95815387D01*
X229271227Y-95798636D01*
X229271227Y-95798635D01*
X229268471Y-95795880D01*
X229265290Y-95793412D01*
X229256414Y-95785830D01*
X229230269Y-95761278D01*
X229230267Y-95761276D01*
X229224582Y-95755938D01*
X229217749Y-95752182D01*
X229217743Y-95752177D01*
X229207025Y-95746285D01*
X229190766Y-95735606D01*
X229181095Y-95728104D01*
X229181092Y-95728102D01*
X229174936Y-95723327D01*
X229167779Y-95720229D01*
X229167776Y-95720228D01*
X229134849Y-95705978D01*
X229124363Y-95700841D01*
X229092932Y-95683562D01*
X229092923Y-95683558D01*
X229086092Y-95679803D01*
X229078535Y-95677862D01*
X229078531Y-95677861D01*
X229066688Y-95674820D01*
X229048284Y-95668519D01*
X229037057Y-95663660D01*
X229037050Y-95663658D01*
X229029896Y-95660562D01*
X229022192Y-95659341D01*
X229022190Y-95659341D01*
X228986759Y-95653729D01*
X228975324Y-95651361D01*
X228940571Y-95642438D01*
X228940563Y-95642437D01*
X228933019Y-95640500D01*
X228925223Y-95640500D01*
X228912983Y-95640500D01*
X228893597Y-95638974D01*
X228873804Y-95635840D01*
X228873260Y-95635891D01*
X228818546Y-95620252D01*
X228775121Y-95577947D01*
X228756941Y-95520111D01*
X228768354Y-95460571D01*
X228777723Y-95440480D01*
X228835035Y-95226591D01*
X228854334Y-95006000D01*
X228835035Y-94785409D01*
X228777723Y-94571520D01*
X228684142Y-94370833D01*
X228584204Y-94228108D01*
X228560237Y-94193879D01*
X228560235Y-94193877D01*
X228557132Y-94189445D01*
X228400555Y-94032868D01*
X228396124Y-94029765D01*
X228396120Y-94029762D01*
X228246974Y-93925329D01*
X228219167Y-93905858D01*
X228210470Y-93901802D01*
X228095907Y-93848381D01*
X228043731Y-93802624D01*
X228024312Y-93735998D01*
X228043732Y-93669373D01*
X228095905Y-93623619D01*
X228219167Y-93566142D01*
X228400555Y-93439132D01*
X228557132Y-93282555D01*
X228684142Y-93101167D01*
X228777723Y-92900480D01*
X228835035Y-92686591D01*
X228854334Y-92466000D01*
X228835035Y-92245409D01*
X228794435Y-92093891D01*
X228779122Y-92036741D01*
X228779121Y-92036740D01*
X228777723Y-92031520D01*
X228684142Y-91830833D01*
X228603970Y-91716337D01*
X228560237Y-91653879D01*
X228560235Y-91653877D01*
X228557132Y-91649445D01*
X228400555Y-91492868D01*
X228396124Y-91489765D01*
X228396120Y-91489762D01*
X228223604Y-91368965D01*
X228223605Y-91368965D01*
X228219167Y-91365858D01*
X228095907Y-91308381D01*
X228043732Y-91262625D01*
X228024312Y-91196000D01*
X228043732Y-91129375D01*
X228095908Y-91083618D01*
X228219167Y-91026142D01*
X228400555Y-90899132D01*
X228557132Y-90742555D01*
X228684142Y-90561167D01*
X228777723Y-90360480D01*
X228835035Y-90146591D01*
X228854334Y-89926000D01*
X228835035Y-89705409D01*
X228777723Y-89491520D01*
X228684142Y-89290833D01*
X228557132Y-89109445D01*
X228400555Y-88952868D01*
X228396124Y-88949765D01*
X228396120Y-88949762D01*
X228223604Y-88828965D01*
X228223605Y-88828965D01*
X228219167Y-88825858D01*
X228095907Y-88768381D01*
X228043732Y-88722625D01*
X228024312Y-88656000D01*
X228043732Y-88589375D01*
X228095908Y-88543618D01*
X228096500Y-88543342D01*
X228219167Y-88486142D01*
X228400555Y-88359132D01*
X228557132Y-88202555D01*
X228684142Y-88021167D01*
X228777723Y-87820480D01*
X228835035Y-87606591D01*
X228854334Y-87386000D01*
X228835035Y-87165409D01*
X228777723Y-86951520D01*
X228684142Y-86750833D01*
X228557132Y-86569445D01*
X228400555Y-86412868D01*
X228396124Y-86409765D01*
X228396120Y-86409762D01*
X228223604Y-86288965D01*
X228223605Y-86288965D01*
X228219167Y-86285858D01*
X228095907Y-86228381D01*
X228043732Y-86182625D01*
X228024312Y-86116000D01*
X228043732Y-86049375D01*
X228095908Y-86003618D01*
X228219167Y-85946142D01*
X228400555Y-85819132D01*
X228557132Y-85662555D01*
X228684142Y-85481167D01*
X228777723Y-85280480D01*
X228835035Y-85066591D01*
X228854334Y-84846000D01*
X228835035Y-84625409D01*
X228777723Y-84411520D01*
X228684142Y-84210833D01*
X228557132Y-84029445D01*
X228400555Y-83872868D01*
X228396124Y-83869765D01*
X228396120Y-83869762D01*
X228223604Y-83748965D01*
X228223605Y-83748965D01*
X228219167Y-83745858D01*
X228095907Y-83688381D01*
X228043732Y-83642625D01*
X228024312Y-83576000D01*
X228043732Y-83509375D01*
X228095908Y-83463618D01*
X228219167Y-83406142D01*
X228400555Y-83279132D01*
X228557132Y-83122555D01*
X228566359Y-83109376D01*
X228610676Y-83070511D01*
X228667934Y-83056500D01*
X240693770Y-83056500D01*
X240741223Y-83065939D01*
G37*
%TD.AperFunction*%
%TD*%
M02*
